<svg xmlns="http://www.w3.org/2000/svg" xmlns:xlink="http://www.w3.org/1999/xlink" version="1.1" x="0px" y="0px" viewBox="0 0 64 80" style="enable-background:new 0 0 64 64;" xml:space="preserve"><path d="M14.5,25h13L34,14L27.5,3h-13L8,14L14.5,25z M18,12c0-1.105,0.895-2,2-2h1c-1.105,0-2-0.895-2-2c0-1.105,0.895-2,2-2  s2,0.895,2,2c0,1.105-0.895,2-2,2h1c1.105,0,2,0.895,2,2v4l-1,1v5h-4v-5l-1-1V12z"/><path d="M34,38l-6.5-11h-13L8,38l6.5,11h13L34,38z M26.245,39.004c-0.503,0.441-1.053,0.782-1.607,1.038  c0.171,0.103,0.336,0.217,0.49,0.352c1.093,0.957,1.27,2.354,0.396,3.12c-0.874,0.766-2.469,0.611-3.562-0.347  c-0.252-0.221-0.45-0.467-0.603-0.722c-0.138,0.023-0.283,0.029-0.426,0.038c-0.15,0.241-0.338,0.474-0.577,0.684  c-1.093,0.957-2.687,1.112-3.562,0.347c-0.874-0.766-0.697-2.163,0.396-3.12c0.081-0.071,0.169-0.128,0.254-0.19  c-0.012-0.046-0.019-0.093-0.028-0.139c-0.572-0.257-1.141-0.606-1.661-1.061c-1.749-1.531-2.28-3.549-1.187-4.506  s3.396-0.492,5.145,1.04c0.391,0.342,0.711,0.711,0.976,1.084c0.009,0,0.018-0.002,0.028-0.002c0.192,0,0.377,0.022,0.559,0.049  c0.27-0.39,0.604-0.775,1.012-1.131c1.749-1.532,4.052-1.997,5.145-1.04C28.525,35.455,27.993,37.472,26.245,39.004z"/><path d="M55,50l-6.5-11h-13L29,50l6.5,11h13L55,50z M44.798,49.408c-0.332,1.111-1.057,2.137-1.065,3.292  c-0.006,0.777,0.314,1.587,0.01,2.308c-0.327,0.775-1.35,1.155-2.192,0.926c-0.842-0.23-1.468-0.96-1.702-1.766  c-0.234-0.806-0.121-1.672,0.144-2.469c0.368-1.107,1.03-2.172,0.969-3.332c-0.035-0.666-0.309-1.298-0.424-1.956  c-0.227-1.297,0.747-2.857,2.309-2.29c0.624,0.227,1.094,0.736,1.429,1.288c0.236,0.389,0.416,0.809,0.538,1.243  C45.064,47.549,45.065,48.513,44.798,49.408z"/><path d="M48.5,15h-13L29,26l6.5,11h13L55,26L48.5,15z M43,29.833V34h-1v-4c-0.347,0-0.679-0.058-1-0.141V34h-1v-4.555  c-1.191-0.693-2-1.968-2-3.445v-3.5h-2v-1h2c0-1.381,1.119-2.5,2.5-2.5s2.5,1.119,2.5,2.5V24l5,5L43,29.833z"/><rect x="58" y="2" width="2" height="2"/><rect x="58" y="6" width="2" height="2"/><rect x="60" y="4" width="2" height="2"/><rect x="56" y="4" width="2" height="2"/><rect x="4" y="56" width="2" height="2"/><rect x="4" y="60" width="2" height="2"/><rect x="6" y="58" width="2" height="2"/><rect x="2" y="58" width="2" height="2"/><text x="0" y="79" fill="#000000" font-size="5px" font-weight="bold" font-family="'Helvetica Neue', Helvetica, Arial-Unicode, Arial, Sans-serif">Created by Nithinan Tatah</text><text x="0" y="84" fill="#000000" font-size="5px" font-weight="bold" font-family="'Helvetica Neue', Helvetica, Arial-Unicode, Arial, Sans-serif">from the Noun Project</text></svg>