<svg width="152" height="152" viewBox="0 0 152 152" fill="none" xmlns="http://www.w3.org/2000/svg">
<circle cx="76" cy="76" r="75" fill="#5171B4" fill-opacity="0.1"/>
<circle cx="76" cy="76" r="75.5" stroke="#112C64" stroke-opacity="0.1"/>
<mask id="mask0" mask-type="alpha" maskUnits="userSpaceOnUse" x="5" y="4" width="143" height="143">
<g clip-path="url(#clip0)">
<path d="M76.5 163C28.1781 163 -11 123.822 -11 75.5C-11 27.1781 28.1781 -12 76.5 -12C124.822 -12 164 27.1781 164 75.5C164 123.822 124.822 163 76.5 163ZM147.419 68.1664C147.561 68.0953 147.637 67.975 147.692 67.7836C147.807 68.3906 148.086 68.9266 148.534 69.3203C148.545 69.375 148.518 69.3641 148.545 69.4406C148.589 69.4406 148.622 69.4078 148.66 69.4078C149.12 69.7797 149.688 70.0312 150.328 70.0312C151.313 70.0312 152.133 69.4844 152.614 68.7133C152.647 68.7516 152.702 68.8008 152.729 68.8445C152.723 68.757 152.713 68.6695 152.702 68.582C152.915 68.1937 153.062 67.7672 153.062 67.2969C153.062 65.7875 151.832 64.5625 150.328 64.5625C149.366 64.5625 148.567 65.0875 148.075 65.8313C148.053 65.8148 148.075 65.7492 148.015 65.7711C148.086 65.5633 147.895 65.0328 147.594 64.4641V67.2969C147.594 67.6086 147.506 67.8875 147.419 68.1664V68.1664ZM21.7688 67.3461C21.7688 66.5203 19.8875 65.1148 19.4008 65.1148C19.4008 64.9672 18.6352 63.2828 18.3453 63.2828C18.3453 62.7141 16.3492 60.1602 16.032 61.2758C15.8242 61.9977 17.5578 62.9711 17.5578 63.8078C17.8805 63.8078 19.2367 66.3781 19.5047 66.8266C22.4688 71.8359 17.2898 68.4125 17.2898 66.2906C16.6281 65.9625 15.5836 63.4414 15.5836 62.7523C15.1953 62.4406 14.0469 60.007 14.1398 60.007C14.1398 58.4102 13.2594 57.6445 11.5094 57.6445C11.4273 57.4859 9.95625 55.4188 9.92891 55.4188C9.92891 54.7625 8.74766 52.7281 8.09141 52.4055C8.09141 51.0438 7.39141 49.3648 7.70313 47.9539C7.70313 46.4719 7.62656 44.793 7.12344 43.2727C2.55703 53.0781 -0.0625 63.9719 -0.0625 75.5C-0.0625 108.537 20.9047 136.608 50.2281 147.343C50.2609 144.63 50.4633 141.382 51.0813 141.382C51.0813 140.977 51.4258 139.282 51.7375 139.282C51.7375 138.243 51.8633 136.991 51.7375 135.744C51.3492 134.962 52.2516 133.961 52.525 132.73C54.0398 131.97 52.968 124.347 54.1109 124.347C54.1109 120.535 54.9641 118.315 54.368 114.782C54.6578 114.782 52.6453 112.644 52.6617 112.682C50.7312 112.682 49.3805 109.587 49.3805 108.23C49.1945 107.634 48.7188 106.743 48.7188 106.005C49.1617 106.005 45.957 101.323 45.957 101.416C44.2617 100.476 46.05 99.1633 46.2195 97.6211C44.7484 97.1344 46.2359 93.1641 46.8758 93.1641C46.9414 92.6609 47.2039 92.3164 47.6687 92.1195C47.9969 93.4266 49.5227 91.4688 48.325 91.4688C48.325 90.6047 48.2266 88.7562 48.325 88.3242C48.325 86.9898 47.1437 84.3758 46.225 87.143C45.2406 86.6562 42.7578 86.7438 42.5445 85.1797C42.6977 84.4086 41.1281 82.8336 40.5758 82.5602C41.0898 81.2148 37.9125 79.4156 36.7641 79.4156C36.7641 79.1258 36.157 79.257 35.9766 78.8906C34.8063 78.8906 34.5383 77.3156 33.2148 77.3156C31.6891 77.3156 30.1523 76.2711 28.7469 76.2711C28.2766 75.3359 26.0945 75.7023 25.5914 74.6961C24.4484 74.6961 24 72.5305 23.9672 71.732C23.918 70.7477 23.1359 67.3461 21.7688 67.3461V67.3461ZM132.544 23.4594C132.533 23.4922 132.555 23.4703 132.5 23.5797C132.582 23.5797 132.68 23.6727 132.773 23.7109C132.691 23.6289 132.62 23.5469 132.544 23.4594ZM134.19 25.2695C134.381 25.6414 134.523 25.9859 134.48 26.1992C134.671 26.2047 134.764 26.1008 134.917 26.0625C134.682 25.7945 134.425 25.543 134.19 25.2695ZM138.942 50.1852C139.03 47.8227 136.973 48.2164 136.323 46.9039C135.645 46.9039 135.398 46.3789 134.48 46.3789C133.884 46.1766 133.413 46.3188 133.069 46.8055C131.663 47.3414 132.511 46.1219 131.455 46.1219C131.505 44.7711 130.969 44.3992 129.481 44.5469C128.628 46.4719 127.316 47.6258 127.512 49.7914C128.141 49.9336 128.032 50.0758 127.906 50.7047C128.743 50.7484 133.818 50.4422 133.818 49.9172C133.993 49.9172 134.873 51.7273 134.873 50.1797C135.579 50.1797 135.951 51.8367 137.635 51.3555C137.635 51.6945 140.446 50.1852 138.942 50.1852V50.1852ZM139.21 78.0922C139.309 77.6109 138.97 77.3977 138.685 76.9109C139.434 76.9109 136.317 71.1305 136.317 70.2281C135.841 69.993 135.234 68.3414 135.125 67.7398C134.485 67.3133 133.823 65.9133 133.55 65.1203C132.899 64.6883 131.313 62.7523 131.056 61.8445C131.997 61.9484 133.419 62.1398 133.419 60.9258C132.784 60.9258 132.691 60.1438 133.293 60.1438C133.096 59.3398 133.72 58.7602 133.856 58.1313C134.02 57.3711 134.343 56.2008 134.343 55.293C133.441 55.293 133.222 55.4461 132.505 55.6867C132.505 56.2172 130.903 55.5555 130.668 55.5555C130.323 54.8664 127.824 56.4523 127.124 55.0305C125.992 54.0078 126.298 53.2203 125.932 51.7766C125.746 51.0437 124.745 51 124.138 50.8797C122.427 50.5461 123.663 52.9195 123.57 53.4609C124.62 53.4609 122.908 54.7625 122.908 55.4242C121.136 55.0414 121.727 53.0672 120.682 52.5422C120.37 52.0172 120.616 51.6234 119.889 51.6234C119.889 50.9234 120.261 49.6547 119.495 49.3977C119.495 49.0586 118.008 48.9219 117.789 48.4789C116.848 48.4789 114.661 44.9242 113.988 46.1219C113.567 46.8875 114.344 47.0734 114.502 47.6969C115.864 47.4289 115.733 49.9391 117.395 49.6602C117.395 50.0102 117.439 50.3656 117.521 50.7102C118.752 50.4203 118.609 51.6234 119.227 51.6234C118.779 52.2195 117.357 50.6719 117.745 51.9734C117.97 52.7281 117.844 53.3734 116.865 54.1117C116.865 53.2969 116.799 51.0984 115.946 51.0984C115.366 49.9391 113.644 50.218 112.916 49.1352C112.326 49.1352 112.096 47.2977 111.079 47.1719C110.887 47.4398 110.171 47.6969 109.892 47.6969C109.34 48.807 106.217 47.8117 106.217 47.9594C106.168 47.9703 104.467 52.1266 104.369 52.6734C104.177 53.8492 103.231 53.8711 102.947 54.9867C102.805 55.5445 99.3758 55.282 99.3758 55.6922C97.8938 55.2 96.6141 54.1609 96.6141 52.5477C96.4937 52.5477 96.893 48.4297 97.1445 47.8281C97.4453 47.9102 97.5055 48.0141 97.675 48.3531C98.5828 48.0141 100.699 48.5773 100.699 47.5656C101.58 47.5875 101.842 47.9375 101.487 48.6156C102.307 48.7687 103.723 48.9766 103.723 47.8281C103.242 47.8281 103.193 47.7844 103.193 47.3031C104.768 45.668 102.012 44.1914 102.012 43.3766C101.454 43.1906 100.316 41.982 101.126 42.4359C101.809 42.8133 104.309 43.5953 103.324 41.9328C103.39 41.9109 103.434 41.8672 103.45 41.807C103.729 42.0039 104.905 43.2125 104.905 42.0695C105.227 42.0695 106.474 41.282 105.43 41.282C105.528 40.6914 105.506 40.1992 105.555 39.8383C107.223 40.7352 106.294 39.2258 107.136 38.6625C107.136 39.7508 108.033 38.1375 108.58 38.1375C109.23 37.1695 110.718 37.9188 111.079 36.825C110.275 36.5625 110.423 34.55 110.423 33.8172C111.391 33.9758 112.468 32.5102 112.616 33.5164C112.67 33.9047 112.72 34.9766 112.916 35.1242C114.355 35.8789 113.972 34.6922 113.972 33.9484C113.491 33.9484 112.851 32.2641 112.785 31.4547C112.391 31.5094 111.757 31.6734 111.598 31.9742C110.166 31.9742 109.192 31.4547 108.055 31.4547C107.967 31.2797 106.6 29.7484 106.742 29.7484C105.944 28.3758 107.541 28.775 107.792 28.7094C107.792 27.4078 113.212 27.6375 113.447 25.5594C111.664 25.5594 115.284 22.5406 115.284 22.5516C116.493 21.518 117.133 20.6266 118.637 20.5117C119.271 20.468 126.326 18.5211 126.326 19.4016C126.61 19.4125 127.551 19.4234 128.524 19.4562C114.869 6.75781 96.6195 -1.0625 76.5 -1.0625C57.0148 -1.0625 39.2797 6.27656 25.7664 18.2695C25.8867 18.543 25.9797 18.8055 25.9742 18.9914C26.6906 18.9422 27.7188 18.4828 27.9484 19.3906C27.593 19.3852 27.2375 19.3414 26.8984 19.2539C27.15 21.2828 26.0125 20.0414 25.0609 20.0414C25.0609 19.9922 24.6398 19.8227 24.1914 19.7023C23.9016 19.9758 23.5953 20.2328 23.3055 20.5062C23.3383 20.5937 23.2891 20.5992 23.3438 20.6977C23.65 20.6977 23.4914 21.1734 24.3664 21.4633C25.3781 21.8078 26.4883 21.9992 27.5547 22.1688C28.4188 22.3055 28.9164 22.0102 29.6547 22.0102C29.6547 21.9008 31.4594 21.0969 30.1852 21.0969C30.3602 20.375 30.0375 20.1945 29.2609 20.1836C29.3266 19.418 31.1477 19.9211 31.8914 19.9211C32.4602 18.9641 31.9078 19.0789 32.4109 18.2094C33.0125 17.143 33.7289 18.0672 34.1227 17.0445C34.7188 17.2633 35.2492 17.5859 35.4406 18.3406C35.9164 18.7344 38.3336 22.3 38.3336 19.7789C39.1977 20.0687 39.6297 21.6875 39.6461 22.5352C41.2156 22.3055 41.3523 21.1297 41.3523 19.9102C41.7133 19.9102 41.2211 19.325 41.2211 19.1227C41.8062 18.9094 42.5391 19.6805 42.5391 18.8656C42.7906 18.8656 42.8016 19.1172 42.8016 19.3906C43.6164 19.5492 44.1414 19.2977 44.6391 19.4727C44.9836 19.593 44.8086 21.3812 44.65 22.0102C44.4531 22.8086 42.9273 22.8195 42.9273 23.1914C41.1992 24.482 44.9672 25.1547 45.5578 25.9422C45.2023 25.9422 43.8516 25.7672 43.8516 25.6852C42.9984 25.6852 40.9313 26.5875 40.1711 25.9422C41.232 25.9422 41.5875 24.668 41.7516 23.4539C40.7727 23.0875 39.6188 23.6891 39.3453 24.6625C38.8859 26.2703 37.8195 24.5969 37.2836 25.6797C37.0758 25.7453 35.1781 26.6258 35.1781 26.3305C33.0453 26.6312 33.6031 28.4414 33.6031 30.3937C34.4508 30.9023 36.1734 32.3516 36.0969 33.1445C38.0109 33.4836 38.7109 33.6859 40.4336 33.932C40.5758 34.2109 41.1445 34.4734 41.4891 34.5828C41.4891 35.7094 42.5117 35.507 43.4578 35.507C43.4578 34.0688 45.1312 36.7047 45.2953 37.2078C45.0656 37.2078 45.6891 38.6789 45.8203 39.1766C45.5578 39.0836 45.4758 39.1766 45.5578 39.4391C46.3891 39.7453 47.707 39.6578 47.9258 38.7828C47.1273 38.7828 47.3953 37.8695 47.3953 37.3391C46.575 36.7922 46.7008 35.7367 47.5266 35.507C47.5266 36.2508 50.2336 35.0422 48.7078 34.4625C49.0797 33.6258 49.3312 32.3406 48.7242 31.6133C48.3359 31.1539 47.8492 31.6133 47.6578 30.9242C48.6914 30.6672 47.9313 28.6984 47.9203 27.7797C48.2484 27.6539 49.1016 27.9875 49.1016 27.7797C50.1133 27.7797 51.7977 29.0594 52.3883 27.5117C54.0781 28.2828 52.7328 29.0156 54.4937 28.4305C54.4937 28.8461 56.4789 30.7875 56.7305 30.7875C56.7305 30.8805 56.6813 31.4437 57.1188 31.4437C57.1188 31.8648 56.8562 31.2031 56.8562 31.9633C57.1023 31.9906 58.4367 32.2313 58.4367 31.7063C59.2844 31.7063 59.8805 30.6672 59.8805 29.8742C60.4109 29.5297 61.3406 32.7563 61.9805 32.7563C62.4508 33.4891 63.9547 34.5555 63.9547 35.2445C64.2719 35.5672 64.6055 35.4797 64.6055 36.4258C65.0047 36.4258 65.7922 34.8563 65.7922 36.2945C66.1641 36.2945 67.2469 37.093 67.3727 37.7328C66.4266 37.7328 67.3234 38.6516 66.8367 38.6516C66.8367 39.5594 64.8078 38.8375 64.3484 38.7828C63.7195 41.5992 59.9242 39.5758 57.6273 40.3031C56.4187 40.6859 54.0836 43.3492 53.9578 44.6781C55.4234 44.6945 56.0688 43.4094 57.3758 42.9719C58.4422 42.9719 58.65 42.3266 59.6125 42.0586C59.6125 42.3266 59.875 42.1844 59.875 42.4523C58.0047 42.4523 59.1422 43.6609 59.6891 44.5414C60.0281 45.0883 60.4164 45.3508 60.8484 45.5203C60.668 45.8375 60.5203 46.1547 60.4055 46.5102C60.4055 46.5156 60.4 46.5102 60.4 46.5156C60.0445 46.6359 59.35 46.893 59.2133 47.1719C57.0969 47.407 58.1414 47.2648 58.2836 46.7563C58.3602 46.9367 59.1203 46.7727 59.0875 46.7781C58.9617 46.1438 58.7703 46.2313 58.9562 45.8648C57.8078 45.8648 57.25 46.3898 56.3258 46.3898C56.1727 46.7016 55.3688 47.4398 55.0133 47.4398C54.7453 48.2492 54.1383 49.7203 53.4328 50.1906C53.4328 49.9773 51.5625 51.3664 51.7266 51.3664C51.3109 52.0391 50.857 52.0172 50.6711 53.0672C50.5453 53.1328 50.0148 54.8883 50.0148 55.1617C49.2 55.7031 48.8992 57.9125 47.5156 57.9125C46.668 59.5969 45.1477 59.3727 45.1477 61.582C45.6617 62.107 45.8586 64.4313 46.0172 65.175C46.2141 66.0992 46.5203 67.0617 45.2844 67.0836C45.1969 66.9469 44.3328 65.6398 44.4914 65.6398C44.4914 65.0984 43.8297 63.3648 43.4414 62.8234C42.9219 62.0961 41.9594 62.9383 41.2047 62.6211C40.882 61.9758 38.7 61.8336 37.9234 61.8336C38.0492 62.3203 38.4047 62.4734 38.4484 63.0148C37.8031 63.2773 37.4313 63.5727 36.7641 63.4797C35.6211 63.3211 35.7578 62.4297 34.5 62.5555C32.4875 62.7578 31.082 64.4258 31.082 66.4219C30.8578 66.4219 30.8578 70.3539 31.082 70.3539C31.082 71.4641 32.0008 72.268 32.0008 73.1047C32.8922 73.1047 33.893 75.068 34.7625 75.068C34.8609 75.7625 34.325 75.8719 35.8125 75.8609C35.8125 75.7844 36.6219 75.3523 36.7312 74.8109C35.7031 74.5594 36.7258 73.2359 37.3875 72.9789C37.3875 73.9141 38.7 72.6672 38.7 72.5852C38.8477 72.525 40.1492 72.0602 40.1492 72.0602C40.1492 70.9992 41.1391 72.1641 40.4117 72.5852C39.7008 72.5852 39.7555 73.7664 39.3617 73.7664C39.1922 74.6086 38.8586 75.3414 38.6617 76.1617C38.4102 77.1734 39.2305 77.2773 38.968 78.2234C40.0125 78.4203 41.068 78.2289 42.1234 78.2234C42.1289 78.0375 42.0906 77.857 41.9922 77.6984C43.518 77.6984 42.1234 80.5805 43.0477 80.5805C43.0477 81.6688 43.5727 82.5164 43.5727 83.2C44.2836 83.6703 44.7102 84.2992 44.4914 85.1633C45.3664 85.2781 47.2477 85.5023 47.2477 84.3758C48.5766 84.3758 48.6695 85.2781 48.5711 86.2078C51.218 86.2078 49.5609 83.5883 50.6656 83.5883C50.7695 83.1563 50.95 83.0797 51.207 83.3641C51.7484 83.6539 52.1586 82.8227 52.5906 82.5602C52.7273 82.4672 53.2086 82.1883 53.2961 82.1883C53.668 82.4125 53.7008 82.3469 53.8648 82.5984C54.5867 82.593 55.3141 82.1883 55.932 81.7617C56.8781 81.8766 56.5719 83.9109 58.3438 84.0367C59.0547 84.0859 60.7008 84.2828 61.3133 83.8617C61.4664 83.7578 62.0297 84.2172 62.0898 84.4141C62.6805 84.4141 62.6367 84.9281 62.8883 84.9172C62.9484 85.032 63.0359 85.0758 63.1563 85.043C63.2328 85.2672 63.7031 85.3328 63.9492 85.9563C63.9492 86.525 65.1305 86.6234 65.1305 87.0008C65.9781 87.4273 64.8406 87.5422 66.1422 87.9359C66.8586 88.1602 67.5203 88.5211 68.2914 88.5758C68.5375 87.6406 69.3359 88.7016 69.7406 88.7016C69.9484 89.1281 70.0578 88.8055 70.2602 89.2266C71.4797 90.2438 70.6758 89.85 71.1789 90.9328C71.7641 91.3156 71.95 92.65 72.1086 93.4211C71.6383 93.4211 71.9719 95.2203 71.9719 95.3898C71.4031 95.3898 73.4266 96.4672 73.4266 95.1219C74.2578 95.2586 74.8047 96.1664 75.3953 96.1664C75.0508 96.9594 76.3141 97.5555 76.3141 96.3031C77.5609 96.4289 77.2273 98.2883 77.107 98.9227C78.0313 98.9227 78.2992 98.4086 79.0867 98.3102C79.9398 97.7687 80.8914 97.375 81.9688 97.375C84.993 97.375 87.4375 99.8195 87.4375 102.844C87.4375 105.567 85.4086 107.727 82.8 108.143C82.45 108.542 82.1328 108.887 82.1109 108.887C82.1109 109.149 82.0508 111.763 81.9742 111.763C81.9742 112.288 81.575 115.17 81.1867 115.17C81.1867 116.652 80.2188 116.92 79.8742 118.315C79.0758 118.905 76.9156 119.89 76.582 120.541C75.9641 120.541 75.5047 121.066 74.8758 121.066C74.7883 121.246 73.4484 122.509 73.6891 122.509C73.5906 123.439 73.7602 125.627 73.257 126.239C72.918 126.644 72.4313 126.6 72.6445 127.234C71.9063 127.234 72.6883 127.759 71.5234 127.759C70.7906 127.759 69.4836 128.804 69.4453 129.69C69.3961 130.773 69.1062 131.555 68.1766 132.216C68.1766 132.588 66.4703 132.698 66.4703 133.66C66.6289 133.66 66.4703 135.443 66.4703 135.623C65.9617 135.607 64.7148 136.116 64.5016 136.537C62.7844 136.537 62.9922 136.712 61.8766 137.455C61.8766 137.685 61.718 138.5 61.4828 138.5C61.4828 139.829 60.5367 138.62 59.7711 139.293C60.0719 139.293 60.4547 140.6 60.2961 140.6C60.2961 141.754 59.5797 141.852 58.8523 142.7C58.5078 142.93 58.1797 143.881 57.9336 143.881C57.9336 144.658 57.5453 145.363 57.5453 146.107C57.7094 146.107 57.5563 146.441 57.6711 146.752C58.0375 146.648 58.0484 146.233 58.1961 146.233C58.1961 145.577 59.2406 146.621 58.5898 146.621C58.0484 147.441 57.4633 147.458 57.1406 148.59C56.8125 148.59 56.5281 148.907 56.2875 149.279C62.7297 151.034 69.4891 152.062 76.5 152.062C103.428 152.062 127.064 138.128 140.714 117.101C140.796 115.165 141.097 113.316 141.31 112.677C141.846 113.07 142.245 113.809 142.623 112.677C141.677 112.491 141.906 112.163 142.229 111.37C142.59 111.588 143.317 111.856 143.908 111.818C144.088 111.479 144.23 111.118 144.411 110.779C143.875 110.363 144.613 109.286 144.87 109.811C145.007 109.548 145.127 109.275 145.253 109.013C145.193 108.996 145.209 109.034 145.122 109.007C145.122 108.531 145.209 108.591 145.521 108.351C145.527 108.4 145.521 108.4 145.532 108.444C150.306 98.4523 153.062 87.3125 153.062 75.5C153.062 75.1117 153.008 74.7398 153.002 74.3516C152.86 74.8875 152.592 75.4672 152.215 75.5984C152.215 75.943 148.305 77.6437 148.54 78.3492C147.851 78.3492 145.434 79.0383 144.991 79.9188C144.504 79.9188 142.541 80.6133 142.36 80.9688C139.921 80.9742 140.386 78.0922 139.21 78.0922V78.0922ZM150.328 48.1562H147.424C147.402 48.1289 147.38 48.1234 147.359 48.0852C147.211 48.0852 146.593 46.6961 146.834 46.3789C147.069 46.3789 147.178 46.4008 147.304 46.4117C147.058 45.8102 146.79 45.2195 146.522 44.6234C145.931 45.0281 145.412 45.5422 144.597 45.5914C144.597 45.8156 143.432 48.0797 144.597 48.0797C144.597 48.1234 144.619 48.1562 144.63 48.1945C143.235 48.3258 142.125 49.4633 142.125 50.8906C142.125 52.4 143.35 53.625 144.859 53.625H145.937C146.002 54.1227 146.27 54.5547 147.227 54.768C147.528 56.0312 149.781 56.4797 150.12 55.1562C149.169 55.1562 149.48 54.243 149.563 53.625H150.328C151.832 53.625 153.062 52.4 153.062 50.8906C153.062 49.3813 151.832 48.1562 150.328 48.1562V48.1562ZM142.36 83.7141C142.552 83.725 143.815 83.6922 143.815 83.468C144.958 83.468 146.505 83.3094 147.627 82.9375C147.627 84.6328 146.199 85.5789 146.44 87.2633C145.494 87.2633 145.909 88.2367 145.909 88.5703C145.297 88.9477 145.204 89.6367 144.466 90.0141C144.466 90.7742 142.759 92.032 142.256 92.6828C141.688 93.4102 139.976 94.6734 139.752 95.5977C139.812 95.3789 136.623 98.9172 137.367 98.9172C137.367 99.5789 136.47 104.813 137.63 104.813C137.63 105.272 138.62 109.663 138.018 109.663C138.018 111.074 137.099 111.938 137.099 113.065C136.651 113.371 136.011 113.541 135.787 113.989C134.983 113.989 134.595 115.695 134.212 115.695C134.212 117.516 133.681 118.867 133.681 120.934C133.829 120.934 132.631 123.882 132.631 124.073C131.663 124.724 129.213 127.059 129.213 128.273C129.213 128.273 127.507 130.669 127.245 131.024C126.73 131.024 122.771 131.768 122.771 132.074C121.929 132.074 119.752 132.736 119.227 131.943C119.227 131.112 118.773 130.056 118.702 128.924C118.298 128.924 118.232 127.223 117.784 127.223C117.784 126.863 115.273 121.848 115.678 121.848C115.678 121.328 115.23 119.622 115.153 119.622C115.153 117.817 113.835 116.313 113.835 114.645C113.447 114.645 112.643 110.981 113.048 110.981C113.048 109.056 113.72 107.798 113.999 105.66C114.311 103.314 113.852 101.887 113.441 100.23C113.217 100.23 112.463 98.9773 112.386 98.6602C111.33 97.9602 110.942 96.5711 110.942 95.2586C111.631 94.4711 111.905 91.5125 111.735 90.5391C110.406 89.9102 109.876 90.1453 108.443 90.1453C107.595 88.4445 101.902 89.4945 100.289 89.4945C100.289 90.4242 96.3242 89.3141 95.9523 88.5758C94.9844 88.5758 93.0648 86.5195 93.0648 85.5625C92.0039 84.857 90.3086 81.3461 90.3086 80.1922C89.3898 79.7328 89.6687 77.9609 90.1719 77.9609C90.2977 77.4688 89.8492 75.9156 89.6359 75.1773C89.4773 74.625 90.1719 74.0289 90.1719 73.3727C90.1719 71.5461 90.2156 70.7039 91.2383 68.7516C91.5609 68.1391 91.9711 67.5648 92.2719 66.7992C92.8188 65.4266 92.9828 66.7336 93.7211 65.5086C94.4266 65.1586 94.8367 63.9883 95.5641 63.4141C95.8813 62.993 95.8922 62.818 95.5641 62.4953C95.7063 62.4953 96.4828 60.4773 96.4828 60.0125C97.5109 58.5852 96.7836 59.2359 97.7953 59.3563C98.1672 58.9516 98.7852 57.9125 99.3703 57.9125C99.6273 57.4039 100.273 57.125 100.82 57.125C100.82 57.9125 102.963 56.868 103.187 56.868C103.554 56.1297 105.916 55.293 106.474 55.293C106.474 54.3961 111.134 55.5445 111.866 55.4242C111.866 55.293 111.866 55.1617 111.866 55.0305C112.862 55.2656 114.677 59.2578 114.491 60.1438C115.257 60.1438 115.968 60.018 116.466 60.1438C116.466 60.9914 118.062 61.1992 118.79 61.2375C119.802 61.2867 122.771 61.1336 122.771 59.75C123.553 59.75 124.248 60.2969 124.095 61.1883C124.98 61.2867 130.247 61.3906 129.875 62.4953C130.646 62.4953 130.843 63.8133 131.581 63.8133C131.434 64.7211 132.5 67.0891 133.288 67.0891C133.288 67.8766 133.78 69.3258 134.474 69.8344C134.846 70.9609 136.077 73.3344 137.23 74.0289C136.738 74.9586 137.98 75.7242 138.286 76.6484C138.215 76.6484 138.554 78.0211 138.937 78.2234C138.937 79.1531 140.895 82.943 141.966 82.943C142.038 83.4023 140.96 83.6102 142.36 83.7141V83.7141ZM113.972 54.3742C114.174 53.5922 114.634 54.1992 115.06 54.3414C116.072 54.6695 115.722 54.325 116.471 53.9859C116.471 56.1187 115.246 54.5 113.972 54.3742ZM111.205 50.4422C111.741 50.4422 111.888 52.8484 110.417 52.4055C110.417 51.8094 110.04 50.7047 110.816 50.7047C111.041 51.6344 111.205 51.257 111.205 50.4422V50.4422ZM110.554 48.8727C111.161 49.1352 111.429 49.0477 111.341 48.6102C112.14 48.8727 111.237 49.4414 111.079 50.0539C110.669 49.6492 110.795 49.507 110.554 48.8727ZM96.4828 37.2078C95.1922 36.8742 97.8117 36.4914 97.9266 36.1633C97.4891 36.1633 97.1883 35.7094 97.3578 35.3266C97.5547 34.8727 97.8773 35.868 98.3258 35.6437C98.8562 35.5891 99.9008 34.7961 99.3648 36.3273C98.818 37.8805 98.3203 39.018 96.3516 39.0453C95.6461 38.3344 96.3242 37.9625 96.4828 37.2078V37.2078ZM101.35 31.8375C102.411 31.8375 101.481 32.625 101.246 32.625C101.427 32.6961 101.213 33.3305 101.213 33.5383C102.198 33.5273 102.214 32.9258 102.92 32.7508C102.772 33.6312 101.787 33.8008 102.75 34.5555C103.259 34.9547 103.778 35.425 103.576 36.032C104.828 36.032 105.014 37.2352 104.757 38.6516C105.452 38.6516 105.419 38.6844 105.419 37.9898C106.091 38.1758 106.042 38.7828 105.419 38.7828C104.795 40.0133 103.16 39.9586 102.001 39.9586C101.99 39.007 101.809 38.9469 100.929 39.2148C99.7258 39.5812 100.666 38.2578 100.688 37.6016C100.82 37.6016 103.417 37.7219 101.87 37.2078C101.787 35.7969 101.47 35.3758 100.163 35.3758C100.163 34.4133 99.8242 34.4844 99.6656 33.4289C99.4414 31.8703 100.885 33.5383 101.35 31.8375V31.8375ZM100.951 40.3523C100.951 40.675 100.295 40.932 100.163 40.4781C100.289 40.5219 100.338 40.4781 100.289 40.3523C100.513 40.3523 100.738 40.3523 100.951 40.3523ZM90.1719 26.2812H84.7031C83.1938 26.2812 81.9688 25.0562 81.9688 23.5469C81.9688 22.0375 83.1938 20.8125 84.7031 20.8125H90.1719C91.6812 20.8125 92.9062 22.0375 92.9062 23.5469C92.9062 25.0562 91.6812 26.2812 90.1719 26.2812ZM58.3109 74.6797C58.6172 74.6797 58.9727 74.8 58.9727 75.0734C58.5734 75.0734 58.0594 75.4508 58.3109 74.6797ZM53.3234 74.9477C53.1047 75.3633 51.3328 75.2922 51.0867 74.8109C51.743 74.8109 52.2516 75.0789 52.9242 74.8109C52.9242 74.45 52.6234 74.1602 52.3992 73.7664C53.1156 73.7664 53.9195 74.3133 54.8984 74.2914C54.8984 73.6844 54.6305 74.4227 54.8984 73.6352C55.3086 73.7391 56.2984 74.6797 56.3422 75.0734C54.9039 74.9203 54.8383 74.9477 53.3234 74.9477ZM47.5375 71.8031C46.8648 71.8031 45.5687 71.218 45.1695 70.6219C45.8203 70.6492 46.4656 70.9172 46.8758 70.2281C48.5438 70.3977 48.6914 71.5461 50.0312 71.5461C50.2828 71.9891 51.7156 73.0062 50.332 73.1375C49.2875 73.2359 47.975 72.6672 47.5375 71.8031V71.8031ZM48.5875 75.4727C48.1008 75.4727 47.2969 75.6859 47.6687 74.6797C48.3141 74.7672 48.6203 75.0352 48.5875 75.4727ZM49.5063 75.3414C49.2438 75.3852 48.9813 75.4289 48.7188 75.4727C48.7953 74.8656 49.3695 74.1875 49.5063 75.3414ZM54.368 81.1C54.2641 81.4664 54.2805 81.4883 53.8484 81.4883C53.8922 81.3187 53.9305 81.1492 53.9742 80.9688C54.1109 81.0125 54.2367 81.0563 54.368 81.1V81.1ZM42.5391 70.2281C42.6648 70.2719 42.8016 70.3211 42.9328 70.3594C43.1023 71.0102 43.4578 70.6875 43.8516 70.4906C43.8516 71.2508 42.0906 71.4695 42.5391 70.2281V70.2281Z" fill="#DABDB8"/>
<path d="M96.2977 8.55078C91.9445 -0.0690525 82.8235 -1 79.1048 -1L78.8468 -0.998147L78.5888 -1C74.8692 -1 65.7487 -0.0690525 61.396 8.55078C59.5688 12.169 59.6943 18.9626 60.8578 23.1833C61.8058 26.62 61.7442 26.7751 61.5127 27.3522C61.4492 27.5115 61.376 27.6954 61.301 27.946C61.1264 28.5347 60.9439 31.648 61.4603 33.4358C61.8401 34.7493 62.1977 35.9901 64.1416 35.9901C64.4593 35.9901 64.8136 35.9591 65.2272 35.8956C65.5736 35.8424 65.9201 35.7794 66.2637 35.7173C67.0678 35.5714 67.8288 35.4339 68.4901 35.4339C69.5827 35.4339 70.1464 35.8048 70.4349 36.7131C70.748 37.6996 70.68 38.3754 70.6313 38.8686C70.604 39.1414 70.5753 39.4443 70.6674 39.7074C70.6383 39.8422 70.6049 40.0316 70.5832 40.2655C70.5669 40.4693 70.5535 40.7792 70.6239 41.0955C70.711 41.5485 70.9866 41.9088 71.3585 42.0579C71.5618 42.1422 71.7684 42.1835 71.9638 42.1835C72.1746 42.1835 72.3737 42.1353 72.5465 42.038C72.5511 42.0352 72.5539 42.0325 72.5581 42.0297C72.5877 42.0876 72.6206 42.1455 72.6586 42.202C72.854 42.491 73.1824 42.6401 73.6354 42.6457C73.6418 42.6457 73.6488 42.6457 73.6562 42.6457C73.8595 42.6457 74.0471 42.623 74.1981 42.604L74.2958 42.5924C74.4561 42.5693 74.5881 42.5581 74.6793 42.5512C74.9753 42.8083 75.3486 42.849 75.6019 42.8726L75.6524 42.8773C75.7701 42.8847 75.8831 42.8875 75.9924 42.8875C76.1299 42.8875 76.261 42.8824 76.3884 42.8773C76.7793 42.8546 77.0405 42.8458 77.0423 42.8453L77.0414 42.8194C77.0928 42.8462 77.1447 42.8712 77.2035 42.8939C77.4485 42.9717 77.694 43 77.9288 43C78.297 43 78.6407 42.9296 78.9195 42.8726L79.6189 42.7216C79.7138 42.7013 79.7727 42.6925 79.7819 42.692L79.7801 42.6744C79.9843 42.7689 80.2108 42.8231 80.4614 42.8231C80.579 42.8231 80.7004 42.8129 80.8259 42.792C81.0829 42.7527 81.3099 42.692 81.51 42.6387L81.6058 42.6128C81.9439 42.5174 82.1811 42.4776 82.2343 42.4683C82.2658 42.4711 82.2978 42.478 82.3284 42.478C82.3747 42.478 82.4196 42.4752 82.4631 42.4697C82.7119 42.4488 82.9328 42.403 83.1264 42.3627L83.2135 42.3446C83.4043 42.3043 83.5645 42.2738 83.6669 42.258C83.703 42.2539 83.7294 42.2511 83.753 42.2488C83.8897 42.2886 84.0333 42.3159 84.181 42.3159C84.1954 42.3159 84.2093 42.3159 84.2227 42.3155C84.4797 42.3117 84.7447 42.252 84.9888 42.1084C85.0638 42.0603 85.1319 41.9996 85.1949 41.9315C85.1967 41.9333 85.1976 41.9357 85.1995 41.9371C85.3829 42.0992 85.621 42.1816 85.8859 42.1816C86.0614 42.1816 86.2485 42.1455 86.4403 42.0737C86.8266 41.9273 87.1207 41.5596 87.2054 41.127C87.2823 40.7931 87.2689 40.4804 87.2527 40.2706C87.2119 39.8139 87.1225 39.5157 87.1123 39.4832L87.0591 39.4999L86.9396 38.5458C86.9586 38.0525 87.0137 37.487 87.2587 36.7122C87.5472 35.8039 88.1109 35.4329 89.2035 35.4329C89.8649 35.4329 90.6254 35.5705 91.4299 35.7164C91.7736 35.7784 92.12 35.8414 92.4664 35.8947C92.88 35.9581 93.2353 35.9892 93.5521 35.9892C95.495 35.9887 95.8535 34.7484 96.2333 33.4349C96.7446 31.6628 96.8113 28.3494 96.6557 27.7371C96.5807 27.4407 96.4695 27.2471 96.3806 27.0919C96.1736 26.7307 95.96 26.356 96.8354 23.1824C97.9993 18.963 98.1248 12.169 96.2977 8.55078ZM72.2593 40.9538C72.2158 41.1187 72.1597 41.2192 72.0972 41.2567C72.0166 41.3011 71.8573 41.2882 71.6975 41.2229C71.5989 41.1835 71.5312 41.0445 71.5058 40.9125C71.4604 40.7051 71.4687 40.4962 71.4812 40.3419C71.4821 40.3317 71.484 40.3239 71.4849 40.3132C71.5512 40.3276 71.6216 40.3396 71.6975 40.3493L72.1713 40.4114C72.2186 40.4174 72.2547 40.4221 72.2964 40.4276C72.2908 40.5175 72.2857 40.6166 72.2866 40.7319C72.2866 40.7491 72.2876 40.7699 72.2885 40.7889C72.2811 40.8431 72.2741 40.8963 72.2593 40.9538ZM74.181 41.6981L74.0879 41.7096C73.9429 41.7272 73.7757 41.7374 73.6446 41.7439C73.47 41.7421 73.4103 41.705 73.4056 41.6976C73.2384 41.448 73.2028 41.1214 73.1912 40.8241C73.2009 40.7333 73.2056 40.6481 73.2074 40.5758C73.2074 40.5374 73.2074 40.5031 73.2074 40.473C73.345 40.4549 73.4733 40.4253 73.6071 40.3767C73.7465 40.3262 74.1254 40.2725 74.5589 40.2711C74.5436 40.3804 74.5218 40.5198 74.4936 40.6902C74.4602 40.8959 74.4274 41.1381 74.4033 41.4331L74.3986 41.5545C74.3977 41.5901 74.3968 41.6314 74.3959 41.6707C74.3292 41.6791 74.2588 41.6874 74.181 41.6981ZM76.343 41.9773C76.1475 41.9866 75.9349 41.9922 75.6853 41.975C75.5496 41.963 75.3986 41.9486 75.3106 41.9046C75.2898 41.8259 75.2953 41.7032 75.2999 41.5925C75.3018 41.5415 75.3037 41.491 75.3018 41.4781C75.3236 41.2414 75.3532 41.0209 75.3824 40.8357C75.4106 40.6717 75.4306 40.5383 75.4468 40.4276C75.7001 40.5147 76.0447 40.611 76.3712 40.6629C76.3666 40.7616 76.3615 40.8732 76.356 40.9978C76.3476 41.2479 76.3425 41.5406 76.3939 41.869C76.4004 41.9014 76.4074 41.9371 76.4157 41.9736C76.3898 41.9746 76.3689 41.9755 76.343 41.9773ZM78.7403 41.9899C78.3596 42.0677 77.8853 42.1654 77.5055 42.0454C77.4342 42.0163 77.3772 41.9792 77.3591 41.9537C77.3175 41.8884 77.2957 41.7888 77.2832 41.7189C77.2452 41.4781 77.2489 41.2456 77.2559 41.0339C77.2642 40.8556 77.2702 40.7013 77.2758 40.5781C77.3119 40.5582 77.3554 40.5462 77.386 40.5203C77.5741 40.3609 78.0326 40.09 78.4226 40.3091C78.5972 40.4077 78.7556 40.4864 78.9084 40.548C78.9066 40.6365 78.9029 40.7347 78.8913 40.8537C78.8741 41.0904 78.8505 41.4146 78.9765 41.7675C78.9983 41.8227 79.0261 41.8722 79.0506 41.9232L78.7403 41.9899ZM80.6851 41.9023C80.5258 41.9273 80.3016 41.9403 80.1344 41.8532C80.0079 41.7861 79.8922 41.6365 79.8213 41.4544C79.7634 41.2905 79.7768 41.1015 79.7898 40.9153C79.7995 40.819 79.8042 40.731 79.8079 40.6472C80.051 40.599 80.3173 40.4939 80.6402 40.3091C80.8101 40.2118 80.9732 40.1358 81.1306 40.0691C81.1288 40.109 81.1269 40.1428 81.1251 40.1854L81.1223 40.3317C81.1117 40.7231 81.1079 41.2483 81.3141 41.7592L81.2789 41.7685C81.0991 41.8152 80.8977 41.8694 80.6851 41.9023ZM82.3719 41.5739C82.3256 41.579 82.2797 41.5753 82.2381 41.5624C82.2056 41.5392 82.1802 41.5114 82.1658 41.4836C82.0018 41.1363 82.013 40.7027 82.0218 40.3544L82.0245 40.215C82.0319 40.0872 82.037 39.9737 82.0417 39.8765C82.2237 39.8987 82.3196 39.9691 82.3738 40.0275C82.5493 40.2141 82.7447 40.3132 82.9546 40.3299V40.9334C82.9518 41.0784 82.949 41.2419 82.9791 41.3989C82.9828 41.4239 82.9925 41.4461 82.9972 41.4702L82.9421 41.4813C82.7656 41.5184 82.5826 41.5559 82.3719 41.5739ZM84.5177 41.3405C84.4325 41.3905 84.3213 41.4179 84.2199 41.4146C84.1013 41.422 83.993 41.3979 83.9161 41.3563C83.8989 41.347 83.8772 41.3146 83.8679 41.2539C83.8508 41.1654 83.8526 41.0603 83.8554 40.9496L83.8563 39.9172C84.0245 39.7811 84.1884 39.662 84.3709 39.6537C84.5112 39.6467 84.627 39.643 84.6349 39.6491C84.6803 39.6731 84.7335 39.6981 84.8049 39.7269C84.7877 39.8589 84.7757 40.0224 84.766 40.2058C84.7623 40.2373 84.7535 40.3104 84.7461 40.4197C84.7433 40.4614 84.7433 40.5161 84.7414 40.5652C84.728 40.7648 84.709 40.9653 84.6409 41.1469C84.6002 41.2479 84.552 41.3178 84.5177 41.3405ZM86.3245 40.9399C86.3027 41.0515 86.2295 41.19 86.1216 41.2312C85.9452 41.297 85.8187 41.2826 85.7979 41.2641C85.7029 41.1798 85.6705 41.0131 85.6548 40.8991C85.645 40.8167 85.6404 40.7403 85.6395 40.6703C85.6441 40.612 85.6487 40.5545 85.652 40.5013L85.6594 40.3744C85.6677 40.2266 85.6747 40.1006 85.6849 39.9862C85.9137 40.0488 86.13 40.0951 86.3245 40.0988C86.3361 40.1724 86.3463 40.2553 86.3541 40.3456C86.3666 40.505 86.375 40.7152 86.3245 40.9399ZM95.9674 22.9439C95.0393 26.3083 95.2222 26.8821 95.5992 27.5403C95.6733 27.6704 95.7377 27.7825 95.7826 27.9603C95.8938 28.3976 95.835 31.5665 95.3677 33.1852C94.9527 34.6233 94.7202 35.0879 93.5521 35.0883C93.2816 35.0883 92.9703 35.0605 92.6031 35.0045C92.2654 34.9526 91.9264 34.891 91.5897 34.8304C90.7449 34.6766 89.9459 34.5316 89.2035 34.5316C87.7246 34.5316 86.8071 35.156 86.4 36.4389C86.1151 37.3379 86.0563 38.0104 86.0373 38.5495L86.0364 38.5856L86.1087 39.1637C85.9683 39.1322 85.803 39.084 85.6511 39.0391C85.5408 39.0071 85.4292 38.9747 85.3227 38.9464C85.1499 38.9001 85.093 38.8709 85.0457 38.8469C84.9119 38.7788 84.8077 38.7454 84.5826 38.7454C84.5191 38.7454 84.4376 38.7482 84.3292 38.7528C83.829 38.7765 83.4816 39.0581 83.2292 39.2642C83.1667 39.3142 83.0801 39.3855 83.0384 39.4179C83.0365 39.4161 83.0347 39.4138 83.0319 39.411C82.7586 39.1192 82.3798 38.9645 81.9347 38.9645C81.3062 38.9645 80.6402 39.2693 80.1923 39.5254C79.8894 39.6986 79.6819 39.776 79.5202 39.776C79.3665 39.776 79.1956 39.7097 78.8644 39.5231C78.6175 39.3841 78.3549 39.3137 78.0826 39.3137C77.5361 39.3137 77.0877 39.6009 76.846 39.7959C76.8325 39.7977 76.8108 39.7991 76.7816 39.7991C76.4287 39.7991 75.7839 39.6083 75.5496 39.5036C75.3486 39.4152 75.0221 39.3698 74.5797 39.3698C74.1726 39.3698 73.6229 39.4119 73.2996 39.53C73.1629 39.5791 73.0976 39.593 72.9976 39.593C72.8573 39.593 72.6437 39.5648 72.2904 39.518L71.811 39.455C71.591 39.4272 71.5178 39.3883 71.5081 39.3943C71.49 39.3276 71.5099 39.1224 71.5271 38.9571C71.5803 38.4175 71.6618 37.6028 71.2927 36.4389C70.8847 35.1555 69.9685 34.5316 68.4892 34.5316C67.7463 34.5316 66.9478 34.6766 66.1021 34.8299C65.7663 34.891 65.4273 34.9526 65.0896 35.0045C64.7224 35.0605 64.412 35.0883 64.1406 35.0883C62.973 35.0883 62.7405 34.6238 62.325 33.1852C61.8702 31.6086 62.0328 28.6435 62.1639 28.2026C62.2292 27.984 62.2922 27.8246 62.3482 27.6866C62.6831 26.8492 62.7192 26.5468 61.7248 22.9439C60.6002 18.8676 60.5224 12.275 62.1977 8.95743C66.0919 1.24956 74.0568 0.0254316 77.9321 -0.0889684L77.9339 -0.0588631H79.7592L79.7611 -0.0889684C83.6363 0.0254316 91.6013 1.25002 95.4932 8.95743C97.1698 12.275 97.092 18.8676 95.9674 22.9439Z" fill="black"/>
<path d="M78.8916 26.2267C78.7443 26.2276 77.3178 25.9724 76.6346 29.2831C75.9515 32.5928 74.6319 35.9331 77.9708 35.6811C78.2385 35.6612 78.5062 35.0058 78.8476 35.0582H78.9351C79.2769 35.0058 79.4256 35.677 79.6678 35.6978C83.6968 36.0595 81.8317 32.5923 81.1485 29.2826C80.4654 25.9724 79.094 26.2267 78.8916 26.2267Z" fill="black"/>
<path d="M71.511 19.3918C67.2764 19.4317 66.828 19.7596 65.7415 21.2597C64.5183 22.947 64.1005 28.8963 69.3935 28.5285C74.6864 28.1617 75.8101 26.5712 75.9092 24.9395C75.9092 24.94 75.7457 19.3506 71.511 19.3918Z" fill="black"/>
<path d="M86.2655 19.3494C81.992 19.3072 81.8257 24.9489 81.8257 24.9489C81.9271 26.5969 83.0605 28.2022 88.403 28.5727C93.7464 28.9441 93.4134 22.8531 92.0332 21.2242C90.992 19.995 90.5405 19.3897 86.2655 19.3494Z" fill="black"/>
<path d="M65.212 19.3762L65.3352 19.0798C65.4853 18.6806 65.5941 18.267 65.6645 17.8571C65.7118 17.6542 65.7243 17.4481 65.7414 17.2466C65.7641 17.0442 65.7622 16.8456 65.7659 16.6496C65.7752 16.2587 65.7377 15.8831 65.69 15.532C65.6483 15.18 65.5779 14.8521 65.5001 14.5557C65.4306 14.2565 65.3398 13.9893 65.256 13.7563C65.1754 13.521 65.087 13.3232 65.0147 13.1616C64.8665 12.8383 64.7586 12.666 64.7586 12.666C64.7586 12.666 64.9114 13.4654 64.992 14.6372C65.0119 14.9295 65.0203 15.2467 65.0217 15.5788C65.0244 15.9109 65.0045 16.2592 64.9753 16.6144C64.9489 16.9711 64.8859 17.3333 64.8114 17.6945C64.7401 18.0562 64.634 18.4161 64.4946 18.7579L64.3941 19.0168L64.2801 19.297C64.2042 19.4805 64.1291 19.6634 64.0541 19.8445C63.8911 20.1956 63.7864 20.5944 63.6651 20.9602C63.5331 21.3257 63.4821 21.699 63.4001 22.0408C63.3413 22.3909 63.2969 22.7235 63.2834 23.0338C63.2709 23.3446 63.2672 23.6276 63.3006 23.8791C63.3121 24.1296 63.3659 24.3455 63.4048 24.5196C63.4339 24.6956 63.5006 24.8258 63.527 24.9156C63.5585 25.005 63.5752 25.0527 63.5752 25.0527C63.5752 25.0527 63.5752 25.0022 63.5752 24.9073C63.5789 24.8119 63.5669 24.6757 63.5835 24.502C63.5942 24.3288 63.6062 24.1218 63.6461 23.886C63.6706 23.6503 63.7382 23.3895 63.7961 23.1056C63.8633 22.824 63.9624 22.5225 64.0532 22.2048C64.1745 21.8926 64.2713 21.554 64.4149 21.2233C64.5506 20.8871 64.6863 20.5508 64.8535 20.1882C64.9341 20.0089 65.0147 19.8283 65.0948 19.6467L65.212 19.3762Z" fill="black"/>
<path d="M94.7735 22.0413C94.691 21.699 94.6406 21.3261 94.5086 20.9607C94.3863 20.5948 94.2816 20.1956 94.1195 19.8445C94.0445 19.6634 93.9685 19.4814 93.8926 19.297L93.7796 19.0168L93.679 18.7579C93.5396 18.4161 93.434 18.0567 93.3622 17.6945C93.2881 17.3337 93.2238 16.9711 93.1983 16.6149C93.1691 16.2592 93.1487 15.9109 93.1511 15.5788C93.1529 15.2472 93.1608 14.9295 93.1807 14.6377C93.2622 13.4659 93.415 12.666 93.415 12.666C93.415 12.666 93.3076 12.8383 93.158 13.1616C93.0857 13.3242 92.9968 13.5215 92.9172 13.7568C92.8319 13.9897 92.7425 14.257 92.6731 14.5557C92.5953 14.853 92.5239 15.1805 92.4822 15.532C92.4341 15.8831 92.398 16.2592 92.4072 16.6501C92.41 16.8456 92.4091 17.0452 92.4318 17.2466C92.448 17.449 92.4609 17.6547 92.5077 17.8576C92.5781 18.267 92.6879 18.6801 92.837 19.0798L92.9602 19.3762L93.0779 19.6467C93.1594 19.8278 93.24 20.0089 93.3192 20.1877C93.4873 20.5508 93.623 20.8871 93.7587 21.2229C93.9028 21.5536 93.9986 21.8921 94.1195 22.2048C94.2108 22.5225 94.3094 22.824 94.3775 23.1051C94.4354 23.3886 94.503 23.6498 94.5276 23.886C94.5665 24.1218 94.579 24.3283 94.5892 24.5016C94.6063 24.6757 94.5947 24.8114 94.5975 24.9073C94.5975 25.0022 94.5975 25.0522 94.5975 25.0522C94.5975 25.0522 94.6137 25.0045 94.6457 24.9156C94.6721 24.8253 94.7388 24.6947 94.7689 24.5192C94.8068 24.345 94.8601 24.1292 94.8721 23.8786C94.9064 23.6271 94.9018 23.3446 94.8902 23.0333C94.8763 22.724 94.8323 22.3914 94.7735 22.0413Z" fill="black"/>
<path d="M78.4506 15.7445C78.4831 16.4175 78.5312 17.046 78.5891 17.5842C78.6957 18.661 78.8466 19.3789 78.8466 19.3789C78.8466 19.3789 78.9967 18.661 79.1037 17.5842C79.1616 17.046 79.2098 16.4175 79.2422 15.7445C79.2538 15.4083 79.2792 15.06 79.2811 14.7075C79.2866 14.3537 79.2917 13.9952 79.2973 13.6363C79.2917 13.2782 79.2866 12.9188 79.282 12.5654C79.2811 12.2116 79.2547 11.8642 79.2431 11.528C79.2116 10.855 79.1634 10.2265 79.1056 9.68829C78.9976 8.61145 78.8466 7.89355 78.8466 7.89355C78.8466 7.89355 78.6947 8.61145 78.5877 9.68829C78.5298 10.2265 78.4812 10.855 78.4493 11.528C78.4377 11.8647 78.4113 12.212 78.4113 12.5654C78.4057 12.9188 78.4016 13.2778 78.396 13.6363C78.4016 13.9952 78.4057 14.3541 78.4113 14.7075C78.4131 15.0605 78.4386 15.4088 78.4506 15.7445Z" fill="black"/>
</g>
</mask>
<g mask="url(#mask0)">
<path d="M151 76C151 117.421 117.421 151 76 151C34.5786 151 1 117.421 1 76C1 34.5786 34.5786 1 76 1C117.421 1 151 34.5786 151 76Z" fill="#B83838"/>
<path d="M76 151.5C117.698 151.5 151.5 117.698 151.5 76C151.5 34.3025 117.698 0.5 76 0.5C34.3025 0.5 0.5 34.3025 0.5 76C0.5 117.698 34.3025 151.5 76 151.5Z" stroke="#112C64" stroke-opacity="0.1"/>
</g>
<defs>
<clipPath id="clip0">
<rect width="143" height="143" fill="white" transform="translate(5 4)"/>
</clipPath>
</defs>
</svg>
