<svg width="156" height="186" viewBox="0 0 156 186" fill="none" xmlns="http://www.w3.org/2000/svg">
<g clip-path="url(#clip0)">
<path d="M30.0966 89.1798L14.5468 108.719C13.5435 110.723 14.0452 114.23 15.55 115.733C15.55 126.756 15.55 116.735 16.0516 132.267L1.50496 142.287C-2.00629 144.291 1.50496 151.305 6.01943 148.299L23.0741 136.776L23.5757 118.739L36.1159 121.244L35.6143 134.271C36.1159 139.281 43.1384 139.281 43.1384 132.267V115.733C34.6111 113.729 37.1191 114.23 27.5886 111.725L36.1159 100.703L39.1255 107.717C40.6304 108.719 42.1352 109.721 47.6529 113.228C51.1641 115.232 54.1738 110.222 50.6625 108.218L45.6464 104.711L58.1866 101.705C61.1963 101.204 61.6979 98.699 60.1931 97.1959L67.7172 88.6788L70.7268 93.1879L74.2381 89.1798L69.7236 86.1737L68.2188 84.6707L67.7172 85.1717L67.2156 84.6707L65.7108 86.6747L66.2124 87.1757L58.6882 95.6929C58.1866 95.6929 57.1834 95.6929 56.6818 96.1939L45.1448 99.2C41.6336 95.1919 34.1095 83.6687 30.0966 89.1798ZM45.6464 76.6545C42.6368 74.1495 38.1223 74.6505 35.6143 78.1576C33.1062 81.1636 33.6079 85.6727 36.6175 88.1778C40.1288 90.6828 44.6432 89.6808 47.1513 86.6747C49.6593 83.6687 48.6561 79.1596 45.6464 76.6545Z" fill="black"/>
<path fill-rule="evenodd" clip-rule="evenodd" d="M72.7334 92.6868C71.7302 109.721 69.2222 127.757 72.2318 145.794C82.264 145.794 86.7784 145.794 96.8106 145.794C93.2993 142.287 92.2961 117.236 91.7945 92.6868H72.7334Z" fill="black"/>
<path fill-rule="evenodd" clip-rule="evenodd" d="M121.389 64.6303C124.399 65.6323 125.904 66.1333 128.914 67.6364C137.942 72.6465 125.904 64.6303 125.402 64.6303C129.415 64.1293 133.428 64.1293 137.942 64.1293C142.959 66.6343 148.978 68.1374 156 67.1354C156 66.6343 156 66.6343 155.499 66.6343C149.479 67.1354 143.962 65.6323 139.447 63.1273C144.463 61.1232 147.975 58.1172 149.981 53.1071C149.981 52.6061 149.981 52.6061 149.479 53.1071C142.959 65.6323 126.907 63.6283 111.859 61.1232C114.869 58.1172 118.38 55.1111 121.389 52.1051C129.917 52.6061 138.444 47.596 140.952 40.5818C140.952 40.5818 140.952 40.5818 140.451 40.5818C135.936 48.097 129.917 51.103 122.393 50.602C125.904 43.5879 127.91 36.0727 128.412 27.5556C128.412 27.0545 127.91 27.0545 127.409 27.5556C125.904 61.6242 104.335 53.6081 94.8042 70.1414C91.7946 59.1192 92.2962 53.6081 94.3026 43.0869C96.8106 32.0646 108.348 37.0747 115.37 27.5556C118.881 22.5455 118.38 19.5394 118.38 19.5394C112.862 30.0606 108.348 30.5616 95.8074 33.5677C93.2994 30.5616 91.7946 26.5535 92.2962 21.5434C98.3155 21.0424 103.833 19.0384 107.846 14.0283C108.348 13.5273 107.846 13.0263 107.344 13.5273C103.833 18.0364 98.3155 20.5414 91.7946 19.5394C92.2962 16.0323 92.7978 12.5253 95.3058 8.01616C95.8074 7.51515 95.3058 7.01414 94.3026 7.51515C90.7914 13.5273 87.7817 23.0465 92.7978 34.5697C91.7946 38.5778 86.2769 54.1091 86.7785 56.1131C86.7785 56.1131 75.2415 46.0929 72.7335 43.5879C65.711 37.5758 71.2287 23.0465 77.2479 19.0384C77.7496 18.5374 77.2479 18.5374 76.7463 18.5374C68.7206 25.0505 66.7142 34.5697 69.2222 41.0828C57.6852 32.0646 55.1772 25.5515 54.6756 14.0283C68.219 14.0283 72.2319 11.0222 77.7496 3.00606C78.2512 2.50505 77.7496 2.00404 77.2479 2.50505C71.2287 11.0222 63.2029 12.5253 54.6756 12.5253C55.6788 8.01616 56.682 4.50909 59.6917 1.00202C60.1933 0.50101 59.1901 0 59.1901 0.50101C52.1676 7.51515 52.1676 20.5414 53.6724 23.0465C44.1418 16.5333 40.6306 9.01818 41.6338 1.00202C41.6338 -0.50101 40.6306 0 40.6306 0.50101C39.6274 12.5253 45.1451 20.0404 53.6724 25.5515C56.1804 32.0646 61.6981 38.0768 69.7238 44.5899C85.7753 62.1253 82.7656 66.1333 74.2383 84.6707L91.7946 91.1838C97.3123 75.6525 99.3187 59.1192 121.389 64.6303Z" fill="black"/>
</g>
<defs>
<clipPath id="clip0">
<rect width="156" height="186" fill="white"/>
</clipPath>
</defs>
</svg>
