<svg xmlns="http://www.w3.org/2000/svg" xmlns:xlink="http://www.w3.org/1999/xlink" xml:space="preserve" version="1.1" style="shape-rendering:geometricPrecision;text-rendering:geometricPrecision;image-rendering:optimizeQuality;" viewBox="0 0 311 371.25" x="0px" y="0px" fill-rule="evenodd" clip-rule="evenodd"><defs><style type="text/css">
   
    .fil1 {fill:black}
    .fil0 {fill:black;fill-rule:nonzero}
   
  </style></defs><g><path class="fil0" d="M60 178l-31 39c-2,4 -1,11 2,14 0,22 0,2 1,33l-29 20c-7,4 0,18 9,12l34 -23 1 -36 25 5 -1 26c1,10 15,10 15,-4l0 -33c-17,-4 -12,-3 -31,-8l17 -22 6 14c3,2 6,4 17,11 7,4 13,-6 6,-10l-10 -7 25 -6c6,-1 7,-6 4,-9l15 -17 6 9 7 -8 -9 -6 0 0 -3 -3 -1 1 -1 -1 -3 4 1 1 -15 17c-1,0 -3,0 -4,1l-23 6c-7,-8 -22,-31 -30,-20zm31 -25c-6,-5 -15,-4 -20,3 -5,6 -4,15 2,20 7,5 16,3 21,-3 5,-6 3,-15 -3,-20z"/><path class="fil1" d="M145 185c-2,34 -7,70 -1,106 20,0 29,0 49,0 -7,-7 -9,-57 -10,-106l-38 0z"/><path class="fil1" d="M242 129c6,2 9,3 15,6 18,10 -6,-6 -7,-6 8,-1 16,-1 25,-1 10,5 22,8 36,6 0,-1 0,-1 -1,-1 -12,1 -23,-2 -32,-7 10,-4 17,-10 21,-20 0,-1 0,-1 -1,0 -13,25 -45,21 -75,16 6,-6 13,-12 19,-18 17,1 34,-9 39,-23 0,0 0,0 -1,0 -9,15 -21,21 -36,20 7,-14 11,-29 12,-46 0,-1 -1,-1 -2,0 -3,68 -46,52 -65,85 -6,-22 -5,-33 -1,-54 5,-22 28,-12 42,-31 7,-10 6,-16 6,-16 -11,21 -20,22 -45,28 -5,-6 -8,-14 -7,-24 12,-1 23,-5 31,-15 1,-1 0,-2 -1,-1 -7,9 -18,14 -31,12 1,-7 2,-14 7,-23 1,-1 0,-2 -2,-1 -7,12 -13,31 -3,54 -2,8 -13,39 -12,43 0,0 -23,-20 -28,-25 -14,-12 -3,-41 9,-49 1,-1 0,-1 -1,-1 -16,13 -20,32 -15,45 -23,-18 -28,-31 -29,-54 27,0 35,-6 46,-22 1,-1 0,-2 -1,-1 -12,17 -28,20 -45,20 2,-9 4,-16 10,-23 1,-1 -1,-2 -1,-1 -14,14 -14,40 -11,45 -19,-13 -26,-28 -24,-44 0,-3 -2,-2 -2,-1 -2,24 9,39 26,50 5,13 16,25 32,38 32,35 26,43 9,80l35 13c11,-31 15,-64 59,-53z"/></g><text x="0" y="312" fill="#000000" font-size="5px" font-weight="bold" font-family="'Helvetica Neue', Helvetica, Arial-Unicode, Arial, Sans-serif">Created by kareemov</text><text x="0" y="317" fill="#000000" font-size="5px" font-weight="bold" font-family="'Helvetica Neue', Helvetica, Arial-Unicode, Arial, Sans-serif">from the Noun Project</text></svg>