<svg width="90" height="90" viewBox="0 0 90 90" fill="none" xmlns="http://www.w3.org/2000/svg">
<circle cx="45" cy="45" r="44.5" fill="white" stroke="white"/>
<path d="M68.7797 42.5906H68.6511C68.3821 31.8845 60.3085 23.0712 49.8747 21.5677V19.5241C49.8747 17.7268 48.402 16.2642 46.5918 16.2642C44.7811 16.2642 43.3089 17.7268 43.3089 19.5241V21.599C32.9862 23.1979 25.0279 31.9622 24.7607 42.5906H24.6326C23.1188 42.5906 21.8877 43.8129 21.8877 45.316C21.8877 46.819 23.1188 48.0413 24.6326 48.0413H30.6659L31.4935 54.1379C31.4354 55.4847 32.0928 58.0329 34.8797 59.1199L32.0983 65.4945C32.0063 65.7052 32.0273 65.9473 32.1541 66.1395C32.2808 66.3312 32.4963 66.447 32.7273 66.447L43.8469 66.452C43.8473 66.452 43.8473 66.452 43.8473 66.452C44.1186 66.452 44.3647 66.293 44.4745 66.0468L46.1965 62.1954L49.6125 60.7115C49.7091 60.6697 49.7937 60.6066 49.8619 60.5262L60.4476 48.0413H68.7806C70.2944 48.0413 71.5255 46.819 71.5255 45.316C71.5255 43.8129 70.2935 42.5906 68.7797 42.5906ZM44.6813 19.5241C44.6813 18.4781 45.5382 17.6268 46.5918 17.6268C47.6454 17.6268 48.5022 18.4781 48.5022 19.5241V21.4164C47.9089 21.3687 47.3109 21.3374 46.7061 21.3374C46.0227 21.3374 45.3483 21.3728 44.6813 21.4337V19.5241ZM46.7061 22.7001C57.8715 22.7001 66.9836 31.5734 67.2787 42.5906H26.1331C26.4287 31.5734 35.5399 22.7001 46.7061 22.7001ZM48.9153 59.5269L45.4019 61.0531C45.2449 61.1212 45.1196 61.2452 45.0496 61.401L43.4008 65.0888L33.7722 65.0843L36.4379 58.9745C36.518 58.7919 36.513 58.5843 36.4256 58.4054C36.3382 58.226 36.1758 58.0942 35.9818 58.0443C32.7396 57.2026 32.8595 54.2737 32.8659 54.1529C32.8687 54.1079 32.8673 54.0634 32.8609 54.0189L32.0507 48.0504H35.0435L36.6955 51.895C36.7348 51.9858 36.7934 52.0676 36.8675 52.1334L39.1961 54.2174C39.3613 54.3655 39.5895 54.4245 39.805 54.3764L42.3944 53.8018C42.5096 53.7759 42.6158 53.7219 42.7036 53.6433L48.7982 48.2003H58.517L48.9153 59.5269ZM36.5331 48.0413H46.9253L41.9204 52.5113L39.8521 52.9701L37.8991 51.2223L36.5331 48.0413ZM68.7797 46.6786H24.6326C23.8759 46.6786 23.2601 46.0673 23.2601 45.316C23.2601 44.5647 23.8759 43.9533 24.6326 43.9533H68.7797C69.5364 43.9533 70.1521 44.5647 70.1521 45.316C70.1521 46.0673 69.5368 46.6786 68.7797 46.6786Z" fill="black"/>
</svg>
