<svg width="150" height="150" viewBox="0 0 150 150" fill="none" xmlns="http://www.w3.org/2000/svg">
<circle cx="75" cy="75" r="75" fill="#5171B4"/>
<mask id="mask0" mask-type="alpha" maskUnits="userSpaceOnUse" x="4" y="3" width="143" height="143">
<g clip-path="url(#clip0)">
<path d="M75.5 162C27.1781 162 -12 122.822 -12 74.5C-12 26.1781 27.1781 -13 75.5 -13C123.822 -13 163 26.1781 163 74.5C163 122.822 123.822 162 75.5 162ZM146.419 67.1664C146.561 67.0953 146.637 66.975 146.692 66.7836C146.807 67.3906 147.086 67.9266 147.534 68.3203C147.545 68.375 147.518 68.3641 147.545 68.4406C147.589 68.4406 147.622 68.4078 147.66 68.4078C148.12 68.7797 148.688 69.0312 149.328 69.0312C150.313 69.0312 151.133 68.4844 151.614 67.7133C151.647 67.7516 151.702 67.8008 151.729 67.8445C151.723 67.757 151.713 67.6695 151.702 67.582C151.915 67.1937 152.062 66.7672 152.062 66.2969C152.062 64.7875 150.832 63.5625 149.328 63.5625C148.366 63.5625 147.567 64.0875 147.075 64.8313C147.053 64.8148 147.075 64.7492 147.015 64.7711C147.086 64.5633 146.895 64.0328 146.594 63.4641V66.2969C146.594 66.6086 146.506 66.8875 146.419 67.1664V67.1664ZM20.7688 66.3461C20.7688 65.5203 18.8875 64.1148 18.4008 64.1148C18.4008 63.9672 17.6352 62.2828 17.3453 62.2828C17.3453 61.7141 15.3492 59.1602 15.032 60.2758C14.8242 60.9977 16.5578 61.9711 16.5578 62.8078C16.8805 62.8078 18.2367 65.3781 18.5047 65.8266C21.4688 70.8359 16.2898 67.4125 16.2898 65.2906C15.6281 64.9625 14.5836 62.4414 14.5836 61.7523C14.1953 61.4406 13.0469 59.007 13.1398 59.007C13.1398 57.4102 12.2594 56.6445 10.5094 56.6445C10.4273 56.4859 8.95625 54.4188 8.92891 54.4188C8.92891 53.7625 7.74766 51.7281 7.09141 51.4055C7.09141 50.0438 6.39141 48.3648 6.70313 46.9539C6.70313 45.4719 6.62656 43.793 6.12344 42.2727C1.55703 52.0781 -1.0625 62.9719 -1.0625 74.5C-1.0625 107.537 19.9047 135.608 49.2281 146.343C49.2609 143.63 49.4633 140.382 50.0813 140.382C50.0813 139.977 50.4258 138.282 50.7375 138.282C50.7375 137.243 50.8633 135.991 50.7375 134.744C50.3492 133.962 51.2516 132.961 51.525 131.73C53.0398 130.97 51.968 123.347 53.1109 123.347C53.1109 119.535 53.9641 117.315 53.368 113.782C53.6578 113.782 51.6453 111.644 51.6617 111.682C49.7312 111.682 48.3805 108.587 48.3805 107.23C48.1945 106.634 47.7188 105.743 47.7188 105.005C48.1617 105.005 44.957 100.323 44.957 100.416C43.2617 99.4758 45.05 98.1633 45.2195 96.6211C43.7484 96.1344 45.2359 92.1641 45.8758 92.1641C45.9414 91.6609 46.2039 91.3164 46.6687 91.1195C46.9969 92.4266 48.5227 90.4688 47.325 90.4688C47.325 89.6047 47.2266 87.7562 47.325 87.3242C47.325 85.9898 46.1437 83.3758 45.225 86.143C44.2406 85.6562 41.7578 85.7438 41.5445 84.1797C41.6977 83.4086 40.1281 81.8336 39.5758 81.5602C40.0898 80.2148 36.9125 78.4156 35.7641 78.4156C35.7641 78.1258 35.157 78.257 34.9766 77.8906C33.8063 77.8906 33.5383 76.3156 32.2148 76.3156C30.6891 76.3156 29.1523 75.2711 27.7469 75.2711C27.2766 74.3359 25.0945 74.7023 24.5914 73.6961C23.4484 73.6961 23 71.5305 22.9672 70.732C22.918 69.7477 22.1359 66.3461 20.7688 66.3461V66.3461ZM131.544 22.4594C131.533 22.4922 131.555 22.4703 131.5 22.5797C131.582 22.5797 131.68 22.6727 131.773 22.7109C131.691 22.6289 131.62 22.5469 131.544 22.4594ZM133.19 24.2695C133.381 24.6414 133.523 24.9859 133.48 25.1992C133.671 25.2047 133.764 25.1008 133.917 25.0625C133.682 24.7945 133.425 24.543 133.19 24.2695ZM137.942 49.1852C138.03 46.8227 135.973 47.2164 135.323 45.9039C134.645 45.9039 134.398 45.3789 133.48 45.3789C132.884 45.1766 132.413 45.3188 132.069 45.8055C130.663 46.3414 131.511 45.1219 130.455 45.1219C130.505 43.7711 129.969 43.3992 128.481 43.5469C127.628 45.4719 126.316 46.6258 126.512 48.7914C127.141 48.9336 127.032 49.0758 126.906 49.7047C127.743 49.7484 132.818 49.4422 132.818 48.9172C132.993 48.9172 133.873 50.7273 133.873 49.1797C134.579 49.1797 134.951 50.8367 136.635 50.3555C136.635 50.6945 139.446 49.1852 137.942 49.1852V49.1852ZM138.21 77.0922C138.309 76.6109 137.97 76.3977 137.685 75.9109C138.434 75.9109 135.317 70.1305 135.317 69.2281C134.841 68.993 134.234 67.3414 134.125 66.7398C133.485 66.3133 132.823 64.9133 132.55 64.1203C131.899 63.6883 130.313 61.7523 130.056 60.8445C130.997 60.9484 132.419 61.1398 132.419 59.9258C131.784 59.9258 131.691 59.1438 132.293 59.1438C132.096 58.3398 132.72 57.7602 132.856 57.1313C133.02 56.3711 133.343 55.2008 133.343 54.293C132.441 54.293 132.222 54.4461 131.505 54.6867C131.505 55.2172 129.903 54.5555 129.668 54.5555C129.323 53.8664 126.824 55.4523 126.124 54.0305C124.992 53.0078 125.298 52.2203 124.932 50.7766C124.746 50.0437 123.745 50 123.138 49.8797C121.427 49.5461 122.663 51.9195 122.57 52.4609C123.62 52.4609 121.908 53.7625 121.908 54.4242C120.136 54.0414 120.727 52.0672 119.682 51.5422C119.37 51.0172 119.616 50.6234 118.889 50.6234C118.889 49.9234 119.261 48.6547 118.495 48.3977C118.495 48.0586 117.008 47.9219 116.789 47.4789C115.848 47.4789 113.661 43.9242 112.988 45.1219C112.567 45.8875 113.344 46.0734 113.502 46.6969C114.864 46.4289 114.733 48.9391 116.395 48.6602C116.395 49.0102 116.439 49.3656 116.521 49.7102C117.752 49.4203 117.609 50.6234 118.227 50.6234C117.779 51.2195 116.357 49.6719 116.745 50.9734C116.97 51.7281 116.844 52.3734 115.865 53.1117C115.865 52.2969 115.799 50.0984 114.946 50.0984C114.366 48.9391 112.644 49.218 111.916 48.1352C111.326 48.1352 111.096 46.2977 110.079 46.1719C109.887 46.4398 109.171 46.6969 108.892 46.6969C108.34 47.807 105.217 46.8117 105.217 46.9594C105.168 46.9703 103.467 51.1266 103.369 51.6734C103.177 52.8492 102.231 52.8711 101.947 53.9867C101.805 54.5445 98.3758 54.282 98.3758 54.6922C96.8938 54.2 95.6141 53.1609 95.6141 51.5477C95.4937 51.5477 95.893 47.4297 96.1445 46.8281C96.4453 46.9102 96.5055 47.0141 96.675 47.3531C97.5828 47.0141 99.6992 47.5773 99.6992 46.5656C100.58 46.5875 100.842 46.9375 100.487 47.6156C101.307 47.7687 102.723 47.9766 102.723 46.8281C102.242 46.8281 102.193 46.7844 102.193 46.3031C103.768 44.668 101.012 43.1914 101.012 42.3766C100.454 42.1906 99.3164 40.982 100.126 41.4359C100.809 41.8133 103.309 42.5953 102.324 40.9328C102.39 40.9109 102.434 40.8672 102.45 40.807C102.729 41.0039 103.905 42.2125 103.905 41.0695C104.227 41.0695 105.474 40.282 104.43 40.282C104.528 39.6914 104.506 39.1992 104.555 38.8383C106.223 39.7352 105.294 38.2258 106.136 37.6625C106.136 38.7508 107.033 37.1375 107.58 37.1375C108.23 36.1695 109.718 36.9188 110.079 35.825C109.275 35.5625 109.423 33.55 109.423 32.8172C110.391 32.9758 111.468 31.5102 111.616 32.5164C111.67 32.9047 111.72 33.9766 111.916 34.1242C113.355 34.8789 112.972 33.6922 112.972 32.9484C112.491 32.9484 111.851 31.2641 111.785 30.4547C111.391 30.5094 110.757 30.6734 110.598 30.9742C109.166 30.9742 108.192 30.4547 107.055 30.4547C106.967 30.2797 105.6 28.7484 105.742 28.7484C104.944 27.3758 106.541 27.775 106.792 27.7094C106.792 26.4078 112.212 26.6375 112.447 24.5594C110.664 24.5594 114.284 21.5406 114.284 21.5516C115.493 20.518 116.133 19.6266 117.637 19.5117C118.271 19.468 125.326 17.5211 125.326 18.4016C125.61 18.4125 126.551 18.4234 127.524 18.4562C113.869 5.75781 95.6195 -2.0625 75.5 -2.0625C56.0148 -2.0625 38.2797 5.27656 24.7664 17.2695C24.8867 17.543 24.9797 17.8055 24.9742 17.9914C25.6906 17.9422 26.7188 17.4828 26.9484 18.3906C26.593 18.3852 26.2375 18.3414 25.8984 18.2539C26.15 20.2828 25.0125 19.0414 24.0609 19.0414C24.0609 18.9922 23.6398 18.8227 23.1914 18.7023C22.9016 18.9758 22.5953 19.2328 22.3055 19.5062C22.3383 19.5937 22.2891 19.5992 22.3438 19.6977C22.65 19.6977 22.4914 20.1734 23.3664 20.4633C24.3781 20.8078 25.4883 20.9992 26.5547 21.1688C27.4188 21.3055 27.9164 21.0102 28.6547 21.0102C28.6547 20.9008 30.4594 20.0969 29.1852 20.0969C29.3602 19.375 29.0375 19.1945 28.2609 19.1836C28.3266 18.418 30.1477 18.9211 30.8914 18.9211C31.4602 17.9641 30.9078 18.0789 31.4109 17.2094C32.0125 16.143 32.7289 17.0672 33.1227 16.0445C33.7188 16.2633 34.2492 16.5859 34.4406 17.3406C34.9164 17.7344 37.3336 21.3 37.3336 18.7789C38.1977 19.0687 38.6297 20.6875 38.6461 21.5352C40.2156 21.3055 40.3523 20.1297 40.3523 18.9102C40.7133 18.9102 40.2211 18.325 40.2211 18.1227C40.8062 17.9094 41.5391 18.6805 41.5391 17.8656C41.7906 17.8656 41.8016 18.1172 41.8016 18.3906C42.6164 18.5492 43.1414 18.2977 43.6391 18.4727C43.9836 18.593 43.8086 20.3812 43.65 21.0102C43.4531 21.8086 41.9273 21.8195 41.9273 22.1914C40.1992 23.482 43.9672 24.1547 44.5578 24.9422C44.2023 24.9422 42.8516 24.7672 42.8516 24.6852C41.9984 24.6852 39.9313 25.5875 39.1711 24.9422C40.232 24.9422 40.5875 23.668 40.7516 22.4539C39.7727 22.0875 38.6188 22.6891 38.3453 23.6625C37.8859 25.2703 36.8195 23.5969 36.2836 24.6797C36.0758 24.7453 34.1781 25.6258 34.1781 25.3305C32.0453 25.6312 32.6031 27.4414 32.6031 29.3937C33.4508 29.9023 35.1734 31.3516 35.0969 32.1445C37.0109 32.4836 37.7109 32.6859 39.4336 32.932C39.5758 33.2109 40.1445 33.4734 40.4891 33.5828C40.4891 34.7094 41.5117 34.507 42.4578 34.507C42.4578 33.0688 44.1312 35.7047 44.2953 36.2078C44.0656 36.2078 44.6891 37.6789 44.8203 38.1766C44.5578 38.0836 44.4758 38.1766 44.5578 38.4391C45.3891 38.7453 46.707 38.6578 46.9258 37.7828C46.1273 37.7828 46.3953 36.8695 46.3953 36.3391C45.575 35.7922 45.7008 34.7367 46.5266 34.507C46.5266 35.2508 49.2336 34.0422 47.7078 33.4625C48.0797 32.6258 48.3312 31.3406 47.7242 30.6133C47.3359 30.1539 46.8492 30.6133 46.6578 29.9242C47.6914 29.6672 46.9313 27.6984 46.9203 26.7797C47.2484 26.6539 48.1016 26.9875 48.1016 26.7797C49.1133 26.7797 50.7977 28.0594 51.3883 26.5117C53.0781 27.2828 51.7328 28.0156 53.4937 27.4305C53.4937 27.8461 55.4789 29.7875 55.7305 29.7875C55.7305 29.8805 55.6813 30.4437 56.1188 30.4437C56.1188 30.8648 55.8562 30.2031 55.8562 30.9633C56.1023 30.9906 57.4367 31.2313 57.4367 30.7063C58.2844 30.7063 58.8805 29.6672 58.8805 28.8742C59.4109 28.5297 60.3406 31.7563 60.9805 31.7563C61.4508 32.4891 62.9547 33.5555 62.9547 34.2445C63.2719 34.5672 63.6055 34.4797 63.6055 35.4258C64.0047 35.4258 64.7922 33.8563 64.7922 35.2945C65.1641 35.2945 66.2469 36.093 66.3727 36.7328C65.4266 36.7328 66.3234 37.6516 65.8367 37.6516C65.8367 38.5594 63.8078 37.8375 63.3484 37.7828C62.7195 40.5992 58.9242 38.5758 56.6273 39.3031C55.4187 39.6859 53.0836 42.3492 52.9578 43.6781C54.4234 43.6945 55.0688 42.4094 56.3758 41.9719C57.4422 41.9719 57.65 41.3266 58.6125 41.0586C58.6125 41.3266 58.875 41.1844 58.875 41.4523C57.0047 41.4523 58.1422 42.6609 58.6891 43.5414C59.0281 44.0883 59.4164 44.3508 59.8484 44.5203C59.668 44.8375 59.5203 45.1547 59.4055 45.5102C59.4055 45.5156 59.4 45.5102 59.4 45.5156C59.0445 45.6359 58.35 45.893 58.2133 46.1719C56.0969 46.407 57.1414 46.2648 57.2836 45.7563C57.3602 45.9367 58.1203 45.7727 58.0875 45.7781C57.9617 45.1438 57.7703 45.2313 57.9562 44.8648C56.8078 44.8648 56.25 45.3898 55.3258 45.3898C55.1727 45.7016 54.3688 46.4398 54.0133 46.4398C53.7453 47.2492 53.1383 48.7203 52.4328 49.1906C52.4328 48.9773 50.5625 50.3664 50.7266 50.3664C50.3109 51.0391 49.857 51.0172 49.6711 52.0672C49.5453 52.1328 49.0148 53.8883 49.0148 54.1617C48.2 54.7031 47.8992 56.9125 46.5156 56.9125C45.668 58.5969 44.1477 58.3727 44.1477 60.582C44.6617 61.107 44.8586 63.4313 45.0172 64.175C45.2141 65.0992 45.5203 66.0617 44.2844 66.0836C44.1969 65.9469 43.3328 64.6398 43.4914 64.6398C43.4914 64.0984 42.8297 62.3648 42.4414 61.8234C41.9219 61.0961 40.9594 61.9383 40.2047 61.6211C39.882 60.9758 37.7 60.8336 36.9234 60.8336C37.0492 61.3203 37.4047 61.4734 37.4484 62.0148C36.8031 62.2773 36.4313 62.5727 35.7641 62.4797C34.6211 62.3211 34.7578 61.4297 33.5 61.5555C31.4875 61.7578 30.082 63.4258 30.082 65.4219C29.8578 65.4219 29.8578 69.3539 30.082 69.3539C30.082 70.4641 31.0008 71.268 31.0008 72.1047C31.8922 72.1047 32.893 74.068 33.7625 74.068C33.8609 74.7625 33.325 74.8719 34.8125 74.8609C34.8125 74.7844 35.6219 74.3523 35.7312 73.8109C34.7031 73.5594 35.7258 72.2359 36.3875 71.9789C36.3875 72.9141 37.7 71.6672 37.7 71.5852C37.8477 71.525 39.1492 71.0602 39.1492 71.0602C39.1492 69.9992 40.1391 71.1641 39.4117 71.5852C38.7008 71.5852 38.7555 72.7664 38.3617 72.7664C38.1922 73.6086 37.8586 74.3414 37.6617 75.1617C37.4102 76.1734 38.2305 76.2773 37.968 77.2234C39.0125 77.4203 40.068 77.2289 41.1234 77.2234C41.1289 77.0375 41.0906 76.857 40.9922 76.6984C42.518 76.6984 41.1234 79.5805 42.0477 79.5805C42.0477 80.6688 42.5727 81.5164 42.5727 82.2C43.2836 82.6703 43.7102 83.2992 43.4914 84.1633C44.3664 84.2781 46.2477 84.5023 46.2477 83.3758C47.5766 83.3758 47.6695 84.2781 47.5711 85.2078C50.218 85.2078 48.5609 82.5883 49.6656 82.5883C49.7695 82.1563 49.95 82.0797 50.207 82.3641C50.7484 82.6539 51.1586 81.8227 51.5906 81.5602C51.7273 81.4672 52.2086 81.1883 52.2961 81.1883C52.668 81.4125 52.7008 81.3469 52.8648 81.5984C53.5867 81.593 54.3141 81.1883 54.932 80.7617C55.8781 80.8766 55.5719 82.9109 57.3438 83.0367C58.0547 83.0859 59.7008 83.2828 60.3133 82.8617C60.4664 82.7578 61.0297 83.2172 61.0898 83.4141C61.6805 83.4141 61.6367 83.9281 61.8883 83.9172C61.9484 84.032 62.0359 84.0758 62.1563 84.043C62.2328 84.2672 62.7031 84.3328 62.9492 84.9563C62.9492 85.525 64.1305 85.6234 64.1305 86.0008C64.9781 86.4273 63.8406 86.5422 65.1422 86.9359C65.8586 87.1602 66.5203 87.5211 67.2914 87.5758C67.5375 86.6406 68.3359 87.7016 68.7406 87.7016C68.9484 88.1281 69.0578 87.8055 69.2602 88.2266C70.4797 89.2438 69.6758 88.85 70.1789 89.9328C70.7641 90.3156 70.95 91.65 71.1086 92.4211C70.6383 92.4211 70.9719 94.2203 70.9719 94.3898C70.4031 94.3898 72.4266 95.4672 72.4266 94.1219C73.2578 94.2586 73.8047 95.1664 74.3953 95.1664C74.0508 95.9594 75.3141 96.5555 75.3141 95.3031C76.5609 95.4289 76.2273 97.2883 76.107 97.9227C77.0313 97.9227 77.2992 97.4086 78.0867 97.3102C78.9398 96.7687 79.8914 96.375 80.9688 96.375C83.993 96.375 86.4375 98.8195 86.4375 101.844C86.4375 104.567 84.4086 106.727 81.8 107.143C81.45 107.542 81.1328 107.887 81.1109 107.887C81.1109 108.149 81.0508 110.763 80.9742 110.763C80.9742 111.288 80.575 114.17 80.1867 114.17C80.1867 115.652 79.2188 115.92 78.8742 117.315C78.0758 117.905 75.9156 118.89 75.582 119.541C74.9641 119.541 74.5047 120.066 73.8758 120.066C73.7883 120.246 72.4484 121.509 72.6891 121.509C72.5906 122.439 72.7602 124.627 72.257 125.239C71.918 125.644 71.4313 125.6 71.6445 126.234C70.9063 126.234 71.6883 126.759 70.5234 126.759C69.7906 126.759 68.4836 127.804 68.4453 128.69C68.3961 129.773 68.1062 130.555 67.1766 131.216C67.1766 131.588 65.4703 131.698 65.4703 132.66C65.6289 132.66 65.4703 134.443 65.4703 134.623C64.9617 134.607 63.7148 135.116 63.5016 135.537C61.7844 135.537 61.9922 135.712 60.8766 136.455C60.8766 136.685 60.718 137.5 60.4828 137.5C60.4828 138.829 59.5367 137.62 58.7711 138.293C59.0719 138.293 59.4547 139.6 59.2961 139.6C59.2961 140.754 58.5797 140.852 57.8523 141.7C57.5078 141.93 57.1797 142.881 56.9336 142.881C56.9336 143.658 56.5453 144.363 56.5453 145.107C56.7094 145.107 56.5563 145.441 56.6711 145.752C57.0375 145.648 57.0484 145.233 57.1961 145.233C57.1961 144.577 58.2406 145.621 57.5898 145.621C57.0484 146.441 56.4633 146.458 56.1406 147.59C55.8125 147.59 55.5281 147.907 55.2875 148.279C61.7297 150.034 68.4891 151.062 75.5 151.062C102.428 151.062 126.064 137.128 139.714 116.101C139.796 114.165 140.097 112.316 140.31 111.677C140.846 112.07 141.245 112.809 141.623 111.677C140.677 111.491 140.906 111.163 141.229 110.37C141.59 110.588 142.317 110.856 142.908 110.818C143.088 110.479 143.23 110.118 143.411 109.779C142.875 109.363 143.613 108.286 143.87 108.811C144.007 108.548 144.127 108.275 144.253 108.013C144.193 107.996 144.209 108.034 144.122 108.007C144.122 107.531 144.209 107.591 144.521 107.351C144.527 107.4 144.521 107.4 144.532 107.444C149.306 97.4523 152.062 86.3125 152.062 74.5C152.062 74.1117 152.008 73.7398 152.002 73.3516C151.86 73.8875 151.592 74.4672 151.215 74.5984C151.215 74.943 147.305 76.6437 147.54 77.3492C146.851 77.3492 144.434 78.0383 143.991 78.9188C143.504 78.9188 141.541 79.6133 141.36 79.9688C138.921 79.9742 139.386 77.0922 138.21 77.0922V77.0922ZM149.328 47.1562H146.424C146.402 47.1289 146.38 47.1234 146.359 47.0852C146.211 47.0852 145.593 45.6961 145.834 45.3789C146.069 45.3789 146.178 45.4008 146.304 45.4117C146.058 44.8102 145.79 44.2195 145.522 43.6234C144.931 44.0281 144.412 44.5422 143.597 44.5914C143.597 44.8156 142.432 47.0797 143.597 47.0797C143.597 47.1234 143.619 47.1562 143.63 47.1945C142.235 47.3258 141.125 48.4633 141.125 49.8906C141.125 51.4 142.35 52.625 143.859 52.625H144.937C145.002 53.1227 145.27 53.5547 146.227 53.768C146.528 55.0312 148.781 55.4797 149.12 54.1562C148.169 54.1562 148.48 53.243 148.563 52.625H149.328C150.832 52.625 152.062 51.4 152.062 49.8906C152.062 48.3813 150.832 47.1562 149.328 47.1562V47.1562ZM141.36 82.7141C141.552 82.725 142.815 82.6922 142.815 82.468C143.958 82.468 145.505 82.3094 146.627 81.9375C146.627 83.6328 145.199 84.5789 145.44 86.2633C144.494 86.2633 144.909 87.2367 144.909 87.5703C144.297 87.9477 144.204 88.6367 143.466 89.0141C143.466 89.7742 141.759 91.032 141.256 91.6828C140.688 92.4102 138.976 93.6734 138.752 94.5977C138.812 94.3789 135.623 97.9172 136.367 97.9172C136.367 98.5789 135.47 103.813 136.63 103.813C136.63 104.272 137.62 108.663 137.018 108.663C137.018 110.074 136.099 110.938 136.099 112.065C135.651 112.371 135.011 112.541 134.787 112.989C133.983 112.989 133.595 114.695 133.212 114.695C133.212 116.516 132.681 117.867 132.681 119.934C132.829 119.934 131.631 122.882 131.631 123.073C130.663 123.724 128.213 126.059 128.213 127.273C128.213 127.273 126.507 129.669 126.245 130.024C125.73 130.024 121.771 130.768 121.771 131.074C120.929 131.074 118.752 131.736 118.227 130.943C118.227 130.112 117.773 129.056 117.702 127.924C117.298 127.924 117.232 126.223 116.784 126.223C116.784 125.863 114.273 120.848 114.678 120.848C114.678 120.328 114.23 118.622 114.153 118.622C114.153 116.817 112.835 115.313 112.835 113.645C112.447 113.645 111.643 109.981 112.048 109.981C112.048 108.056 112.72 106.798 112.999 104.66C113.311 102.314 112.852 100.887 112.441 99.2297C112.217 99.2297 111.463 97.9773 111.386 97.6602C110.33 96.9602 109.942 95.5711 109.942 94.2586C110.631 93.4711 110.905 90.5125 110.735 89.5391C109.406 88.9102 108.876 89.1453 107.443 89.1453C106.595 87.4445 100.902 88.4945 99.2891 88.4945C99.2891 89.4242 95.3242 88.3141 94.9523 87.5758C93.9844 87.5758 92.0648 85.5195 92.0648 84.5625C91.0039 83.857 89.3086 80.3461 89.3086 79.1922C88.3898 78.7328 88.6687 76.9609 89.1719 76.9609C89.2977 76.4688 88.8492 74.9156 88.6359 74.1773C88.4773 73.625 89.1719 73.0289 89.1719 72.3727C89.1719 70.5461 89.2156 69.7039 90.2383 67.7516C90.5609 67.1391 90.9711 66.5648 91.2719 65.7992C91.8188 64.4266 91.9828 65.7336 92.7211 64.5086C93.4266 64.1586 93.8367 62.9883 94.5641 62.4141C94.8813 61.993 94.8922 61.818 94.5641 61.4953C94.7063 61.4953 95.4828 59.4773 95.4828 59.0125C96.5109 57.5852 95.7836 58.2359 96.7953 58.3563C97.1672 57.9516 97.7852 56.9125 98.3703 56.9125C98.6273 56.4039 99.2727 56.125 99.8195 56.125C99.8195 56.9125 101.963 55.868 102.187 55.868C102.554 55.1297 104.916 54.293 105.474 54.293C105.474 53.3961 110.134 54.5445 110.866 54.4242C110.866 54.293 110.866 54.1617 110.866 54.0305C111.862 54.2656 113.677 58.2578 113.491 59.1438C114.257 59.1438 114.968 59.018 115.466 59.1438C115.466 59.9914 117.062 60.1992 117.79 60.2375C118.802 60.2867 121.771 60.1336 121.771 58.75C122.553 58.75 123.248 59.2969 123.095 60.1883C123.98 60.2867 129.247 60.3906 128.875 61.4953C129.646 61.4953 129.843 62.8133 130.581 62.8133C130.434 63.7211 131.5 66.0891 132.288 66.0891C132.288 66.8766 132.78 68.3258 133.474 68.8344C133.846 69.9609 135.077 72.3344 136.23 73.0289C135.738 73.9586 136.98 74.7242 137.286 75.6484C137.215 75.6484 137.554 77.0211 137.937 77.2234C137.937 78.1531 139.895 81.943 140.966 81.943C141.038 82.4023 139.96 82.6102 141.36 82.7141V82.7141ZM112.972 53.3742C113.174 52.5922 113.634 53.1992 114.06 53.3414C115.072 53.6695 114.722 53.325 115.471 52.9859C115.471 55.1187 114.246 53.5 112.972 53.3742ZM110.205 49.4422C110.741 49.4422 110.888 51.8484 109.417 51.4055C109.417 50.8094 109.04 49.7047 109.816 49.7047C110.041 50.6344 110.205 50.257 110.205 49.4422V49.4422ZM109.554 47.8727C110.161 48.1352 110.429 48.0477 110.341 47.6102C111.14 47.8727 110.237 48.4414 110.079 49.0539C109.669 48.6492 109.795 48.507 109.554 47.8727ZM95.4828 36.2078C94.1922 35.8742 96.8117 35.4914 96.9266 35.1633C96.4891 35.1633 96.1883 34.7094 96.3578 34.3266C96.5547 33.8727 96.8773 34.868 97.3258 34.6437C97.8562 34.5891 98.9008 33.7961 98.3648 35.3273C97.818 36.8805 97.3203 38.018 95.3516 38.0453C94.6461 37.3344 95.3242 36.9625 95.4828 36.2078V36.2078ZM100.35 30.8375C101.411 30.8375 100.481 31.625 100.246 31.625C100.427 31.6961 100.213 32.3305 100.213 32.5383C101.198 32.5273 101.214 31.9258 101.92 31.7508C101.772 32.6312 100.787 32.8008 101.75 33.5555C102.259 33.9547 102.778 34.425 102.576 35.032C103.828 35.032 104.014 36.2352 103.757 37.6516C104.452 37.6516 104.419 37.6844 104.419 36.9898C105.091 37.1758 105.042 37.7828 104.419 37.7828C103.795 39.0133 102.16 38.9586 101.001 38.9586C100.99 38.007 100.809 37.9469 99.9289 38.2148C98.7258 38.5812 99.6664 37.2578 99.6883 36.6016C99.8195 36.6016 102.417 36.7219 100.87 36.2078C100.787 34.7969 100.47 34.3758 99.1633 34.3758C99.1633 33.4133 98.8242 33.4844 98.6656 32.4289C98.4414 30.8703 99.8852 32.5383 100.35 30.8375V30.8375ZM99.9508 39.3523C99.9508 39.675 99.2945 39.932 99.1633 39.4781C99.2891 39.5219 99.3383 39.4781 99.2891 39.3523C99.5133 39.3523 99.7375 39.3523 99.9508 39.3523ZM89.1719 25.2812H83.7031C82.1938 25.2812 80.9688 24.0562 80.9688 22.5469C80.9688 21.0375 82.1938 19.8125 83.7031 19.8125H89.1719C90.6812 19.8125 91.9062 21.0375 91.9062 22.5469C91.9062 24.0562 90.6812 25.2812 89.1719 25.2812ZM57.3109 73.6797C57.6172 73.6797 57.9727 73.8 57.9727 74.0734C57.5734 74.0734 57.0594 74.4508 57.3109 73.6797ZM52.3234 73.9477C52.1047 74.3633 50.3328 74.2922 50.0867 73.8109C50.743 73.8109 51.2516 74.0789 51.9242 73.8109C51.9242 73.45 51.6234 73.1602 51.3992 72.7664C52.1156 72.7664 52.9195 73.3133 53.8984 73.2914C53.8984 72.6844 53.6305 73.4227 53.8984 72.6352C54.3086 72.7391 55.2984 73.6797 55.3422 74.0734C53.9039 73.9203 53.8383 73.9477 52.3234 73.9477ZM46.5375 70.8031C45.8648 70.8031 44.5687 70.218 44.1695 69.6219C44.8203 69.6492 45.4656 69.9172 45.8758 69.2281C47.5438 69.3977 47.6914 70.5461 49.0312 70.5461C49.2828 70.9891 50.7156 72.0062 49.332 72.1375C48.2875 72.2359 46.975 71.6672 46.5375 70.8031V70.8031ZM47.5875 74.4727C47.1008 74.4727 46.2969 74.6859 46.6687 73.6797C47.3141 73.7672 47.6203 74.0352 47.5875 74.4727ZM48.5063 74.3414C48.2438 74.3852 47.9813 74.4289 47.7188 74.4727C47.7953 73.8656 48.3695 73.1875 48.5063 74.3414ZM53.368 80.1C53.2641 80.4664 53.2805 80.4883 52.8484 80.4883C52.8922 80.3187 52.9305 80.1492 52.9742 79.9688C53.1109 80.0125 53.2367 80.0563 53.368 80.1V80.1ZM41.5391 69.2281C41.6648 69.2719 41.8016 69.3211 41.9328 69.3594C42.1023 70.0102 42.4578 69.6875 42.8516 69.4906C42.8516 70.2508 41.0906 70.4695 41.5391 69.2281V69.2281Z" fill="#DABDB8"/>
</g>
</mask>
<g mask="url(#mask0)">
<circle cx="75" cy="75" r="75" fill="#9EC72C"/>
</g>
<defs>
<clipPath id="clip0">
<rect width="143" height="143" fill="white" transform="translate(4 3)"/>
</clipPath>
</defs>
</svg>
