<svg xmlns="http://www.w3.org/2000/svg" xmlns:xlink="http://www.w3.org/1999/xlink" version="1.1" x="0px" y="0px" viewBox="0 0 144.083 180" enable-background="new 0 0 144.083 144" xml:space="preserve"><path d="M121.25,75.626h-0.281c-0.588-23.57-18.236-42.973-41.043-46.283v-4.499c0-3.957-3.219-7.177-7.176-7.177  c-3.958,0-7.176,3.22-7.176,7.177v4.568c-22.564,3.52-39.96,22.815-40.544,46.214h-0.28c-3.309,0-6,2.691-6,6s2.691,6,6,6h13.188  l1.809,13.422c-0.127,2.965,1.31,8.575,7.402,10.968l-6.08,14.034c-0.201,0.464-0.155,0.997,0.122,1.42  c0.277,0.422,0.748,0.677,1.253,0.677l24.306,0.011c0.001,0,0.001,0,0.001,0c0.593,0,1.131-0.35,1.371-0.892l3.764-8.479  l7.467-3.267c0.211-0.092,0.396-0.231,0.545-0.408l23.139-27.486h18.215c3.309,0,6-2.691,6-6S124.559,75.626,121.25,75.626z   M68.574,24.844c0-2.303,1.873-4.177,4.176-4.177c2.303,0,4.176,1.874,4.176,4.177v4.166c-1.297-0.105-2.604-0.174-3.926-0.174  c-1.494,0-2.968,0.078-4.426,0.212V24.844z M73,31.836c24.406,0,44.324,19.535,44.969,43.79H28.03  C28.676,51.371,48.592,31.836,73,31.836z M77.829,112.912l-7.68,3.36c-0.343,0.15-0.617,0.423-0.77,0.766l-3.604,8.119l-21.047-0.01  l5.827-13.451c0.175-0.402,0.164-0.859-0.027-1.253c-0.191-0.395-0.546-0.685-0.97-0.795c-7.087-1.853-6.825-8.301-6.811-8.567  c0.006-0.099,0.003-0.197-0.011-0.295l-1.771-13.14h6.542l3.611,8.464c0.086,0.2,0.214,0.38,0.376,0.525l5.09,4.588  c0.361,0.326,0.86,0.456,1.331,0.35l5.66-1.265c0.252-0.057,0.484-0.176,0.676-0.349l13.322-11.983h21.244L77.829,112.912z   M50.763,87.626h22.716l-10.94,9.841l-4.521,1.01l-4.269-3.848L50.763,87.626z M121.25,84.626h-96.5c-1.654,0-3-1.346-3-3  s1.346-3,3-3h96.5c1.654,0,3,1.346,3,3S122.905,84.626,121.25,84.626z"/><text x="0" y="159" fill="#000000" font-size="5px" font-weight="bold" font-family="'Helvetica Neue', Helvetica, Arial-Unicode, Arial, Sans-serif">Created by Chanut is Industries</text><text x="0" y="164" fill="#000000" font-size="5px" font-weight="bold" font-family="'Helvetica Neue', Helvetica, Arial-Unicode, Arial, Sans-serif">from the Noun Project</text></svg>