<svg width="88" height="110" viewBox="0 0 88 110" fill="none" xmlns="http://www.w3.org/2000/svg">
<g clip-path="url(#clip0)">
<path d="M21.0674 43.4968C21.0674 48.166 22.452 52.7303 25.0461 56.6126C27.6402 60.4949 31.3273 63.5208 35.6411 65.3076C39.9549 67.0944 44.7016 67.5619 49.2811 66.651C53.8606 65.7401 58.0671 63.4916 61.3688 60.19C64.6704 56.8883 66.9188 52.6818 67.8297 48.1023C68.7406 43.5228 68.2731 38.776 66.4863 34.4622C64.6995 30.1485 61.6736 26.4614 57.7912 23.8673C53.9089 21.2733 49.3446 19.8887 44.6754 19.8887C41.5751 19.8887 38.5052 20.4993 35.6409 21.6857C32.7767 22.8721 30.1742 24.6111 27.982 26.8033C25.7897 28.9955 24.0508 31.5981 22.8644 34.4623C21.678 37.3266 21.0674 40.3965 21.0674 43.4968V43.4968ZM40.9318 35.2619C40.9204 35.1426 40.931 35.0222 40.9633 34.9068C41.0235 34.656 41.1018 34.4098 41.1974 34.1703C41.2843 33.9289 41.4062 33.7016 41.5592 33.4956C41.6012 33.4422 41.6471 33.3919 41.6966 33.3453C41.7329 33.3041 41.7781 33.2717 41.8288 33.2507C41.8548 33.246 41.8817 33.2487 41.9063 33.2584C41.9309 33.2682 41.9523 33.2846 41.9681 33.3059C42.0092 33.3472 42.0474 33.3912 42.0825 33.4377C42.1529 33.5438 42.2106 33.6577 42.2544 33.7772C42.2802 33.8405 42.3101 33.9021 42.344 33.9614C42.3704 34.0161 42.4135 34.061 42.467 34.0897C42.5754 34.1136 42.6801 34.1523 42.7781 34.2046C42.8729 34.2885 42.9453 34.3948 42.9888 34.5137C43.0389 34.631 43.0974 34.7446 43.1639 34.8535C43.2399 34.9651 43.3235 35.0713 43.4141 35.1713C43.5909 35.3716 43.7882 35.5529 44.0026 35.7123C44.2096 35.8723 44.434 36.0083 44.6716 36.1177C44.9161 36.2107 45.1531 36.3225 45.3804 36.452C45.4935 36.5231 45.5958 36.61 45.6842 36.7102C45.7708 36.8143 45.8508 36.9238 45.9235 37.0381C46.0504 37.2271 46.1907 37.4808 46.4359 37.5216C46.6353 37.5366 46.8349 37.4947 47.0116 37.4009C47.1251 37.3522 47.238 37.3019 47.3527 37.2561C47.466 37.2051 47.5852 37.1685 47.7075 37.1472C47.8071 37.1321 47.9088 37.1538 47.9936 37.2082C48.0783 37.2627 48.1403 37.3461 48.168 37.443C48.191 37.556 48.1916 37.6725 48.1697 37.7857C48.1537 37.9101 48.1336 38.0342 48.1299 38.1601C48.1239 38.216 48.1309 38.2726 48.1504 38.3254C48.1699 38.3782 48.2013 38.4258 48.2423 38.4644C48.3384 38.5204 48.4482 38.5489 48.5594 38.5465C48.742 38.5709 49.0203 38.5984 49.0821 38.8113C49.0979 38.9011 49.0862 38.9936 49.0486 39.0766C49.011 39.1597 48.9493 39.2295 48.8714 39.277C48.8237 39.2969 48.7722 39.306 48.7205 39.3034C48.6688 39.3009 48.6184 39.2868 48.5729 39.2623C48.5222 39.2389 48.4689 39.2217 48.4141 39.211C48.3579 39.2131 48.3042 39.2347 48.2622 39.272C48.173 39.3541 48.0928 39.4455 48.0229 39.5445C47.9789 39.5954 47.9302 39.6422 47.8776 39.6841C47.8531 39.6977 47.8304 39.7143 47.8101 39.7335C47.8021 39.745 47.8151 39.7784 47.8172 39.7904C47.8502 40.0413 47.8574 40.2949 47.8387 40.5472C47.8312 40.6697 47.83 40.7926 47.8351 40.9152C47.8434 41.0369 47.8642 41.1575 47.8972 41.275C47.9822 41.4927 48.0211 41.7257 48.0113 41.9592C48.0066 42.0619 47.9632 42.1589 47.8897 42.2308C47.8163 42.3027 47.7184 42.3441 47.6156 42.3466C47.4217 42.3226 47.2385 42.2447 47.0865 42.1219C46.8895 41.9715 46.6754 41.845 46.4485 41.7452C46.3444 41.7009 46.2304 41.685 46.1181 41.699C46.0011 41.7247 45.8937 41.783 45.8085 41.8672C45.9178 41.903 46.0322 41.9205 46.1471 41.919C46.3686 41.9059 46.5896 41.9522 46.7872 42.0532C46.8759 42.1093 46.9468 42.1895 46.9917 42.2844C47.0365 42.3793 47.0533 42.4851 47.0402 42.5892C47.0282 42.694 46.9882 42.7935 46.9242 42.8773C46.8603 42.9611 46.7749 43.0261 46.677 43.0653C46.6263 43.0811 46.5728 43.0857 46.5202 43.0789C46.4676 43.072 46.4171 43.0539 46.3721 43.0256C46.2763 42.9516 46.2123 42.8437 46.1934 42.724C45.9855 42.7679 45.7728 42.7847 45.5606 42.774C45.4372 42.7698 45.3138 42.7825 45.1939 42.8117C45.1325 42.8316 45.0769 42.8661 45.0318 42.9122C44.9869 42.9488 44.9487 42.9928 44.9187 43.0424C44.8889 43.0928 44.8648 43.1463 44.8468 43.202C44.8329 43.2583 44.8252 43.316 44.8238 43.374C44.8164 43.5023 44.8175 43.6309 44.8272 43.759C44.9072 44.1526 44.8752 44.5608 44.735 44.9371L44.7811 44.8616L44.7587 44.8998C44.7883 44.8496 44.7956 44.8369 44.7179 44.9697L44.6634 45.0622V45.0627H44.6631L44.7016 44.9941C44.6452 45.0832 44.5739 45.162 44.4908 45.2269C44.4011 45.3014 44.295 45.3535 44.1812 45.3788C44.0675 45.4042 43.9493 45.4021 43.8365 45.3728C43.6204 45.2841 43.4387 45.128 43.3184 44.9278C43.1477 44.7551 43.0111 44.5517 42.916 44.3283C42.8966 44.2251 42.9007 44.1189 42.9279 44.0175C42.9551 43.916 43.0047 43.822 43.0731 43.7424C43.1566 43.6393 43.2478 43.5428 43.346 43.4536C43.3794 43.4212 43.4416 43.3783 43.4139 43.3266C43.3957 43.2989 43.3737 43.274 43.3486 43.2525C43.3101 43.2125 43.2657 43.1788 43.2168 43.1525C43.1609 43.128 43.1028 43.109 43.0432 43.0957C42.9199 43.0751 42.8047 43.021 42.7102 42.9392C42.6674 42.9026 42.6347 42.8556 42.6152 42.8028C42.6124 42.7788 42.615 42.7545 42.6228 42.7317C42.6306 42.7088 42.6435 42.6881 42.6605 42.6709C42.7294 42.582 42.7865 42.4846 42.8304 42.3811C42.923 42.1483 42.987 41.905 43.0207 41.6568C43.0415 41.5289 43.0587 41.4005 43.0713 41.2718C43.0866 41.1534 43.0928 41.034 43.0898 40.9147C43.0585 40.6805 43.0024 40.4503 42.9225 40.2279C42.8496 40.0148 42.832 39.7868 42.8712 39.565C42.8978 39.4568 42.9507 39.3569 43.0253 39.2741C43.0394 39.2528 43.0588 39.2355 43.0816 39.2239C43.1044 39.2123 43.1298 39.2068 43.1553 39.208C43.2042 39.2227 43.2473 39.2523 43.2785 39.2928C43.4215 39.4354 43.5623 39.6418 43.7892 39.6235C43.8716 39.612 43.9508 39.5837 44.0219 39.5404C44.0929 39.497 44.1543 39.4396 44.2023 39.3716C44.2742 39.2757 44.3312 39.1695 44.3712 39.0566C44.4136 38.9486 44.4377 38.8343 44.4425 38.7183C44.4048 38.4685 44.3445 38.2227 44.2623 37.9838C44.2444 37.8679 44.248 37.7497 44.273 37.6352C44.2959 37.5168 44.3416 37.4037 44.3588 37.284C44.2325 37.4192 44.0686 37.5134 43.8882 37.5545C43.8023 37.5637 43.7154 37.555 43.6329 37.5291C43.5505 37.5031 43.4743 37.4603 43.4092 37.4035C43.2651 37.2623 43.1631 37.0838 43.1144 36.888C43.0826 36.7887 43.0567 36.6883 43.0261 36.5888C43.0043 36.5012 42.9647 36.419 42.9099 36.3472C42.8579 36.4841 42.839 36.6313 42.8547 36.7769C42.8801 36.9289 42.9365 37.074 43.0202 37.2034C43.1575 37.4299 43.3287 37.6361 43.4846 37.8499C43.6502 38.052 43.783 38.2789 43.878 38.5223C43.9131 38.6294 43.9094 38.7456 43.8674 38.8502C43.8254 38.9549 43.7479 39.0414 43.6484 39.0946C43.4211 39.2062 43.1882 39.1052 42.9522 39.1034C42.8923 39.1003 42.8331 39.1178 42.7845 39.1529C42.7386 39.1906 42.696 39.2322 42.6574 39.2773C42.5758 39.3754 42.4748 39.4556 42.3608 39.5129C42.2609 39.5534 42.152 39.5663 42.0454 39.5503C41.9389 39.5342 41.8386 39.4898 41.755 39.4217C41.567 39.2886 41.4157 39.1101 41.3152 38.9028C41.2646 38.8037 41.2408 38.6931 41.2463 38.5819C41.2599 38.4812 41.2899 38.3835 41.3349 38.2924C41.3812 38.2031 41.4192 38.1097 41.4484 38.0135C41.4652 37.9031 41.4429 37.7902 41.3853 37.6944C41.3717 37.6656 41.3544 37.6648 41.329 37.6498C41.3076 37.6337 41.2921 37.6112 41.2847 37.5855C41.2613 37.5277 41.2368 37.4705 41.2119 37.4134C41.1597 37.2933 41.1054 37.1739 41.0598 37.0512C40.9702 36.828 40.9257 36.5893 40.9289 36.3489C40.938 36.2231 40.9588 36.0984 40.991 35.9765C41.0258 35.8621 41.0342 35.7413 41.0156 35.6232C40.9895 35.5024 40.9479 35.3847 40.9318 35.2619ZM35.101 36.7506L35.1095 36.7702L35.0937 36.7569L35.1033 36.7713L35.1072 36.7764C35.1337 36.8077 35.1653 36.8457 35.1246 36.798L35.138 36.8138L35.1065 36.777L35.0913 36.7585C35.0799 36.7448 35.0729 36.7272 35.0611 36.7133C35.0729 36.7273 35.0891 36.7369 35.1011 36.7507L35.101 36.7506ZM25.5997 35.7835C25.6953 35.6962 25.7977 35.6167 25.9059 35.5456C25.9254 35.532 25.9477 35.5201 25.9662 35.505C25.9832 35.4913 25.9827 35.4525 25.9869 35.4323L26.0266 35.2412L26.0481 35.1365C26.0522 35.1165 26.0591 35.0991 26.0481 35.0807C26.0374 35.0614 26.0322 35.0395 26.0331 35.0174C26.0339 34.9954 26.0407 34.9739 26.0528 34.9554C26.065 34.9357 26.0925 34.923 26.0972 34.9L26.1031 34.8712L26.1182 34.7982L26.1598 34.5976C26.2106 34.3516 26.2615 34.1056 26.3125 33.8595C26.3184 33.8307 26.2739 33.8133 26.2549 33.797C26.2087 33.7593 26.1704 33.7129 26.1423 33.6604C26.0962 33.5624 26.0764 33.4541 26.0847 33.3462L26.0884 33.3044C26.3551 32.8302 26.6391 32.3677 26.9403 31.9169C27.0603 31.7842 27.2172 31.6904 27.3909 31.6474C27.5045 31.6256 27.6206 31.6194 27.7336 31.5935C27.8501 31.5621 27.96 31.51 28.0581 31.4398C28.134 31.3763 28.2247 31.333 28.3219 31.3141C28.419 31.2951 28.5194 31.301 28.6136 31.3312C28.663 31.353 28.7074 31.3846 28.7441 31.4241C28.7807 31.4637 28.809 31.5103 28.8269 31.5612C28.8447 31.6169 28.8563 31.6745 28.8615 31.7328C28.8637 31.7591 28.8696 31.7849 28.8789 31.8096C28.8836 31.8213 28.8902 31.8322 28.8983 31.8419C28.9103 31.8559 28.9196 31.8481 28.9359 31.845C29.0489 31.8146 29.1662 31.8029 29.283 31.8103C29.3376 31.8193 29.3895 31.8399 29.4354 31.8708C29.4813 31.9016 29.52 31.9419 29.549 31.9889C29.6057 32.0733 29.6387 32.1713 29.6446 32.2729C29.6504 32.3744 29.6289 32.4756 29.5822 32.5659C29.5213 32.674 29.4441 32.7719 29.3532 32.8564C29.3065 32.9023 29.2581 32.9467 29.2099 32.9914L29.1402 33.0565C29.122 33.0704 29.1056 33.0865 29.0912 33.1044C29.0894 33.1318 29.0939 33.1594 29.1043 33.1848C29.1115 33.1949 29.1335 33.1834 29.1412 33.1797C29.1847 33.1573 29.2251 33.1292 29.2612 33.0962C29.3407 33.0195 29.432 32.956 29.5315 32.9079C29.5846 32.8867 29.6426 32.8805 29.699 32.8902C29.7247 32.8945 29.7561 32.9135 29.7771 32.8974L29.8533 32.8394C29.9411 32.7651 30.0399 32.7048 30.1461 32.6607C30.1913 32.6404 30.2422 32.6372 30.2895 32.6519C30.3368 32.6665 30.3771 32.6979 30.4028 32.7402C30.4355 32.827 30.4438 32.9211 30.4266 33.0122C30.3813 33.1886 30.4066 33.3757 30.4971 33.5338C30.6935 33.3761 30.691 33.0722 30.7113 32.8439C30.7155 32.5988 30.7706 32.3571 30.8733 32.1344C30.9268 32.034 31.0022 31.9468 31.0938 31.8793C31.1132 31.8624 31.1362 31.8502 31.161 31.8436C31.1858 31.837 31.2119 31.8362 31.2371 31.8413C31.2701 31.855 31.2992 31.8768 31.3216 31.9046C31.3497 31.9315 31.3763 31.9504 31.4094 31.9225C31.4504 31.8847 31.4936 31.8494 31.5387 31.8167C31.5838 31.787 31.6359 31.7695 31.6898 31.766C31.7437 31.7624 31.7976 31.773 31.8462 31.7965C31.9528 31.8572 32.0448 31.9405 32.1159 32.0405C32.1869 32.1405 32.2352 32.2548 32.2575 32.3754C32.3221 32.6019 32.3202 32.8423 32.252 33.0677C32.2315 33.1273 32.2068 33.1853 32.1781 33.2414C32.1737 33.2498 32.151 33.2794 32.1545 33.2898C32.161 33.3085 32.2021 33.3273 32.2174 33.3381C32.2662 33.3722 32.3069 33.4112 32.3699 33.4037C32.4196 33.3922 32.4705 33.3869 32.5215 33.3879C32.7214 33.4123 32.7328 33.6734 32.6805 33.8211C32.6326 33.928 32.5594 34.0217 32.4673 34.094C32.4159 34.1415 32.3624 34.1868 32.3081 34.2307L32.2703 34.2613L32.2911 34.3006C32.3062 34.3263 32.3226 34.3511 32.3404 34.375L32.3227 34.348L32.333 34.3608C32.5124 34.5599 32.7124 34.7394 32.9295 34.8965C33.0155 34.9799 33.1201 35.0416 33.2348 35.0763C33.3578 35.1038 33.4823 35.1248 33.6075 35.1393C33.7196 35.1438 33.8294 35.1716 33.93 35.221C33.9853 35.2527 34.0358 35.2922 34.0799 35.3382C34.1014 35.3544 34.1194 35.375 34.1325 35.3986C34.1457 35.4222 34.1537 35.4483 34.1562 35.4752C34.1464 35.5238 34.1206 35.5678 34.0828 35.6001C34.04 35.6498 33.9948 35.6973 33.9482 35.7433C33.8507 35.8386 33.7469 35.9266 33.6427 36.0146C33.6873 36.0023 33.7307 35.9862 33.7725 35.9665C33.8414 35.9412 33.9166 35.9389 33.9869 35.9597C34.0716 35.9873 34.1472 36.0376 34.2054 36.105C34.2524 36.1778 34.291 36.2556 34.3206 36.3369C34.3879 36.4817 34.5542 36.5122 34.6933 36.5519C34.8477 36.585 34.9895 36.6614 35.1019 36.7722C35.1291 36.8039 35.148 36.8419 35.1569 36.8827C35.1616 36.9438 35.1529 37.0051 35.1313 37.0624C35.1097 37.1197 35.0758 37.1716 35.0319 37.2143C35.0159 37.2306 35.053 37.2512 35.0639 37.2621C35.0861 37.2839 35.1064 37.3075 35.1247 37.3327C35.1614 37.3805 35.1857 37.4367 35.1955 37.4963C35.1991 37.6183 35.1545 37.7368 35.0714 37.8263C35.0348 37.8754 34.9957 37.9224 34.9607 37.9728C34.9428 37.9906 34.9294 38.0123 34.9214 38.0362C34.9134 38.0601 34.9112 38.0856 34.9148 38.1105C34.9367 38.1586 34.972 38.1994 35.0166 38.2278C35.0641 38.2637 35.1151 38.2948 35.1687 38.3206C35.395 38.4071 35.6128 38.5142 35.8194 38.6407C35.9183 38.7098 35.9996 38.8012 36.0567 38.9075C36.1137 39.0138 36.145 39.1321 36.1479 39.2527C36.1491 39.3733 36.1228 39.4925 36.0713 39.6015C36.02 39.7115 35.9429 39.8059 35.8894 39.9144C35.8412 40.0299 35.8105 40.152 35.7983 40.2765C35.7779 40.4059 35.7566 40.5352 35.7346 40.6645C35.7245 40.7811 35.6971 40.8956 35.6531 41.0041C35.6267 41.0479 35.5928 41.0867 35.553 41.1189C35.5364 41.1368 35.5242 41.1584 35.5174 41.1818C35.5105 41.2053 35.5092 41.23 35.5136 41.254C35.5164 41.379 35.5361 41.5028 35.5374 41.6278C35.5393 41.7565 35.5259 41.8851 35.5241 42.0135C35.5219 42.1431 35.5285 42.2727 35.5441 42.4013C35.5602 42.5313 35.5891 42.6583 35.6135 42.7867C35.6351 42.9057 35.6449 43.0266 35.6426 43.1475C35.6497 43.2693 35.6925 43.3864 35.7657 43.484C35.8399 43.5952 35.9189 43.7037 36.0016 43.8085C36.0859 43.9151 36.1795 44.0125 36.2695 44.114C36.3566 44.2036 36.4237 44.3106 36.4665 44.4279C36.4851 44.4779 36.493 44.5313 36.4896 44.5845C36.4862 44.6377 36.4716 44.6896 36.4467 44.7368C36.4096 44.7872 36.3626 44.8296 36.3087 44.8615C36.2729 44.8941 36.2259 44.9118 36.1775 44.911C36.1299 44.8959 36.0875 44.8677 36.055 44.8298C36.0098 44.7908 35.9625 44.7543 35.9134 44.7203C35.8978 44.7176 35.8869 44.7273 35.8687 44.7441C35.8356 44.7759 35.7982 44.803 35.7577 44.8245C35.6784 44.8646 35.5898 44.8811 35.5092 44.9192C35.4785 44.9454 35.4426 44.9648 35.4038 44.9763C35.3651 44.9877 35.3244 44.991 35.2844 44.9857C35.2443 44.9805 35.2058 44.967 35.1713 44.946C35.1368 44.925 35.1071 44.897 35.0841 44.8638C34.9337 44.7284 34.7707 44.6087 34.6084 44.4883C34.4568 44.3753 34.3026 44.2657 34.1459 44.1596C33.9384 44.0167 33.723 43.8857 33.5007 43.7673C33.2922 43.6504 33.0696 43.5609 32.8383 43.5009C32.742 43.4846 32.6475 43.4586 32.5564 43.4235C32.4675 43.383 32.395 43.3133 32.3511 43.2261C32.326 43.1874 32.3118 43.1427 32.3099 43.0967C32.308 43.0506 32.3184 43.0049 32.3401 42.9643C32.3733 42.9229 32.3947 42.8734 32.402 42.8208C32.3871 42.7569 32.3721 42.6931 32.3549 42.6299C32.2671 42.6669 32.1691 42.6711 32.0785 42.642C31.9879 42.6128 31.9107 42.5521 31.8611 42.4708C31.8101 42.3768 31.7899 42.2692 31.8033 42.1631C31.8053 42.0902 31.8444 41.9447 31.7448 41.9183C31.696 41.9132 31.6467 41.9203 31.6012 41.9387C31.5505 41.9534 31.4982 41.9621 31.4454 41.9646C31.3332 41.9567 31.2255 41.9176 31.1345 41.8517C30.6934 41.5465 30.297 41.1814 29.9565 40.767C29.7988 40.5977 29.61 40.3519 29.3561 40.3454C29.2321 40.3578 29.1123 40.397 29.005 40.4604C28.8976 40.5238 28.8054 40.6098 28.7346 40.7124C28.5853 40.9062 28.411 41.0793 28.2161 41.2273C28.133 41.2838 28.0381 41.3207 27.9386 41.3349C27.83 41.3427 27.7214 41.3213 27.624 41.2729C27.4136 41.1519 27.2144 41.0124 27.0287 40.8561C26.8102 40.707 26.5641 40.6044 26.3556 40.4395C26.2541 40.3648 26.1693 40.2696 26.1067 40.1602C26.0594 40.0635 26.0362 39.9568 26.0389 39.8492C26.0397 39.7385 26.0597 39.6288 26.0982 39.525C26.1411 39.4095 26.2043 39.3021 26.2402 39.1836C26.3138 38.943 26.0943 38.705 25.9315 38.5556C25.8268 38.4809 25.7438 38.3799 25.6906 38.2628C25.6581 38.1516 25.6602 38.0332 25.6969 37.9232C25.7422 37.8206 25.8015 37.7248 25.8732 37.6384C25.8913 37.6164 25.9047 37.591 25.9124 37.5636C25.9202 37.5362 25.9222 37.5075 25.9183 37.4792C25.9036 37.4309 25.8767 37.387 25.8402 37.3519C25.75 37.2718 25.6878 37.165 25.6627 37.047C25.6616 36.9947 25.6686 36.9426 25.6834 36.8925C25.697 36.8352 25.7085 36.7775 25.7205 36.7198L25.7635 36.512C25.7771 36.4668 25.7819 36.4195 25.7778 36.3725C25.7504 36.2569 25.7012 36.1476 25.633 36.0504C25.5793 35.9621 25.5092 35.8742 25.5997 35.7836V35.7835ZM47.7597 64.8421C47.6312 64.9746 47.4792 65.082 47.3114 65.159C47.1307 65.1801 46.9495 65.1988 46.7679 65.2151L46.7267 65.2041C46.5019 65.1222 46.2973 64.9931 46.1268 64.8253C45.9502 64.657 45.7869 64.4752 45.6383 64.2817C45.2977 63.8555 44.9702 63.4196 44.6488 62.9791C44.4873 62.7575 44.328 62.5343 44.1662 62.3129C44.0045 62.0916 43.8374 61.8738 43.6914 61.6415C43.4099 61.1933 43.2125 60.6955 42.8967 60.2681C42.7445 60.0535 42.5554 59.8677 42.3382 59.7192C42.242 59.6517 42.1294 59.6115 42.0122 59.6027C41.8939 59.5962 41.7751 59.6137 41.6565 59.6143C41.4178 59.6129 41.1822 59.5587 40.9668 59.4557C40.8515 59.4033 40.7395 59.3449 40.6248 59.2915C40.5028 59.2346 40.3776 59.1867 40.252 59.1391C40.0135 59.0577 39.788 58.9423 39.5823 58.7967C39.3737 58.6383 39.2067 58.4317 39.0956 58.1945C38.9966 57.9681 38.9354 57.7269 38.9145 57.4806C38.9025 57.4258 38.9011 57.3692 38.9104 57.3138C38.9161 57.2928 38.9296 57.2747 38.9481 57.2632C38.9597 57.2561 38.9381 57.2241 38.9347 57.2166C38.8781 57.0919 38.8145 56.9707 38.7562 56.847C38.7481 56.8792 38.7372 56.9106 38.7235 56.9408C38.6674 57.0451 38.59 57.1365 38.4964 57.209C38.4028 57.2814 38.295 57.3334 38.1799 57.3616C37.9437 57.432 37.6926 57.4363 37.4541 57.3741C37.2321 57.2792 36.9995 57.2112 36.7614 57.1714C36.5098 57.1856 36.2682 57.2753 36.0684 57.4288C35.8616 57.5806 35.6451 57.7186 35.4202 57.842C35.2029 57.9396 34.9632 57.976 34.7268 57.9472C34.503 57.9064 34.2771 57.8781 34.0502 57.8624C33.8029 57.8858 33.5611 57.9499 33.3347 58.0521C33.1088 58.1434 32.8688 58.1951 32.6254 58.2051C32.3827 58.1942 32.1426 58.151 31.9114 58.0766C31.6529 58.0065 31.3964 57.9288 31.137 57.8633C30.9235 57.8142 30.7077 57.7761 30.4903 57.749C30.2115 57.6097 29.904 57.5373 29.5923 57.5377L29.5551 57.5386C29.3628 57.4698 29.1816 57.3734 29.0172 57.2523C28.808 57.0939 28.6235 56.9052 28.4699 56.6925C28.3206 56.4881 28.1954 56.2682 28.0675 56.0504C27.8832 55.6371 27.5595 55.3017 27.1529 55.103C26.9346 55.0441 26.708 55.0223 26.4825 55.0384C25.5954 53.5939 24.8844 52.0483 24.3647 50.4347C24.2375 50.0404 24.1237 49.6434 24.0199 49.2446C24.2318 49.186 24.4523 49.1653 24.6713 49.1836C24.9156 49.2226 25.1657 49.2002 25.3991 49.1185C25.6378 48.9918 25.8578 48.8327 26.0529 48.6457C26.2571 48.4669 26.45 48.2756 26.6304 48.0727C26.8101 47.8774 26.9687 47.6635 27.1034 47.4348C27.228 47.203 27.3732 46.9827 27.5371 46.7767C27.6203 46.6743 27.7138 46.5808 27.8161 46.4975C27.8704 46.4541 27.9282 46.4152 27.9889 46.3812C28.0065 46.3716 28.0838 46.3398 28.078 46.3095C28.0448 46.2137 28.0356 46.1112 28.0513 46.0109C28.0678 45.9583 28.0983 45.9101 28.1169 45.8576C28.1321 45.8072 28.152 45.7584 28.1764 45.7117C28.2295 45.6138 28.3114 45.5345 28.411 45.4846C28.4345 45.4775 28.4593 45.4759 28.4834 45.4801C28.5076 45.4842 28.5304 45.4939 28.5502 45.5084C28.6036 45.5364 28.6582 45.5619 28.7113 45.5905C28.9474 45.7009 29.1531 45.8673 29.3104 46.0752C29.4397 46.2664 29.5097 46.4916 29.5114 46.7225C29.5104 46.9744 29.4621 47.2235 29.4686 47.4755L29.4667 47.4446C29.4869 47.7811 29.4729 48.1187 29.4627 48.4554C29.4298 48.7463 29.4567 49.0408 29.5419 49.3208C29.5865 49.4414 29.6635 49.5473 29.7644 49.627C29.862 49.6967 29.9741 49.7437 30.0924 49.7642C30.3373 49.8023 30.5861 49.8085 30.8326 49.7827C31.2972 49.7147 31.7697 49.7211 32.2324 49.8017C32.1565 49.6043 32.092 49.4027 32.0392 49.198C32.0073 49.0944 31.964 48.9947 31.9101 48.9007C31.8576 48.8169 31.7941 48.7406 31.7211 48.6738C31.4576 48.4117 31.0852 48.2053 30.9823 47.8228C30.9225 47.6142 30.9411 47.3909 31.0346 47.1951C31.0903 47.0939 31.1718 47.0092 31.2707 46.9496C31.3697 46.89 31.4826 46.8576 31.5981 46.8556C31.8456 46.8538 32.0926 46.8772 32.3353 46.9255C32.4625 46.9449 32.5907 46.9569 32.7193 46.9614C32.8335 46.9702 32.9478 46.9466 33.0492 46.8934C32.9519 46.7838 32.902 46.6401 32.9103 46.4939C32.9169 46.4197 32.9486 46.35 33.0002 46.2964C33.0518 46.2427 33.1202 46.2082 33.194 46.1987C33.3803 46.1701 33.502 46.3084 33.6171 46.4336C33.7337 46.5709 33.8711 46.6891 34.0244 46.7838C34.251 46.8946 34.499 46.9549 34.7513 46.9605C34.8797 46.9707 35.0075 46.9887 35.1337 47.0145C35.2576 47.0434 35.3775 47.0872 35.4908 47.1449C35.6065 47.2001 35.7171 47.2653 35.8213 47.3399C35.9285 47.4063 36.0098 47.5073 36.0519 47.6262C36.0672 47.7357 36.0539 47.8474 36.0133 47.9503C35.9726 48.0532 35.906 48.1439 35.82 48.2134C35.6694 48.3544 35.557 48.5313 35.4935 48.7276C35.4612 48.8366 35.4724 48.954 35.5248 49.0549C35.5773 49.1558 35.6668 49.2325 35.7746 49.2687C35.8919 49.3229 35.998 49.3988 36.0871 49.4923C36.16 49.5796 36.1998 49.6898 36.1994 49.8035C36.1981 49.8665 36.1902 49.9293 36.176 49.9908C36.17 50.0442 36.1536 50.096 36.1277 50.1432C36.0872 50.1951 36.0347 50.2363 35.9746 50.2634C35.9298 50.2864 35.8891 50.3066 35.8782 50.3596C35.8605 50.481 35.8529 50.6037 35.8557 50.7263C35.8511 50.851 35.8361 50.975 35.8108 51.0972C35.7521 51.3435 35.7102 51.5935 35.6855 51.8455C35.6688 51.9505 35.6788 52.0581 35.7147 52.1582C35.7403 52.2124 35.7811 52.2588 35.8086 52.3123C35.835 52.3634 35.8542 52.4179 35.8654 52.4743C35.8821 52.5953 35.8842 52.7179 35.8718 52.8394C35.8654 52.9679 35.8564 53.0963 35.8539 53.2251C35.8539 53.2587 35.8571 53.2921 35.8635 53.325C35.881 53.3612 35.9029 53.3951 35.9286 53.4259C35.9847 53.4966 36.0473 53.562 36.1086 53.6279C36.2077 53.7234 36.291 53.8341 36.3553 53.9558C36.4337 54.1283 36.4027 54.4216 36.1959 54.4925C36.0933 54.5152 35.986 54.4978 35.8959 54.444C35.8482 54.4182 35.7981 54.3969 35.7464 54.3803C35.6987 54.373 35.65 54.3836 35.6096 54.41C35.501 54.4729 35.3982 54.5455 35.3024 54.6267C35.1966 54.7104 35.0941 54.7982 34.9965 54.8914C34.9011 54.9825 34.8108 55.0787 34.7258 55.1797C34.6466 55.2631 34.5847 55.3614 34.5439 55.469C34.4896 55.6982 34.5201 55.9392 34.6295 56.1478C34.6705 56.2498 34.736 56.3402 34.8201 56.411C34.9042 56.4818 35.0045 56.5309 35.112 56.5539C35.2077 56.5675 35.3054 56.5534 35.3933 56.5132C35.487 56.465 35.5652 56.3914 35.6188 56.3008C35.6874 56.1936 35.7452 56.0799 35.7914 55.9614C35.8284 55.8728 35.862 55.6998 35.9911 55.7212C36.1056 55.7525 36.2129 55.8058 36.3069 55.8782C36.4019 55.9564 36.5108 56.0162 36.6279 56.0543C36.7381 56.0679 36.8492 56.071 36.9599 56.0637C37.0811 56.0647 37.2015 56.0839 37.317 56.1206C37.4359 56.1647 37.5525 56.2148 37.6663 56.2707C37.7189 56.2989 37.7758 56.3183 37.8347 56.3281C37.8844 56.3293 37.934 56.3221 37.9812 56.3066C38.0449 56.2895 38.1073 56.2674 38.1691 56.2444C38.2224 56.2209 38.2771 56.2006 38.3329 56.1836C38.3541 56.1792 38.376 56.18 38.3969 56.186C38.4177 56.192 38.4367 56.203 38.4523 56.218C38.5011 56.2584 38.5475 56.3017 38.5911 56.3477C38.5698 56.2001 38.5797 56.0497 38.6202 55.9061C38.666 55.7656 38.7488 55.64 38.86 55.5426C39.0648 55.3705 39.2798 55.2107 39.5038 55.0643C39.7076 54.8973 39.9311 54.756 40.1692 54.6434C40.3863 54.5519 40.6221 54.5138 40.857 54.5324C40.9664 54.5522 41.078 54.5571 41.1888 54.5468C41.3096 54.518 41.4261 54.4733 41.5351 54.4138C41.6526 54.3549 41.7736 54.3033 41.8974 54.2594C42.016 54.2226 42.1383 54.1991 42.2621 54.1896C42.5178 54.1759 42.774 54.1759 43.0297 54.1897C43.27 54.1963 43.5094 54.1568 43.7349 54.0734C43.9669 53.9829 44.1924 53.8763 44.4308 53.8033L44.3834 53.8159L44.3946 53.8127C44.4185 53.8057 44.5869 53.7573 44.474 53.7898L44.4308 53.8033C44.544 53.767 44.6599 53.7393 44.7773 53.7203C44.9709 53.6978 45.1657 53.7514 45.3206 53.8699C45.4884 54.0087 45.614 54.1917 45.6831 54.3983C45.7632 54.6057 45.8278 54.8182 45.8941 55.0306C46.066 55.5092 46.1847 56.0053 46.2481 56.5099C46.2578 56.6325 46.2577 56.7556 46.2477 56.8782C46.2443 56.9948 46.212 57.1086 46.1537 57.2096C46.0787 57.2974 46.0135 57.393 45.959 57.4948C45.9355 57.5874 45.9365 57.6845 45.9617 57.7766C46.0072 58.0198 46.0743 58.2588 46.114 58.5029C46.152 58.759 46.1703 59.0177 46.1687 59.2766C46.172 59.8138 46.1312 60.3499 46.1311 60.8871C46.121 61.3769 46.1871 61.8653 46.327 62.3349C46.4096 62.5887 46.5051 62.8383 46.613 63.0825C46.7103 63.3309 46.8372 63.5666 46.991 63.7844C47.1688 63.9763 47.3591 64.1561 47.5608 64.3227C47.6453 64.4116 47.723 64.5066 47.7933 64.6071C47.8097 64.6239 47.8216 64.6445 47.8283 64.667C47.8349 64.6895 47.836 64.7133 47.8314 64.7363C47.8164 64.7769 47.7918 64.8132 47.7597 64.8421V64.8421ZM57.8843 52.477C57.8199 52.5852 57.7451 52.6868 57.6609 52.7805C57.5114 52.9715 57.3084 53.1136 57.0777 53.1885C56.9698 53.2112 56.8584 53.2114 56.7504 53.189C56.6424 53.1666 56.5402 53.1222 56.4502 53.0585C56.26 52.895 56.0566 52.7474 55.8422 52.6172C55.7308 52.5754 55.6127 52.5545 55.4938 52.5557C55.3649 52.5522 55.2356 52.5512 55.1066 52.5432C54.8808 52.5372 54.6611 52.468 54.4726 52.3433C54.2584 52.1845 54.0816 51.9806 53.9547 51.746C53.838 51.5063 53.7063 51.2742 53.5603 51.0511C53.4868 50.9454 53.399 50.8504 53.2995 50.7688C53.1983 50.6959 53.088 50.6366 52.9715 50.5923C52.7211 50.5137 52.4857 50.3935 52.2752 50.237C52.0829 50.0673 51.9287 49.8569 51.7322 49.6923C51.6618 49.6191 51.5726 49.5668 51.4745 49.5411C51.3763 49.5154 51.2729 49.5173 51.1757 49.5467C51.0679 49.6004 50.9718 49.675 50.893 49.7661C50.7988 49.864 50.7131 49.9705 50.6278 50.0764C50.4587 50.2865 50.304 50.5108 50.1245 50.7121C49.9714 50.9005 49.7631 51.0362 49.5288 51.1C49.3244 51.1383 49.1146 51.1373 48.9105 51.097C48.6925 51.0631 48.4742 51.0213 48.2581 50.9751C48.026 50.9317 47.8003 50.8588 47.5866 50.7582C47.3606 50.6446 47.1654 50.4783 47.0174 50.2732C46.8689 50.0546 46.7551 49.8144 46.6799 49.5611C46.598 49.3194 46.5315 49.0727 46.4807 48.8226C46.3821 48.3378 46.3443 47.8426 46.3681 47.3485C46.3758 46.8586 46.5263 46.3817 46.8011 45.9761C46.9674 45.7641 47.1568 45.5713 47.3659 45.4014C47.5548 45.2296 47.7545 45.0699 47.9637 44.9234C48.0534 44.8572 48.1552 44.8095 48.2635 44.7829C48.3717 44.7563 48.4841 44.7515 48.5942 44.7687C48.6991 44.79 48.7995 44.8296 48.8908 44.8856C48.9784 44.9383 49.0505 45.0114 49.1371 45.0651C49.1743 45.0921 49.2183 45.1082 49.2641 45.1117C49.31 45.1152 49.3559 45.1058 49.3967 45.0847C49.4175 45.0646 49.4337 45.0402 49.4443 45.0132L49.4917 44.9347C49.5256 44.8807 49.5614 44.8278 49.5988 44.776C49.7561 44.5582 49.9375 44.3592 50.115 44.1584C50.2801 43.9542 50.4791 43.7799 50.7033 43.6433C50.9163 43.527 51.1596 43.4778 51.4011 43.5021C51.6485 43.53 51.8903 43.5956 52.118 43.6964C52.3623 43.7988 52.6013 43.9134 52.8341 44.0397C53.2358 44.3562 53.7006 44.5831 54.1972 44.7053C54.3285 44.7153 54.4607 44.7111 54.5921 44.7079C54.716 44.7085 54.8391 44.6871 54.9556 44.6447C55.0683 44.5867 55.1694 44.5084 55.2537 44.4137C55.34 44.3267 55.448 44.2643 55.5665 44.233C55.5121 44.2445 55.5482 44.2368 55.5838 44.2293L55.5741 44.2301L55.6265 44.2205L55.5848 44.2293C55.7566 44.2094 55.8515 44.4061 55.8885 44.5527C55.9196 44.6897 55.9361 44.8296 55.9376 44.9701C55.9429 45.1146 55.9467 45.2592 55.9489 45.4039C55.951 45.5345 55.9505 45.6655 55.9575 45.796C55.9674 45.9278 55.9852 46.0589 56.0109 46.1886C56.053 46.451 56.1084 46.7112 56.1768 46.968C56.2112 47.0925 56.2572 47.2135 56.3142 47.3295C56.3792 47.4465 56.4581 47.5554 56.549 47.6538C56.7377 47.8442 56.9066 48.0532 57.053 48.2776C57.1718 48.5144 57.2544 48.7676 57.2981 49.0289C57.3511 49.2909 57.3893 49.5561 57.4259 49.8209C57.4632 50.0902 57.4987 50.3599 57.537 50.6293C57.5749 50.8986 57.6032 51.1693 57.643 51.4383C57.656 51.5643 57.6821 51.6885 57.7209 51.8091C57.766 51.9316 57.8233 52.0492 57.8786 52.1674C57.9056 52.2164 57.9224 52.2704 57.9281 52.3261C57.9272 52.3794 57.9121 52.4315 57.8843 52.477V52.477ZM44.9269 31.4171C45.107 31.2682 45.3343 31.1881 45.5681 31.1914C45.7762 31.1601 45.989 31.1867 46.183 31.2684C46.274 31.3366 46.3491 31.4238 46.403 31.524C46.4568 31.6242 46.4882 31.7349 46.4949 31.8485C46.5071 31.9707 46.5284 32.0919 46.5587 32.211C46.5724 32.2513 46.6692 32.2735 46.7088 32.2748C46.7308 32.2747 46.7525 32.2699 46.7724 32.2607C46.7924 32.2515 46.8101 32.2381 46.8244 32.2215C46.894 32.1269 46.9356 32.0147 46.9446 31.8976C46.9617 31.7849 46.9641 31.6704 46.9517 31.5571C46.941 31.4438 46.9154 31.3324 46.8754 31.2259C46.8273 31.1198 46.7889 31.0096 46.7606 30.8967C46.7493 30.8444 46.7486 30.7903 46.7586 30.7377C46.7686 30.6851 46.7891 30.635 46.8189 30.5905C46.877 30.4833 46.972 30.4008 47.0863 30.3583C47.19 30.3401 47.2961 30.3418 47.3991 30.3633C47.423 30.3695 47.448 30.3705 47.4723 30.366C47.4966 30.3616 47.5196 30.3518 47.5397 30.3374C47.5756 30.3074 47.5643 30.2596 47.5679 30.2173C47.5859 30.1109 47.6366 30.0127 47.713 29.9363C47.7984 29.8342 47.8722 29.724 47.9489 29.6156C48.0259 29.5069 48.1049 29.3994 48.1896 29.2966C48.2336 29.2431 48.2793 29.1909 48.3266 29.1401L48.3601 29.1053L48.328 29.0719C48.3055 29.0501 48.2817 29.0298 48.2567 29.011L48.281 29.0324C48.1951 28.9713 48.107 28.9137 48.0211 28.8527C47.9577 28.8155 47.8995 28.77 47.8482 28.7172C47.796 28.6523 47.821 28.5844 47.8572 28.518C47.8969 28.4384 47.9435 28.3624 47.9965 28.291C48.0746 28.1898 48.1825 28.1157 48.305 28.0792C48.4216 28.0453 48.5506 28.0445 48.664 28.0007C48.774 27.9584 48.7577 27.797 48.7545 27.7015C48.7513 27.5751 48.7312 27.4498 48.6949 27.3287C48.6583 27.211 48.6024 27.1002 48.5577 26.9853C48.5157 26.8821 48.4834 26.7752 48.4612 26.6661C48.4302 26.5663 48.43 26.4595 48.4604 26.3596C48.4909 26.2597 48.5506 26.1712 48.632 26.1057C48.7205 26.0596 48.8207 26.0407 48.92 26.0515C49.0192 26.0622 49.1131 26.102 49.1897 26.166C49.2756 26.2197 49.3564 26.2811 49.4403 26.3373C49.4922 26.3753 49.5471 26.4087 49.6047 26.4371C49.6283 26.4475 49.6995 26.3377 49.7147 26.3187C49.7987 26.2187 49.875 26.1125 49.943 26.001C50.0017 25.8964 50.0408 25.7819 50.0583 25.6633C50.0707 25.6066 50.0726 25.5481 50.0638 25.4908C50.0493 25.4365 50.026 25.3849 49.9949 25.338C49.9281 25.2291 49.8706 25.1147 49.8229 24.9962C49.7405 24.7549 49.697 24.5021 49.6939 24.2472C49.6833 23.9917 49.6938 23.7357 49.7253 23.4819C49.7436 23.3082 49.7755 23.1361 49.8208 22.9674C54.1903 24.0129 58.119 26.4091 61.0484 29.8155C61.7799 30.6628 62.4446 31.5655 63.0366 32.5155C63.0297 32.5744 63.0211 32.6332 63.0095 32.6912C62.9736 32.9282 62.8535 33.1443 62.6712 33.2999C62.5888 33.3488 62.5236 33.422 62.4844 33.5094C62.4512 33.6268 62.5416 33.7211 62.6143 33.8009C62.7947 33.9985 63.0125 34.1596 63.1789 34.3709C63.3146 34.5185 63.4027 34.7036 63.4317 34.902C63.4404 35.1321 63.2472 35.3067 63.1079 35.4653C63.2454 35.5428 63.3876 35.6116 63.5337 35.6714C63.6494 35.7246 63.758 35.7921 63.8569 35.8724C63.8985 35.9064 63.9617 35.9439 63.9769 35.9986C63.9815 36.0187 63.9812 36.0397 63.976 36.0596C63.9708 36.0796 63.9608 36.098 63.947 36.1133C63.9297 36.1308 63.9082 36.1436 63.8845 36.1502C63.8608 36.1569 63.8358 36.1573 63.8119 36.1514C63.7531 36.1453 63.6956 36.1347 63.6364 36.13C63.5008 36.1195 63.3649 36.1157 63.2288 36.1129C62.9651 36.1076 62.7014 36.0996 62.4386 36.0721C62.3228 36.0635 62.2092 36.0358 62.1024 35.9901C61.9906 35.9347 61.8884 35.8618 61.7996 35.7741L61.8239 35.7956C61.7752 35.7477 61.718 35.7094 61.6552 35.6826C61.4975 35.6391 61.3369 35.6068 61.1747 35.5858C61.0936 35.5706 61.014 35.5488 60.9365 35.5207C60.8998 35.5069 60.8637 35.492 60.8283 35.4751C60.808 35.4655 60.7836 35.4417 60.7626 35.4592C60.4891 35.6751 60.2391 35.9193 60.017 36.1878C59.8645 36.365 59.7642 36.5809 59.7272 36.8117C59.7356 37.0542 59.8192 37.2882 59.9665 37.4811C60.1005 37.7078 60.2517 37.9242 60.3778 38.1556C60.4184 38.2302 60.4998 38.3528 60.4392 38.4355C60.3799 38.4969 60.3044 38.5402 60.2214 38.5603C60.0094 38.6176 59.7856 38.6144 59.5754 38.5511C59.3381 38.4925 59.1105 38.3997 58.8998 38.2758C58.787 38.2115 58.6787 38.1396 58.5755 38.0608C58.4708 37.9805 58.3723 37.8921 58.2669 37.8128C58.1738 37.7393 58.0697 37.6809 57.9585 37.6399C57.8447 37.6057 57.7261 37.5901 57.6073 37.5937C57.3516 37.5939 57.0968 37.6233 56.8478 37.6811C56.5983 37.7472 56.3571 37.8411 56.1285 37.961C55.8962 38.0758 55.6538 38.1692 55.4044 38.2399C55.2749 38.2743 55.144 38.3027 55.0138 38.3348C54.8905 38.3606 54.7714 38.4035 54.66 38.4623L54.6866 38.4448L54.6598 38.4623C54.6176 38.4888 54.578 38.519 54.5413 38.5527C54.7484 38.6668 54.971 38.7502 55.2021 38.8002C55.3075 38.8244 55.4178 38.8167 55.5187 38.7779C55.6159 38.7338 55.7107 38.6845 55.8025 38.6301C55.8973 38.571 56.0041 38.534 56.1152 38.5219C56.2158 38.5136 56.3157 38.5446 56.3939 38.6084C56.4756 38.6872 56.5312 38.7891 56.5534 38.9004C56.5708 39.003 56.5583 39.1085 56.5173 39.2042C56.4152 39.4266 56.2905 39.6378 56.1452 39.8347C56.0072 40.0551 55.9082 40.2975 55.7602 40.512C55.6277 40.7271 55.4194 40.8847 55.1764 40.9537C54.9638 40.9949 54.7437 40.9694 54.5462 40.8807C54.0672 40.6931 53.6634 40.3573 53.1779 40.1853C53.0565 40.1424 52.9329 40.1059 52.81 40.0683C52.6894 40.0367 52.5722 39.9937 52.4598 39.9398C52.351 39.8776 52.2559 39.7942 52.1801 39.6944C52.1044 39.5946 52.0496 39.4805 52.019 39.359C51.96 39.1346 51.9592 38.899 52.0167 38.6742C52.0777 38.4568 52.1497 38.2427 52.2323 38.0325C52.3182 37.8308 52.3506 37.6103 52.3267 37.3924C52.2765 37.1649 52.1493 36.9618 51.9667 36.8173C51.8824 36.7434 51.7811 36.6916 51.6718 36.6664C51.5593 36.6409 51.4422 36.6355 51.3283 36.6169C51.2087 36.6066 51.0924 36.5727 50.986 36.5172C50.8796 36.4617 50.7852 36.3857 50.7083 36.2936C50.6817 36.2532 50.6638 36.2077 50.6557 36.16C50.6476 36.1123 50.6495 36.0634 50.6614 36.0165C50.674 35.9525 50.6956 35.891 50.7095 35.8271C50.7205 35.7697 50.7266 35.7114 50.7278 35.6529C50.7338 35.5294 50.7248 35.4056 50.7009 35.2843C50.6931 35.2254 50.6728 35.1689 50.6415 35.1184C50.6103 35.0679 50.5686 35.0246 50.5194 34.9913C50.4204 34.9418 50.3086 34.9237 50.199 34.9395C50.0737 34.9528 49.9494 34.9746 49.8271 35.0047C49.7046 35.0334 49.5831 35.0667 49.4608 35.0967C49.34 35.1314 49.2154 35.151 49.0898 35.1551C48.8463 35.1384 48.614 35.0462 48.4253 34.8914C48.3224 34.8172 48.2227 34.739 48.1173 34.6682C48.0083 34.5953 47.8956 34.5281 47.7808 34.4645C47.5475 34.335 47.3062 34.2201 47.0745 34.0875C46.8434 33.9572 46.6291 33.799 46.4365 33.6166C46.2432 33.4231 46.0604 33.2194 45.8891 33.0062C45.7247 32.7978 45.5464 32.6007 45.3554 32.4164C45.3044 32.3703 45.2513 32.3262 45.196 32.285C45.143 32.2547 45.0937 32.2185 45.0489 32.1771C45.0323 32.157 45.0338 32.1541 45.0069 32.1484L44.9663 32.1386C44.9377 32.1313 44.91 32.1207 44.8838 32.1072C44.8354 32.0824 44.7951 32.0444 44.7676 31.9975C44.723 31.8973 44.7145 31.7847 44.7435 31.6789C44.7725 31.5731 44.8373 31.4806 44.9269 31.4171V31.4171Z" fill="black"/>
<path d="M44.6751 14.8721C45.2075 14.8654 45.7355 14.773 46.2386 14.5986C46.5355 15.2468 46.9676 15.8241 47.5058 16.2917C48.0439 16.7594 48.6759 17.1066 49.3592 17.3101C50.0425 17.5137 50.7614 17.5688 51.4677 17.4719C52.1741 17.375 52.8516 17.1283 53.4548 16.7482C54.0581 16.3681 54.5731 15.8636 54.9654 15.2682C55.3578 14.6729 55.6184 14.0006 55.7298 13.2964C55.8411 12.5922 55.8007 11.8723 55.6112 11.185C55.4217 10.4976 55.0876 9.85872 54.631 9.31106C54.6779 9.05296 54.7042 8.79156 54.7099 8.52931C54.7116 7.52814 54.4132 6.54944 53.8533 5.71949C53.2934 4.88955 52.4976 4.24643 51.5686 3.87315C50.6396 3.49986 49.6201 3.41353 48.6416 3.62529C47.6631 3.83705 46.7705 4.33719 46.079 5.06117C45.6242 4.91956 45.1514 4.84417 44.6751 4.83732C43.3444 4.83732 42.0682 5.36594 41.1273 6.30688C40.1863 7.24782 39.6577 8.52401 39.6577 9.8547C39.6577 11.1854 40.1863 12.4616 41.1273 13.4025C42.0682 14.3435 43.3444 14.8721 44.6751 14.8721V14.8721Z" fill="black"/>
<path d="M76.5063 66.2198C75.7915 65.6955 74.9803 65.3172 74.1192 65.1064C73.2582 64.8956 72.364 64.8565 71.4878 64.9913C70.6116 65.1261 69.7705 65.4322 69.0126 65.892C68.2547 66.3519 67.5948 66.9565 67.0706 67.6714C66.6541 68.2544 66.3342 68.9006 66.1232 69.5853C65.1837 69.3917 64.2136 69.4012 63.278 69.6131C62.3424 69.8249 61.4629 70.2343 60.6984 70.8137C59.9339 71.3932 59.3021 72.1293 58.8452 72.9728C58.3884 73.8163 58.117 74.7477 58.0494 75.7046C57.9819 76.6615 58.1195 77.6218 58.4533 78.5211C58.787 79.4205 59.3091 80.2381 59.9846 80.9193C60.66 81.6004 61.4733 82.1294 62.3698 82.4706C63.2663 82.8119 64.2254 82.9577 65.1828 82.8981C66.19 83.9218 67.4985 84.5962 68.9166 84.8226C70.3348 85.049 71.7882 84.8156 73.0641 84.1564C74.34 83.4973 75.3714 82.447 76.0073 81.1594C76.6433 79.8718 76.8504 78.4144 76.5983 77.0006C77.1138 76.6198 77.5718 76.1667 77.9582 75.6554C79.0169 74.2116 79.4587 72.4064 79.1864 70.6369C78.9141 68.8674 77.9501 67.2785 76.5063 66.2198V66.2198Z" fill="black"/>
<path d="M12.4721 41.1817C13.0733 41.1817 13.6609 41.0034 14.1607 40.6695C14.6606 40.3355 15.0501 39.8608 15.2802 39.3054C15.5102 38.75 15.5704 38.1389 15.4531 37.5493C15.3359 36.9597 15.0464 36.4181 14.6213 35.993C14.1962 35.568 13.6547 35.2785 13.0651 35.1612C12.4755 35.0439 11.8643 35.1041 11.309 35.3341C10.7536 35.5642 10.2789 35.9537 9.94488 36.4536C9.6109 36.9534 9.43263 37.541 9.43262 38.1422C9.43261 38.5414 9.51122 38.9366 9.66397 39.3054C9.81672 39.6741 10.0406 40.0092 10.3228 40.2915C10.6051 40.5737 10.9402 40.7976 11.3089 40.9504C11.6777 41.1031 12.073 41.1817 12.4721 41.1817V41.1817Z" fill="black"/>
<path d="M13.8824 54.7138C16.7954 54.7138 19.1569 52.3523 19.1569 49.4393C19.1569 46.5263 16.7954 44.1648 13.8824 44.1648C10.9694 44.1648 8.60791 46.5263 8.60791 49.4393C8.60791 52.3523 10.9694 54.7138 13.8824 54.7138Z" fill="black"/>
<path d="M76.9946 47.3564C75.8369 47.3564 74.7052 47.6997 73.7426 48.3429C72.78 48.9861 72.0297 49.9003 71.5867 50.9698C71.1437 52.0394 71.0277 53.2164 71.2536 54.3518C71.4794 55.4873 72.0369 56.5303 72.8556 57.3489C73.6742 58.1675 74.7172 58.725 75.8526 58.9508C76.9881 59.1767 78.165 59.0608 79.2346 58.6177C80.3042 58.1747 81.2183 57.4244 81.8615 56.4618C82.5047 55.4992 82.848 54.3675 82.848 53.2098C82.848 51.6574 82.2313 50.1686 81.1335 49.0709C80.0358 47.9732 78.547 47.3565 76.9946 47.3564V47.3564Z" fill="black"/>
<path d="M75.3698 30.1648C75.3698 29.7751 75.2542 29.3942 75.0377 29.0702C74.8212 28.7462 74.5135 28.4937 74.1535 28.3446C73.7935 28.1954 73.3973 28.1564 73.0151 28.2324C72.6329 28.3085 72.2818 28.4961 72.0063 28.7717C71.7307 29.0472 71.5431 29.3983 71.4671 29.7805C71.391 30.1627 71.43 30.5588 71.5792 30.9189C71.7283 31.2789 71.9808 31.5866 72.3048 31.8031C72.6288 32.0196 73.0098 32.1352 73.3994 32.1352C73.6582 32.1352 73.9144 32.0842 74.1535 31.9852C74.3925 31.8862 74.6097 31.741 74.7927 31.5581C74.9757 31.3751 75.1208 31.1579 75.2198 30.9189C75.3188 30.6798 75.3698 30.4236 75.3698 30.1648Z" fill="black"/>
<path d="M78.9648 35.4397C78.1968 35.4397 77.446 35.6674 76.8074 36.0941C76.1688 36.5208 75.6711 37.1272 75.3772 37.8368C75.0832 38.5464 75.0063 39.3271 75.1561 40.0804C75.306 40.8337 75.6758 41.5256 76.2189 42.0687C76.7619 42.6117 77.4538 42.9816 78.2071 43.1314C78.9604 43.2813 79.7411 43.2044 80.4507 42.9105C81.1603 42.6166 81.7667 42.1189 82.1934 41.4803C82.6201 40.8417 82.8479 40.091 82.8479 39.3229C82.8479 38.813 82.7475 38.308 82.5524 37.8369C82.3572 37.3658 82.0712 36.9377 81.7106 36.5771C81.35 36.2165 80.9219 35.9305 80.4508 35.7353C79.9797 35.5401 79.4747 35.4397 78.9648 35.4397V35.4397Z" fill="black"/>
<path d="M46.9896 71.7866C46.2216 71.7866 45.4708 72.0144 44.8322 72.4411C44.1937 72.8678 43.6959 73.4742 43.402 74.1838C43.1081 74.8934 43.0312 75.6741 43.1811 76.4274C43.3309 77.1807 43.7007 77.8726 44.2438 78.4157C44.7869 78.9587 45.4788 79.3286 46.2321 79.4784C46.9853 79.6283 47.7661 79.5514 48.4757 79.2574C49.1852 78.9635 49.7917 78.4658 50.2184 77.8273C50.6451 77.1887 50.8728 76.4379 50.8728 75.6699C50.8729 75.1599 50.7724 74.655 50.5773 74.1838C50.3821 73.7127 50.0961 73.2846 49.7355 72.924C49.3749 72.5634 48.9468 72.2774 48.4757 72.0822C48.0045 71.8871 47.4996 71.7866 46.9896 71.7866V71.7866Z" fill="black"/>
<path d="M15.535 30.1647C17.3673 30.1647 19.1246 29.4368 20.4202 28.1412C21.7158 26.8456 22.4437 25.0883 22.4437 23.256C22.4437 23.1458 22.4164 23.0434 22.4113 22.9345C23.3401 23.1752 24.3089 23.2192 25.2557 23.0635C26.2025 22.9078 27.1062 22.5559 27.909 22.0304C28.7118 21.5049 29.3959 20.8174 29.9173 20.012C30.4388 19.2066 30.7862 18.3011 30.9372 17.3536C31.0881 16.4061 31.0394 15.4375 30.794 14.5099C30.5487 13.5823 30.1121 12.7163 29.5124 11.9673C28.9127 11.2184 28.163 10.6031 27.3115 10.1608C26.46 9.71861 25.5255 9.45926 24.5679 9.39942C24.2137 8.40925 23.6371 7.51346 22.8826 6.7809C22.1281 6.04834 21.2157 5.4985 20.2155 5.17365C19.2153 4.84879 18.1539 4.75756 17.1129 4.90697C16.072 5.05637 15.0791 5.44244 14.2106 6.0355C12.8132 5.25983 11.2433 4.84778 9.64509 4.83719C7.17084 4.83049 4.78915 5.77742 2.99498 7.48121C1.2008 9.185 0.132131 11.5146 0.0110473 13.9859C-0.110036 16.4572 0.725782 18.8801 2.3448 20.7511C3.96383 22.6222 6.24154 23.7974 8.70459 24.0326C8.88983 25.7158 9.68883 27.2717 10.9489 28.4029C12.209 29.5341 13.8417 30.1614 15.535 30.1647V30.1647Z" fill="black"/>
<path d="M82.6666 7.91973C82.3584 6.52421 81.6288 5.25713 80.5765 4.29006C79.5243 3.32299 78.2002 2.70265 76.7837 2.51305C75.3672 2.32345 73.9266 2.57374 72.6571 3.23004C71.3875 3.88634 70.3503 4.91693 69.686 6.18226C67.7291 6.35641 65.915 7.27947 64.6223 8.75885C63.3295 10.2382 62.658 12.1597 62.7477 14.1222C62.8374 16.0848 63.6816 17.9369 65.1039 19.2921C66.5263 20.6474 68.417 21.401 70.3816 21.3959C70.479 21.3959 70.5696 21.3708 70.6661 21.3672C71.0675 22.216 71.6717 22.9529 72.4254 23.513C73.179 24.0731 74.0589 24.4391 74.9874 24.5786C75.9159 24.7182 76.8645 24.6272 77.7495 24.3134C78.6345 23.9997 79.4286 23.473 80.0619 22.7798C80.1625 22.7837 80.2568 22.8097 80.3583 22.8097C82.1807 22.8147 83.9446 22.1665 85.33 20.9826C86.7155 19.7987 87.6308 18.1575 87.91 16.3565C88.1892 14.5556 87.8138 12.7143 86.8519 11.1665C85.8899 9.6186 84.4051 8.46673 82.6667 7.91973H82.6666Z" fill="black"/>
<path d="M30.5383 69.332C30.5464 69.2152 30.5733 69.104 30.5733 68.9851C30.575 67.9209 30.2377 66.8839 29.6104 66.0242C28.9831 65.1646 28.0983 64.5271 27.0843 64.2041C26.0703 63.8811 24.9798 63.8894 23.9709 64.2278C22.9619 64.5662 22.0869 65.2171 21.4728 66.0862C20.8281 65.2399 19.9971 64.5536 19.0443 64.0804C18.0915 63.6073 17.0425 63.36 15.9786 63.3579C14.3894 63.3593 12.8479 63.9015 11.6078 64.8953C10.3676 65.8892 9.50263 67.2755 9.1551 68.8263C7.41672 69.3733 5.93191 70.5252 4.96994 72.073C4.00798 73.6209 3.63256 75.4622 3.91176 77.2631C4.19096 79.064 5.1063 80.7052 6.49177 81.8892C7.87725 83.0731 9.64113 83.7213 11.4635 83.7162C11.565 83.7162 11.6593 83.6903 11.7599 83.6863C12.2921 84.2711 12.9403 84.7387 13.6631 85.0593C14.3858 85.38 15.1675 85.5466 15.9582 85.5487C16.7489 85.5508 17.5314 85.3883 18.2559 85.0715C18.9804 84.7547 19.631 84.2906 20.1663 83.7087C20.7353 84.4101 21.4845 84.9433 22.3336 85.2511C23.1827 85.5589 24.0996 85.6296 24.9858 85.4557C25.8721 85.2819 26.6943 84.8699 27.3641 84.2641C28.0339 83.6583 28.5262 82.8816 28.7879 82.0172C30.3178 81.9641 31.7799 81.3726 32.9163 80.347C34.0528 79.3213 34.7907 77.9274 34.9999 76.411C35.2091 74.8945 34.8763 73.3529 34.0601 72.0578C33.2439 70.7628 31.9966 69.7975 30.5383 69.332Z" fill="black"/>
</g>
<defs>
<clipPath id="clip0">
<rect width="88" height="110" fill="white"/>
</clipPath>
</defs>
</svg>
