<svg xmlns="http://www.w3.org/2000/svg" data-name="Layer 1" viewBox="0 0 48 60" x="0px" y="0px"><title>11-co2</title><path d="M11.49126,23.72556A12.87708,12.87708,0,1,0,24.36834,10.84842,12.87706,12.87706,0,0,0,11.49126,23.72556Zm10.83512-4.49174a.5321.5321,0,0,1,.01718-.19372,2.93058,2.93058,0,0,1,.12771-.40172,1.42962,1.42962,0,0,1,.19735-.368.749.749,0,0,1,.07493-.082.19665.19665,0,0,1,.07211-.0516.07752.07752,0,0,1,.076.03011.70584.70584,0,0,1,.06238.07192.888.888,0,0,1,.09378.18516.84159.84159,0,0,0,.04889.10049.15634.15634,0,0,0,.06706.06995.66688.66688,0,0,1,.1697.06268.41625.41625,0,0,1,.1149.1686,1.44517,1.44517,0,0,0,.09556.18534,1.599,1.599,0,0,0,.13645.17339,2.09745,2.09745,0,0,0,.321.29507,1.88761,1.88761,0,0,0,.36489.22112,2.77557,2.77557,0,0,1,.38663.18233.76064.76064,0,0,1,.1657.14088,1.74192,1.74192,0,0,1,.13054.17881c.06921.10314.14575.2415.27949.26373a.577.577,0,0,0,.314-.06582c.06194-.02654.12352-.054.18608-.079a.80989.80989,0,0,1,.19353-.05936.22591.22591,0,0,1,.25117.16133.48.48,0,0,1,.00092.18694c-.00874.06785-.0197.13553-.02168.20418a.19887.19887,0,0,0,.06127.166.32945.32945,0,0,0,.173.04477c.09956.0133.25141.02832.28509.14445a.2474.2474,0,0,1-.1149.254.18925.18925,0,0,1-.16286-.008.37677.37677,0,0,0-.08658-.02795.132.132,0,0,0-.08288.03325.93384.93384,0,0,0-.13054.14864.58944.58944,0,0,1-.07925.07611.18417.18417,0,0,0-.03682.027c-.00437.00622.00277.02445.00388.031a2.02421,2.02421,0,0,1,.01176.41281,1.94807,1.94807,0,0,0-.002.20073.97224.97224,0,0,0,.03387.19624.9201.9201,0,0,1,.06225.37321.22152.22152,0,0,1-.21582.21133.57112.57112,0,0,1-.28861-.1226,1.70565,1.70565,0,0,0-.348-.20548.35015.35015,0,0,0-.18023-.02518.34554.34554,0,0,0-.16884.09175.5697.5697,0,0,0,.18466.02826.67862.67862,0,0,1,.34914.07321.30131.30131,0,0,1,.138.29236.31864.31864,0,0,1-.19809.25967.20065.20065,0,0,1-.16632-.02162.25911.25911,0,0,1-.09747-.16453,1.34339,1.34339,0,0,1-.34519.02728.736.736,0,0,0-.2.02057.21715.21715,0,0,0-.08842.0548.27625.27625,0,0,0-.0617.071.43155.43155,0,0,0-.03922.08707.43673.43673,0,0,0-.0125.09384,1.57193,1.57193,0,0,0,.00184.21,1.17219,1.17219,0,0,1-.0503.6426L24.426,24.47l-.01219.02087c.01613-.0274.02013-.0343-.02229.03811l-.02968.05043v.00031h-.00019l.021-.03744a.50162.50162,0,0,1-.115.127.40076.40076,0,0,1-.35689.07956.59159.59159,0,0,1-.28257-.24273,1.05029,1.05029,0,0,1-.21952-.327.38256.38256,0,0,1,.08571-.31958,1.42259,1.42259,0,0,1,.14883-.1575c.01823-.01768.05215-.04108.03707-.06928a.19222.19222,0,0,0-.03565-.04045.291.291,0,0,0-.07186-.0545.51225.51225,0,0,0-.0947-.031.37093.37093,0,0,1-.18165-.08534.17953.17953,0,0,1-.05179-.07445.08758.08758,0,0,1,.02469-.07192A.71319.71319,0,0,0,23.362,23.117a1.68139,1.68139,0,0,0,.10381-.39507c.01133-.06977.02069-.13978.02759-.21a1.27365,1.27365,0,0,0,.0101-.19477,1.82267,1.82267,0,0,0-.09126-.37462.72635.72635,0,0,1-.028-.36157.36913.36913,0,0,1,.08405-.15868.0807.0807,0,0,1,.07093-.03608.13311.13311,0,0,1,.06718.0463c.078.07777.1548.19033.27857.18035a.33218.33218,0,0,0,.22536-.13737.64707.64707,0,0,0,.09212-.17186.56933.56933,0,0,0,.03886-.18448,2.27029,2.27029,0,0,0-.09828-.40067.51966.51966,0,0,1,.00585-.19014c.0125-.0646.03738-.12629.0468-.19156a.50457.50457,0,0,1-.25671.14753.34193.34193,0,0,1-.26126-.08233.59433.59433,0,0,1-.16078-.28121c-.01736-.05413-.03152-.10893-.04821-.16318a.35977.35977,0,0,0-.06336-.13177.50659.50659,0,0,0-.03011.23436.615.615,0,0,0,.09027.23263c.07487.12358.16828.236.25332.35264a1.35713,1.35713,0,0,1,.21459.36675.26162.26162,0,0,1-.12525.31218c-.124.0609-.251.00579-.37973.00481a.14382.14382,0,0,0-.0915.027.559.559,0,0,0-.06934.06785.50559.50559,0,0,1-.16175.12851.32792.32792,0,0,1-.33042-.04975.7443.7443,0,0,1-.2399-.28306.34678.34678,0,0,1-.03762-.175.51168.51168,0,0,1,.04834-.15794.89944.89944,0,0,0,.06194-.15209.26169.26169,0,0,0-.03442-.17408c-.00745-.0157-.01687-.01613-.03072-.02432a.06715.06715,0,0,1-.0242-.0351c-.01275-.03152-.02611-.06268-.03966-.09384-.02851-.06551-.05813-.13066-.083-.19759a.99183.99183,0,0,1-.07137-.38306,1.11016,1.11016,0,0,1,.03387-.20314.43171.43171,0,0,0,.01342-.19267C22.35785,19.365,22.33519,19.30081,22.32638,19.23382Zm-3.18043.812.00462.01072-.00862-.00727.00529.00788.0021.00277c.01447.01706.03171.03781.00948.01177l.00733.00862-.01718-.02008-.00832-.0101c-.00622-.00745-.01-.01705-.01644-.02463C19.13062,20.03313,19.13948,20.03836,19.146,20.04587Zm-5.1825-.52751a1.33489,1.33489,0,0,1,.167-.12974c.01065-.00745.02278-.01392.03288-.02217.0093-.00745.009-.02863.01133-.03965l.02161-.10425.01176-.05708c.00222-.0109.006-.02038,0-.03042a.06635.06635,0,0,1,.00253-.06835c.00665-.01077.02167-.01767.02426-.03023l.0032-.0157.00825-.03984.02266-.10942q.04157-.20127.08331-.40258c.0032-.0157-.02106-.02519-.0314-.03412a.24551.24551,0,0,1-.06145-.0745.34122.34122,0,0,1-.03141-.17137l.002-.02278q.21826-.388.46471-.75682a.48975.48975,0,0,1,.24575-.147c.062-.01189.12531-.01527.18694-.02944a.55017.55017,0,0,0,.177-.0838.31982.31982,0,0,1,.303-.05924.21566.21566,0,0,1,.11637.12543.43484.43484,0,0,1,.01885.0936.15626.15626,0,0,0,.00948.04193.06659.06659,0,0,0,.01059.01761c.00653.00764.01164.00339.0205.00166a.58746.58746,0,0,1,.18935-.0189.21076.21076,0,0,1,.14507.09741.30939.30939,0,0,1,.0181.31471.65424.65424,0,0,1-.12487.15844c-.02549.02506-.05191.04926-.0782.07364l-.038.03553a.15552.15552,0,0,0-.02673.02611.09879.09879,0,0,0,.00715.0439c.00394.00548.01594-.0008.02013-.00283a.301.301,0,0,0,.06545-.0455.56811.56811,0,0,1,.14742-.10271.16906.16906,0,0,1,.09137-.00967c.014.00234.03116.01269.04261.00394l.04157-.03165a.60674.60674,0,0,1,.15972-.09747.11068.11068,0,0,1,.14.04335.27589.27589,0,0,1,.013.14839.38138.38138,0,0,0,.03842.28448c.10714-.086.10579-.25178.11687-.37628a.96293.96293,0,0,1,.08836-.387.41487.41487,0,0,1,.12026-.13916.09146.09146,0,0,1,.07814-.02075.11706.11706,0,0,1,.04612.03455c.01533.01465.0298.025.0479.00973a.7864.7864,0,0,1,.07051-.0577.17019.17019,0,0,1,.16773-.011.45915.45915,0,0,1,.22432.31576.66952.66952,0,0,1-.003.37764.73262.73262,0,0,1-.04027.0947c-.0024.00462-.01478.02075-.01287.02642.00351.01022.02593.02044.0343.02635.0266.0186.04883.0399.08319.03578a.34038.34038,0,0,1,.08269-.00862c.109.0133.11521.15572.0867.23632a.39445.39445,0,0,1-.11631.14883c-.028.02592-.05721.05062-.08682.07457l-.02063.01669.01139.02142a.44357.44357,0,0,0,.02685.04058l-.00961-.01471.0056.007a2.07528,2.07528,0,0,0,.32537.29217.40967.40967,0,0,0,.1665.09809,1.96572,1.96572,0,0,0,.20332.03436.43863.43863,0,0,1,.17592.04458.36366.36366,0,0,1,.08171.06392.10522.10522,0,0,1,.04163.07469.12126.12126,0,0,1-.04.06816c-.02339.02709-.048.053-.07346.07808-.05314.052-.10978.1-.16662.148a.43832.43832,0,0,0,.07081-.02623.18589.18589,0,0,1,.11693-.00369.26651.26651,0,0,1,.11921.07925.63207.63207,0,0,1,.06281.12647c.0367.079.1274.09563.20332.1173a.452.452,0,0,1,.22284.12014.1372.1372,0,0,1,.03.06028.22766.22766,0,0,1-.06816.18085c-.00875.00892.01151.02013.01742.0261a.304.304,0,0,1,.03319.03849.19948.19948,0,0,1,.03861.08922.25345.25345,0,0,1-.06767.18c-.02.02678-.04132.05246-.06041.07992a.088.088,0,0,0-.025.07512.14907.14907,0,0,0,.05548.064.49242.49242,0,0,0,.083.05061,2.1472,2.1472,0,0,1,.35492.17457.41971.41971,0,0,1,.17918.33386.43481.43481,0,0,1-.04181.19021c-.02795.06-.07.11151-.0992.17069a.68784.68784,0,0,0-.04969.19753q-.01671.10586-.03473.21163a.64029.64029,0,0,1-.04445.18522.24049.24049,0,0,1-.05462.06263.086.086,0,0,0-.02149.0737c.00154.06817.01225.13571.013.20388.001.07019-.00628.14033-.00726.2104a1.53643,1.53643,0,0,0,.0109.21151c.0088.07088.02456.14015.03786.21022a.99986.99986,0,0,1,.01589.1968.339.339,0,0,0,.06712.18355c.04045.06065.08356.11983.12869.177.04594.05813.097.11127.14612.16662a.48357.48357,0,0,1,.10745.17125.20686.20686,0,0,1-.01078.16847.25351.25351,0,0,1-.0753.068.1038.1038,0,0,1-.07155.027.14619.14619,0,0,1-.06681-.04428.93.93,0,0,0-.07728-.05973c-.0085-.00147-.01441.00382-.02438.013a.271.271,0,0,1-.06053.04384c-.04323.02186-.09157.03085-.13553.05166a.15779.15779,0,0,1-.23189-.03023c-.082-.07383-.17094-.13916-.25948-.2048q-.12405-.09246-.25228-.17931a3.62664,3.62664,0,0,0-.3519-.214,1.5214,1.5214,0,0,0-.36133-.14531.7974.7974,0,0,1-.15375-.04218.23414.23414,0,0,1-.112-.1077.14087.14087,0,0,1-.006-.14279.1603.1603,0,0,0,.03381-.07826c-.00813-.03486-.01632-.06965-.02574-.10413a.21694.21694,0,0,1-.26933-.08676.27907.27907,0,0,1-.03153-.16785c.00111-.03978.02241-.11915-.0319-.13356a.16374.16374,0,0,0-.07832.01115.36549.36549,0,0,1-.085.0141.32854.32854,0,0,1-.16958-.06158,3.1547,3.1547,0,0,1-.64254-.59161c-.086-.09237-.189-.22642-.32746-.23a.46838.46838,0,0,0-.339.20018,1.50991,1.50991,0,0,1-.28282.28085.36.36,0,0,1-.15141.05874.3318.3318,0,0,1-.17155-.03387,2.22936,2.22936,0,0,1-.32475-.22733c-.11915-.08134-.25338-.13726-.36711-.22722a.494.494,0,0,1-.13578-.15233A.3652.3652,0,0,1,14.203,21.736a.51965.51965,0,0,1,.03233-.17685c.0234-.063.05788-.12161.07746-.1862.04015-.13128-.07955-.26108-.1684-.34255a.3985.3985,0,0,1-.13135-.15972.31015.31015,0,0,1,.00339-.18522.66257.66257,0,0,1,.09618-.15536.11243.11243,0,0,0,.02463-.08682.16243.16243,0,0,0-.04261-.06946.30844.30844,0,0,1-.09686-.16631.27617.27617,0,0,1,.01133-.0843c.00739-.03122.01367-.06268.0202-.09415l.02346-.11336a.20231.20231,0,0,0,.00782-.0761.51119.51119,0,0,0-.079-.17568C13.95231,19.61577,13.91407,19.5678,13.96345,19.51836ZM26.05071,35.36848a.81363.81363,0,0,1-.24452.17284q-.14787.01728-.29648.03061l-.02248-.006a.91091.91091,0,0,1-.32721-.20664,2.57868,2.57868,0,0,1-.26644-.29649c-.18577-.23245-.3644-.47025-.53971-.71052-.08811-.12087-.175-.2426-.26323-.36335s-.17937-.23953-.259-.36625c-.15357-.24446-.2612-.516-.43349-.74913a1.21318,1.21318,0,0,0-.30461-.29938.35566.35566,0,0,0-.17783-.06355c-.06453-.00357-.12931.006-.194.00635a.885.885,0,0,1-.37622-.08652c-.06287-.02857-.124-.06046-.18657-.08959-.06651-.031-.13479-.05714-.20333-.08313a1.43268,1.43268,0,0,1-.36526-.18676.88222.88222,0,0,1-.26552-.32844,1.23329,1.23329,0,0,1-.09876-.3894.2398.2398,0,0,1-.00222-.091.04674.04674,0,0,1,.02057-.02759c.00628-.00387-.00548-.02136-.00733-.02543-.03085-.068-.06558-.13411-.09735-.20159a.3034.3034,0,0,1-.01786.05117.461.461,0,0,1-.29648.22949.736.736,0,0,1-.39593.00683,1.65326,1.65326,0,0,0-.37783-.11053.68366.68366,0,0,0-.378.1404,3.19222,3.19222,0,0,1-.35357.22536.713.713,0,0,1-.37819.05739,3.32993,3.32993,0,0,0-.36908-.04624,1.23006,1.23006,0,0,0-.39027.10344,1.1582,1.1582,0,0,1-.38688.08344,1.48722,1.48722,0,0,1-.38946-.07007c-.141-.03824-.28091-.08061-.42241-.11632a3.50418,3.50418,0,0,0-.3527-.06238,1.09363,1.09363,0,0,0-.48984-.11527l-.02032.0005a1.14381,1.14381,0,0,1-.2934-.15616,1.44274,1.44274,0,0,1-.29852-.30535c-.0814-.11145-.14969-.2314-.21946-.35024a1.05216,1.05216,0,0,0-.49888-.51674,1.10154,1.10154,0,0,0-.3657-.03522,11.58537,11.58537,0,0,1-1.15515-2.51111c-.0694-.21508-.13146-.43164-.18805-.64919a1.01585,1.01585,0,0,1,.35529-.03325.81291.81291,0,0,0,.397-.03553,1.598,1.598,0,0,0,.35658-.25788,3.54183,3.54183,0,0,0,.315-.31255,2.05046,2.05046,0,0,0,.258-.34791,2.41026,2.41026,0,0,1,.23657-.359,1.05338,1.05338,0,0,1,.15221-.15228.69117.69117,0,0,1,.09422-.06342c.0096-.00523.05178-.0226.04864-.0391a.33827.33827,0,0,1-.01459-.16287c.009-.02869.02567-.055.03577-.08362a.46388.46388,0,0,1,.03245-.07961.29728.29728,0,0,1,.128-.12389.08623.08623,0,0,1,.07592.013c.02912.01527.05893.02919.08787.04477a.87439.87439,0,0,1,.32678.2644.63906.63906,0,0,1,.10966.35307c-.00055.13738-.0269.27328-.02339.41071l-.001-.01681c.011.1835.00339.36767-.00222.55135a1.17024,1.17024,0,0,0,.04323.472.38091.38091,0,0,0,.12136.167.4359.4359,0,0,0,.17888.07487,1.56843,1.56843,0,0,0,.40375.0101,2.411,2.411,0,0,1,.76354.01035,3.02117,3.02117,0,0,1-.10536-.32931.80076.80076,0,0,0-.07044-.16213.59637.59637,0,0,0-.10308-.12376c-.14372-.143-.34685-.25554-.403-.46422a.48448.48448,0,0,1,.02857-.34236.35761.35761,0,0,1,.30733-.18516,1.982,1.982,0,0,1,.40214.03812,1.82019,1.82019,0,0,0,.20942.01958.33222.33222,0,0,0,.17993-.03713.30237.30237,0,0,1-.07574-.21791.17827.17827,0,0,1,.15474-.161c.1016-.01558.168.05985.23078.12814a.93927.93927,0,0,0,.22217.191.95048.95048,0,0,0,.39648.09637,1.72285,1.72285,0,0,1,.20862.02949.86.86,0,0,1,.19476.07112,1.18931,1.18931,0,0,1,.18029.10634.30237.30237,0,0,1,.12574.15616.34953.34953,0,0,1-.12648.32031.66413.66413,0,0,0-.17807.28048.23949.23949,0,0,0,.15332.29513.559.559,0,0,1,.17044.122.26309.26309,0,0,1,.06127.1697.50027.50027,0,0,1-.01275.10216.22543.22543,0,0,1-.02635.08313.22122.22122,0,0,1-.0835.06557c-.02444.01256-.04667.02359-.05258.05247a1.19963,1.19963,0,0,0-.01232.20005,1.22193,1.22193,0,0,1-.02444.20228,3.029,3.029,0,0,0-.06835.40818.34442.34442,0,0,0,.01588.17057c.014.02955.03627.05486.05124.08405a.3353.3353,0,0,1,.031.08836.83525.83525,0,0,1,.00345.19913c-.00345.07008-.00838.14015-.00973.21041a.28329.28329,0,0,0,.00523.05449.269.269,0,0,0,.03553.05505c.0306.03854.06472.0742.09815.11016a.70531.70531,0,0,1,.13455.17887c.04279.09409.02586.25406-.08695.29273a.22464.22464,0,0,1-.16361-.02647.47841.47841,0,0,0-.08152-.03473.10684.10684,0,0,0-.07463.01619,1.14914,1.14914,0,0,0-.16755.11823c-.05775.04562-.11367.09353-.16687.14433a1.9919,1.9919,0,0,0-.14765.15726.47265.47265,0,0,0-.09926.15782.53282.53282,0,0,0,.04673.37025.366.366,0,0,0,.26318.22149.27546.27546,0,0,0,.15344-.02217.30516.30516,0,0,0,.123-.11588,1.05612,1.05612,0,0,0,.09415-.1851c.02019-.04834.03848-.14267.10892-.131a.49618.49618,0,0,1,.17223.08559.537.537,0,0,0,.17512.09606.96238.96238,0,0,0,.18109.00517.66118.66118,0,0,1,.19477.031,2.0391,2.0391,0,0,1,.19051.0819.29814.29814,0,0,0,.09187.03128.23789.23789,0,0,0,.07993-.0117c.03472-.00936.06878-.02137.10246-.03393a.80937.80937,0,0,1,.08934-.03319.0727.0727,0,0,1,.06515.01878.85765.85765,0,0,1,.07568.07075.58254.58254,0,0,1,.01588-.24088.44894.44894,0,0,1,.13079-.19827,3.65605,3.65605,0,0,1,.35116-.2609,1.7581,1.7581,0,0,1,.363-.22955.80244.80244,0,0,1,.37512-.06059.669.669,0,0,0,.181.00788.76586.76586,0,0,0,.18891-.07254,1.7315,1.7315,0,0,1,.1976-.08423A.90512.90512,0,0,1,23.052,29.558a3.90919,3.90919,0,0,1,.41871.00006,1.02709,1.02709,0,0,0,.38466-.06342c.12654-.04938.24956-.10751.37955-.14735l-.02586.0069.00616-.00173c.013-.00382.10486-.03023.04328-.0125l-.02358.00733a1.30321,1.30321,0,0,1,.189-.04526.40986.40986,0,0,1,.29636.08159.63554.63554,0,0,1,.19772.28823c.04372.11312.07894.22906.11508.34489a3.78031,3.78031,0,0,1,.1931.80688,1.25029,1.25029,0,0,1-.00018.20092.38365.38365,0,0,1-.05129.18073.87741.87741,0,0,0-.10622.1556.30165.30165,0,0,0,.00148.15369c.02481.13263.06145.263.08306.39618a2.76438,2.76438,0,0,1,.02987.422c.00178.293-.02045.58546-.02051.87844a2.57878,2.57878,0,0,0,.10683.7897,4.3143,4.3143,0,0,0,.156.40782,1.80589,1.80589,0,0,0,.20622.38287,3.21172,3.21172,0,0,0,.31077.29359,1.3414,1.3414,0,0,1,.12685.15511.07928.07928,0,0,1,.02075.0705A.14582.14582,0,0,1,26.05071,35.36848Zm5.52251-6.7446a1.05458,1.05458,0,0,1-.12186.16552.66488.66488,0,0,1-.3181.22259.43693.43693,0,0,1-.34229-.07093,2.49,2.49,0,0,0-.33165-.2407.52542.52542,0,0,0-.19-.03356c-.07032-.00191-.14088-.00246-.2112-.00683a.65816.65816,0,0,1-.34581-.109.99509.99509,0,0,1-.28251-.3258,3.44343,3.44343,0,0,0-.21514-.37906.76131.76131,0,0,0-.14224-.154.77927.77927,0,0,0-.17894-.09624,1.27922,1.27922,0,0,1-.3798-.19384c-.10486-.09255-.189-.20732-.29618-.2971a.30053.30053,0,0,0-.3035-.07943.49772.49772,0,0,0-.15425.1197c-.05135.05339-.09809.11151-.14464.16927-.09224.11459-.1766.23694-.2745.34673a.63335.63335,0,0,1-.32493.21158.89268.89268,0,0,1-.33725-.00161c-.11891-.01853-.238-.04131-.35585-.0665a1.51424,1.51424,0,0,1-.36631-.11835.8575.8575,0,0,1-.31046-.26452,1.40165,1.40165,0,0,1-.18411-.38842,3.29991,3.29991,0,0,1-.10862-.40283,3.2506,3.2506,0,0,1-.06145-.80405,1.37327,1.37327,0,0,1,.2362-.74857,1.97258,1.97258,0,0,1,.30806-.31348,3.28413,3.28413,0,0,1,.3261-.26071.45964.45964,0,0,1,.3439-.08442.50013.50013,0,0,1,.16176.06379c.04778.02876.08713.0686.13436.09791a.13535.13535,0,0,0,.14162.01071.11.11,0,0,0,.02593-.039l.02586-.04285q.02779-.04416.05843-.08658c.08578-.11878.18473-.22734.28159-.33682a1.24545,1.24545,0,0,1,.32087-.281.65669.65669,0,0,1,.38059-.077,1.33434,1.33434,0,0,1,.39107.106,4.32077,4.32077,0,0,1,.39057.18725,1.95749,1.95749,0,0,0,.74352.36305c.07162.00542.14372.00314.2154.00142a.57354.57354,0,0,0,.19827-.03448.56352.56352,0,0,0,.16262-.126.37534.37534,0,0,1,.17062-.09858c-.02967.00628-.01.0021.00943-.002l-.0053.00043.02857-.00523-.02272.0048c.09372-.01084.14544.09643.16564.17641a1.08085,1.08085,0,0,1,.02678.22765q.00435.11821.00616.23663c.00117.07124.00086.14267.00468.21385a1.80559,1.80559,0,0,0,.02913.21416,4.30327,4.30327,0,0,0,.09051.42512,1.12934,1.12934,0,0,0,.07494.19716.916.916,0,0,0,.12808.17691,2.16179,2.16179,0,0,1,.27493.34027,1.44733,1.44733,0,0,1,.13368.40978c.02888.14292.04975.28756.0697.432.02032.14692.03972.294.06059.44094.02069.14692.03609.29458.05782.44131a.99679.99679,0,0,0,.04249.20222c.02463.06681.05585.131.086.19544a.22692.22692,0,0,1,.027.08657A.16328.16328,0,0,1,31.57322,28.62388Zm-7.06769-11.4872a.53722.53722,0,0,1,.34975-.12315.6251.6251,0,0,1,.3354.042.42681.42681,0,0,1,.17014.31643,1.33907,1.33907,0,0,0,.03479.19772c.00745.022.06028.03411.08189.03479a.08354.08354,0,0,0,.06306-.02906.34265.34265,0,0,0,.06557-.17666A.72172.72172,0,0,0,25.61,17.213a.70422.70422,0,0,0-.04162-.18066,1.05505,1.05505,0,0,1-.06263-.17955.21729.21729,0,0,1,.03178-.167.27518.27518,0,0,1,.14587-.12667.45347.45347,0,0,1,.17063.00271.09162.09162,0,0,0,.07666-.0141c.01958-.01638.01342-.04242.01539-.06551a.28372.28372,0,0,1,.07913-.15326c.04661-.05573.08688-.11583.12869-.17494.042-.0593.08509-.11792.13128-.174q.036-.04379.07475-.08535l.01829-.019-.01755-.01823a.3989.3989,0,0,0-.03886-.03319l.01324.01164c-.04686-.03331-.09489-.06472-.14174-.098A.4451.4451,0,0,1,26.099,15.664c-.02851-.0354-.01484-.07247.00487-.10868a.833.833,0,0,1,.076-.12383.33241.33241,0,0,1,.16829-.11551c.0636-.01847.13392-.0189.19581-.0428.06-.02309.0511-.11114.04938-.16323a.779.779,0,0,0-.03251-.20332c-.02-.06423-.05049-.12463-.07488-.18732a.98282.98282,0,0,1-.05264-.17413.28445.28445,0,0,1,.09316-.30566.27605.27605,0,0,1,.30424.03288c.04686.02931.09089.06281.1367.09347a.60806.60806,0,0,0,.08965.05443c.01287.00567.05173-.05424.06-.06459a1.41025,1.41025,0,0,0,.12451-.17327.5371.5371,0,0,0,.06293-.18424.25884.25884,0,0,0,.003-.09408.28231.28231,0,0,0-.03762-.08332,1.25189,1.25189,0,0,1-.09378-.18645,1.31277,1.31277,0,0,1-.07038-.40855,2.53563,2.53563,0,0,1,.01712-.41742,1.816,1.816,0,0,1,.05209-.28066,11.65421,11.65421,0,0,1,6.12417,3.73535,11.81717,11.81717,0,0,1,1.08446,1.4727c-.00375.03214-.00849.06422-.01477.09587a.54388.54388,0,0,1-.18455.332.25333.25333,0,0,0-.1019.11428c-.01811.064.03122.11545.07087.159.0984.10776.21718.19562.30794.31089a.54471.54471,0,0,1,.13793.28971c.00474.1255-.10068.22075-.17666.30727a2.06465,2.06465,0,0,0,.23226.11237.8276.8276,0,0,1,.17629.10967c.02272.01853.0572.039.06546.06884a.06987.06987,0,0,1-.01632.06256.07722.07722,0,0,1-.07365.02075c-.03208-.00333-.06348-.00911-.09575-.01164-.07395-.00572-.14808-.00782-.22234-.00936-.14384-.00289-.28768-.00726-.431-.02223A.5727.5727,0,0,1,33.874,19.631a.63652.63652,0,0,1-.16515-.1178l.01324.0117a.298.298,0,0,0-.092-.06163,1.90405,1.90405,0,0,0-.26213-.05277.82868.82868,0,0,1-.12992-.03553c-.02-.00751-.03972-.01564-.059-.02488-.01109-.00523-.02439-.01822-.03584-.00868a2.69536,2.69536,0,0,0-.4067.39747.68876.68876,0,0,0-.15807.34026.63816.63816,0,0,0,.13054.36515c.07309.12364.15554.24168.22432.36791.02217.0407.06656.10757.0335.15265a.24494.24494,0,0,1-.11878.0681.6421.6421,0,0,1-.3524-.005,1.38063,1.38063,0,0,1-.36847-.15018,1.58131,1.58131,0,0,1-.1769-.1173c-.05714-.04378-.11084-.092-.16835-.13528a.61488.61488,0,0,0-.16822-.09428.60272.60272,0,0,0-.19156-.02518,1.83735,1.83735,0,0,0-.41428.04766,1.88077,1.88077,0,0,0-.3923.15264,2.32062,2.32062,0,0,1-.395.15216c-.07062.01878-.14205.03423-.21305.05178a.7346.7346,0,0,0-.193.06952l.01453-.00954-.0146.00954a.44444.44444,0,0,0-.06465.04932,1.3312,1.3312,0,0,0,.36046.135.29622.29622,0,0,0,.17266-.0122,1.58808,1.58808,0,0,0,.1548-.0806.40522.40522,0,0,1,.17056-.059.21264.21264,0,0,1,.152.04717.30353.30353,0,0,1,.087.15929.29535.29535,0,0,1-.01964.1657,1.94683,1.94683,0,0,1-.203.3439c-.07524.1202-.12924.25246-.21.36945a.55062.55062,0,0,1-.31841.24089.573.573,0,0,1-.34377-.03978c-.26127-.10234-.48152-.28553-.74636-.3793-.06619-.0234-.13362-.04335-.20067-.06386a1.067,1.067,0,0,1-.191-.07007.50771.50771,0,0,1-.24045-.31681.74434.74434,0,0,1-.00123-.37351,3.65708,3.65708,0,0,1,.11761-.35.69756.69756,0,0,0,.05148-.34919.55153.55153,0,0,0-.19637-.31367.37015.37015,0,0,0-.16083-.08232c-.06139-.01392-.12525-.01687-.18738-.027a.49569.49569,0,0,1-.33817-.17636.19008.19008,0,0,1-.02562-.1511c.0069-.03492.01866-.06847.02624-.10333a.564.564,0,0,0,.01-.095.83535.83535,0,0,0-.01465-.2011.2297.2297,0,0,0-.099-.15979.29663.29663,0,0,0-.17481-.02826,1.52039,1.52039,0,0,0-.20283.03559c-.06681.01564-.13312.0338-.19981.05018a.83263.83263,0,0,1-.20234.03184.641.641,0,0,1-.36249-.14384c-.0561-.04046-.11047-.08313-.168-.12174-.05942-.03978-.12093-.07641-.18355-.11114-.12722-.07063-.25887-.13331-.38522-.2056a1.77044,1.77044,0,0,1-.348-.25689,4.1363,4.1363,0,0,1-.29858-.33294,3.20422,3.20422,0,0,0-.29113-.32167c-.02783-.02519-.05678-.0492-.08695-.07168a.44206.44206,0,0,1-.08023-.05886c-.00905-.011-.00825-.01256-.02291-.01564l-.02216-.00536a.21569.21569,0,0,1-.045-.01712.156.156,0,0,1-.06336-.05985A.25891.25891,0,0,1,24.50553,17.13668Z"/><path d="M24.36834,8.112a2.70777,2.70777,0,0,0,.85282-.14914,2.72923,2.72923,0,1,0,4.5777-2.88413,2.71835,2.71835,0,0,0,.043-.42641A2.73209,2.73209,0,0,0,25.1341,2.76061a2.70649,2.70649,0,0,0-.76576-.1221,2.73675,2.73675,0,0,0,0,5.4735Z"/><path d="M41.73058,36.11989a3.6821,3.6821,0,0,0-5.14678.7918,3.64132,3.64132,0,0,0-.51674,1.04394,3.67207,3.67207,0,1,0-.51293,7.26153,3.66856,3.66856,0,0,0,6.22663-3.21682,3.64315,3.64315,0,0,0,.74174-.73373A3.68213,3.68213,0,0,0,41.73058,36.11989Z"/><path d="M6.80291,22.46277A1.65789,1.65789,0,1,0,5.145,20.80485,1.65789,1.65789,0,0,0,6.80291,22.46277Z"/><circle cx="7.57236" cy="26.96695" r="2.87699"/><path d="M41.997,25.83082a3.19278,3.19278,0,1,0,3.19275,3.19275A3.1928,3.1928,0,0,0,41.997,25.83082Z"/><path d="M41.11088,16.4535a1.07471,1.07471,0,1,0-1.07474,1.07474A1.07473,1.07473,0,0,0,41.11088,16.4535Z"/><path d="M43.07163,19.33074a2.1181,2.1181,0,1,0,2.11807,2.11813A2.11808,2.11808,0,0,0,43.07163,19.33074Z"/><path d="M25.63064,39.15629a2.11811,2.11811,0,1,0,2.11813,2.11814A2.11813,2.11813,0,0,0,25.63064,39.15629Z"/><path d="M8.47364,16.4535A3.76837,3.76837,0,0,0,12.242,12.68515c0-.0601-.0149-.116-.01767-.17537A3.7551,3.7551,0,1,0,13.40066,5.127,3.75253,3.75253,0,0,0,7.75124,3.29213a5.20222,5.20222,0,0,0-2.4903-.65362,5.247,5.247,0,0,0-.513,10.47022A3.7556,3.7556,0,0,0,8.47364,16.4535Z"/><path d="M45.09093,4.31976a3.80289,3.80289,0,0,0-7.08037-.94771A4.15736,4.15736,0,0,0,38.39,11.67039c.05314,0,.10252-.01367.15517-.01564a3.12063,3.12063,0,0,0,5.125.77049c.05486.00215.10628.01632.16164.01632a4.15674,4.15674,0,0,0,1.25915-8.1218Z"/><path d="M16.65732,37.81746c.00443-.06373.01909-.12438.01909-.18922A2.73243,2.73243,0,0,0,11.7125,36.047a3.77674,3.77674,0,0,0-2.99681-1.48815A3.81755,3.81755,0,0,0,4.99377,37.5416a4.15674,4.15674,0,0,0,1.25915,8.1218c.05536,0,.10677-.01416.16164-.01632a3.10763,3.10763,0,0,0,4.58533.01219,2.71255,2.71255,0,0,0,4.7027-.92264,3.54455,3.54455,0,0,0,.95473-6.91917Z"/><text x="0" y="63" fill="#000000" font-size="5px" font-weight="bold" font-family="'Helvetica Neue', Helvetica, Arial-Unicode, Arial, Sans-serif">Created by tulpahn</text><text x="0" y="68" fill="#000000" font-size="5px" font-weight="bold" font-family="'Helvetica Neue', Helvetica, Arial-Unicode, Arial, Sans-serif">from the Noun Project</text></svg>