<svg width="138" height="138" viewBox="0 0 138 138" fill="none" xmlns="http://www.w3.org/2000/svg">
<circle cx="69" cy="69" r="69" fill="#38B858"/>
<circle cx="69" cy="69" r="68.5" stroke="#5171B4" stroke-opacity="0.11"/>
<path d="M90.8086 89.3525C88.8333 92.182 86.0706 94.304 82.5205 95.7188C78.9971 97.1068 74.8864 97.8008 70.1885 97.8008C65.4372 97.8008 61.2197 96.693 57.5361 94.4775C53.8525 92.2354 50.9964 89.0589 48.9678 84.9482C46.9658 80.8376 45.9382 76.0729 45.8848 70.6543V65.5693C45.8848 56.7874 47.9268 49.9808 52.0107 45.1494C56.1214 40.318 61.887 37.9023 69.3076 37.9023C75.3936 37.9023 80.2917 39.4639 84.002 42.5869C87.7122 45.6833 89.9811 50.0876 90.8086 55.7998H83.1211C81.6797 48.0856 77.0885 44.2285 69.3477 44.2285C64.196 44.2285 60.2855 46.0436 57.6162 49.6738C54.9736 53.2773 53.639 58.5091 53.6123 65.3691V70.1338C53.6123 76.6735 55.1071 81.8786 58.0967 85.749C61.0863 89.5928 65.1302 91.5146 70.2285 91.5146C73.1113 91.5146 75.6338 91.1943 77.7959 90.5537C79.958 89.9131 81.7464 88.832 83.1611 87.3105V74.2178H69.668V67.9717H90.8086V89.3525Z" fill="white"/>
</svg>
