<svg xmlns="http://www.w3.org/2000/svg" xmlns:xlink="http://www.w3.org/1999/xlink" version="1.1" x="0px" y="0px" viewBox="0 0 100 125" enable-background="new 0 0 100 100" xml:space="preserve"><g><path d="M87.678,23.121C78.279,4.51,58.586,2.5,50.557,2.5L50,2.504L49.443,2.5c-8.031,0-27.723,2.01-37.121,20.621   c-3.945,7.812-3.674,22.48-1.162,31.593c2.047,7.42,1.914,7.755,1.414,9.001c-0.137,0.344-0.295,0.741-0.457,1.282   c-0.377,1.271-0.771,7.993,0.344,11.853c0.82,2.836,1.592,5.515,5.789,5.515c0.686,0,1.451-0.067,2.344-0.204   c0.748-0.115,1.496-0.251,2.238-0.385c1.736-0.315,3.379-0.612,4.807-0.612c2.359,0,3.576,0.801,4.199,2.762   c0.676,2.13,0.529,3.589,0.424,4.654c-0.059,0.589-0.121,1.243,0.078,1.811c-0.063,0.291-0.135,0.7-0.182,1.205   c-0.035,0.44-0.064,1.109,0.088,1.792c0.188,0.978,0.783,1.756,1.586,2.078c0.439,0.182,0.885,0.271,1.307,0.271   c0.455,0,0.885-0.104,1.258-0.314c0.01-0.006,0.016-0.012,0.025-0.018c0.064,0.125,0.135,0.25,0.217,0.372   c0.422,0.624,1.131,0.946,2.109,0.958c0.014,0,0.029,0,0.045,0c0.439,0,0.844-0.049,1.17-0.09l0.211-0.025   c0.346-0.05,0.631-0.074,0.828-0.089c0.639,0.555,1.445,0.643,1.992,0.694l0.109,0.01c0.254,0.016,0.498,0.022,0.734,0.022   c0.297,0,0.58-0.011,0.855-0.022c0.844-0.049,1.408-0.068,1.412-0.069l-0.002-0.056c0.111,0.058,0.223,0.112,0.35,0.161   c0.529,0.168,1.059,0.229,1.566,0.229c0.795,0,1.537-0.152,2.139-0.275l1.51-0.326c0.205-0.044,0.332-0.063,0.352-0.064   l-0.004-0.038c0.441,0.204,0.93,0.321,1.471,0.321c0.254,0,0.516-0.022,0.787-0.067c0.555-0.085,1.045-0.216,1.477-0.331   l0.207-0.056c0.73-0.206,1.242-0.292,1.357-0.312c0.068,0.006,0.137,0.021,0.203,0.021c0.1,0,0.197-0.006,0.291-0.018   c0.537-0.045,1.014-0.144,1.432-0.231l0.188-0.039c0.412-0.087,0.758-0.153,0.979-0.187c0.078-0.009,0.135-0.015,0.186-0.02   c0.295,0.086,0.605,0.145,0.924,0.145c0.031,0,0.061,0,0.09-0.001c0.555-0.008,1.127-0.137,1.654-0.447   c0.162-0.104,0.309-0.235,0.445-0.382c0.004,0.004,0.006,0.009,0.01,0.012c0.396,0.35,0.91,0.528,1.482,0.528   c0.379,0,0.783-0.078,1.197-0.233c0.834-0.316,1.469-1.11,1.652-2.044c0.166-0.721,0.137-1.396,0.102-1.849   c-0.088-0.986-0.281-1.63-0.303-1.7l-0.115,0.036l-0.258-2.06c0.041-1.065,0.16-2.286,0.689-3.959   c0.623-1.961,1.84-2.762,4.199-2.762c1.428,0,3.07,0.297,4.807,0.612c0.742,0.134,1.49,0.27,2.238,0.385   c0.893,0.137,1.66,0.204,2.344,0.204c4.195-0.001,4.969-2.679,5.789-5.515c1.104-3.826,1.248-10.98,0.912-12.302   c-0.162-0.64-0.402-1.058-0.594-1.393c-0.447-0.78-0.908-1.589,0.982-8.441C91.352,45.602,91.623,30.933,87.678,23.121z    M35.777,93.082c-0.094,0.356-0.215,0.573-0.35,0.654c-0.174,0.096-0.518,0.068-0.863-0.073c-0.213-0.085-0.359-0.385-0.414-0.67   c-0.098-0.448-0.08-0.899-0.053-1.232c0.002-0.022,0.006-0.039,0.008-0.062c0.143,0.031,0.295,0.057,0.459,0.078l1.023,0.134   c0.102,0.013,0.18,0.023,0.27,0.035c-0.012,0.194-0.023,0.408-0.021,0.657c0,0.037,0.002,0.082,0.004,0.123   C35.824,92.843,35.809,92.958,35.777,93.082z M39.926,94.689l-0.201,0.025c-0.313,0.038-0.674,0.06-0.957,0.074   c-0.377-0.004-0.506-0.084-0.516-0.1c-0.361-0.539-0.438-1.244-0.463-1.886c0.021-0.196,0.031-0.38,0.035-0.536   c0-0.083,0-0.157,0-0.222c0.297-0.039,0.574-0.103,0.863-0.208c0.301-0.109,1.119-0.225,2.055-0.228   c-0.033,0.236-0.08,0.537-0.141,0.905c-0.072,0.444-0.143,0.967-0.195,1.604l-0.01,0.262c-0.002,0.077-0.004,0.166-0.006,0.251   C40.246,94.648,40.094,94.666,39.926,94.689z M44.594,95.292c-0.422,0.02-0.881,0.032-1.42-0.005   c-0.293-0.026-0.619-0.057-0.809-0.152c-0.045-0.17-0.033-0.435-0.023-0.674c0.004-0.11,0.008-0.219,0.004-0.247   c0.047-0.511,0.111-0.987,0.174-1.387c0.061-0.354,0.104-0.642,0.139-0.881c0.547,0.188,1.291,0.396,1.996,0.508   c-0.01,0.213-0.021,0.454-0.033,0.723c-0.018,0.54-0.029,1.172,0.082,1.881c0.014,0.07,0.029,0.147,0.047,0.226   C44.695,95.286,44.65,95.288,44.594,95.292z M49.77,95.319c-0.822,0.168-1.846,0.379-2.666,0.12   c-0.154-0.063-0.277-0.143-0.316-0.198c-0.09-0.141-0.137-0.356-0.164-0.507c-0.082-0.52-0.074-1.022-0.059-1.479   c0.018-0.385,0.031-0.718,0.043-0.984c0.078-0.043,0.172-0.069,0.238-0.125c0.406-0.344,1.396-0.929,2.238-0.456   c0.377,0.213,0.719,0.383,1.049,0.516c-0.004,0.191-0.012,0.403-0.037,0.66c-0.037,0.511-0.088,1.211,0.184,1.973   c0.047,0.119,0.107,0.226,0.16,0.336L49.77,95.319z M53.969,95.13c-0.344,0.054-0.828,0.082-1.189-0.106   c-0.273-0.145-0.523-0.468-0.676-0.861c-0.125-0.354-0.096-0.762-0.068-1.164c0.021-0.208,0.031-0.398,0.039-0.579   c0.525-0.104,1.1-0.331,1.797-0.73c0.367-0.21,0.719-0.374,1.059-0.518c-0.004,0.086-0.008,0.159-0.012,0.251l-0.006,0.316   c-0.023,0.845-0.031,1.979,0.414,3.082l-0.076,0.02C54.863,94.942,54.428,95.059,53.969,95.13z M57.611,94.421   c-0.1,0.011-0.199,0.003-0.289-0.025c-0.07-0.05-0.125-0.11-0.156-0.17c-0.354-0.75-0.33-1.686-0.311-2.438l0.006-0.301   c0.016-0.276,0.027-0.521,0.037-0.731c0.393,0.048,0.6,0.2,0.717,0.326c0.379,0.403,0.801,0.617,1.254,0.653v1.303   c-0.006,0.313-0.012,0.666,0.053,1.005c0.008,0.054,0.029,0.102,0.039,0.154l-0.119,0.024   C58.461,94.301,58.066,94.382,57.611,94.421z M62.244,93.917c-0.184,0.108-0.424,0.167-0.643,0.16   c-0.256,0.016-0.49-0.036-0.656-0.126c-0.037-0.02-0.084-0.09-0.104-0.221c-0.037-0.191-0.033-0.418-0.027-0.657l0.002-2.229   c0.363-0.294,0.717-0.551,1.111-0.569c0.303-0.015,0.553-0.023,0.57-0.01c0.098,0.052,0.213,0.106,0.367,0.168   c-0.037,0.285-0.063,0.638-0.084,1.034c-0.008,0.068-0.027,0.226-0.043,0.462c-0.006,0.09-0.006,0.208-0.01,0.314   c-0.029,0.431-0.07,0.864-0.217,1.256C62.422,93.717,62.318,93.868,62.244,93.917z M66.145,93.052   c-0.047,0.241-0.205,0.54-0.438,0.629c-0.381,0.142-0.654,0.111-0.699,0.071c-0.205-0.182-0.275-0.542-0.309-0.788   c-0.021-0.178-0.031-0.343-0.033-0.494c0.01-0.126,0.02-0.25,0.027-0.365l0.016-0.274c0.018-0.319,0.033-0.591,0.055-0.838   c0.494,0.135,0.961,0.235,1.381,0.243c0.025,0.159,0.047,0.338,0.064,0.533C66.236,92.113,66.254,92.567,66.145,93.052z    M86.965,54.197c-2.004,7.264-1.609,8.503-0.795,9.924c0.16,0.281,0.299,0.523,0.396,0.907c0.24,0.944,0.113,7.786-0.896,11.281   c-0.896,3.105-1.398,4.108-3.92,4.109c-0.584,0-1.256-0.06-2.049-0.181c-0.729-0.112-1.461-0.245-2.188-0.376   c-1.824-0.332-3.549-0.645-5.152-0.645c-3.193,0-5.174,1.348-6.053,4.118c-0.615,1.941-0.742,3.393-0.783,4.557l-0.002,0.078   l0.156,1.248c-0.303-0.068-0.66-0.172-0.988-0.269c-0.238-0.069-0.479-0.139-0.709-0.2c-0.373-0.1-0.496-0.163-0.598-0.215   c-0.289-0.147-0.514-0.219-1-0.219c-0.137,0-0.313,0.006-0.547,0.016c-1.08,0.051-1.83,0.659-2.375,1.104   c-0.135,0.108-0.322,0.262-0.412,0.332c-0.004-0.004-0.008-0.009-0.014-0.015c-0.59-0.63-1.408-0.964-2.369-0.964   c-1.357,0-2.795,0.658-3.762,1.211c-0.654,0.374-1.102,0.541-1.451,0.541c-0.332,0-0.701-0.143-1.416-0.546   c-0.533-0.3-1.1-0.452-1.688-0.452c-1.18,0-2.148,0.62-2.67,1.041c-0.029,0.004-0.076,0.007-0.139,0.007   c-0.762,0-2.154-0.412-2.66-0.638c-0.434-0.191-1.139-0.289-2.094-0.289c-0.879,0-2.066,0.091-2.764,0.346   c-0.295,0.106-0.436,0.136-0.652,0.136c-0.303,0-0.764-0.061-1.527-0.162l-1.035-0.136c-0.475-0.06-0.633-0.144-0.654-0.131   c-0.039-0.144,0.004-0.587,0.041-0.944c0.115-1.165,0.291-2.924-0.506-5.437c-0.881-2.771-2.859-4.118-6.053-4.118   c-1.604,0-3.328,0.313-5.154,0.644c-0.725,0.132-1.457,0.265-2.186,0.377c-0.793,0.121-1.463,0.181-2.049,0.181   c-2.521,0-3.023-1.003-3.92-4.109c-0.982-3.404-0.631-9.806-0.348-10.758c0.141-0.472,0.277-0.816,0.398-1.114   c0.723-1.808,0.801-2.461-1.346-10.24c-2.428-8.801-2.596-23.035,1.021-30.198C22.461,7.357,39.658,4.714,48.025,4.467l0.004,0.065   h3.941l0.004-0.065c8.367,0.247,25.564,2.891,33.967,19.532C89.561,31.162,89.393,45.396,86.965,54.197z"/><path d="M50.096,61.285c-0.318,0.002-3.398-0.549-4.873,6.599c-1.475,7.146-4.324,14.358,2.885,13.814   c0.578-0.043,1.156-1.458,1.893-1.345h0.189c0.738-0.113,1.059,1.336,1.582,1.381c8.699,0.781,4.672-6.705,3.197-13.851   C53.494,60.736,50.533,61.285,50.096,61.285z"/><path d="M34.162,46.528c-9.143,0.086-10.111,0.794-12.457,4.033c-2.641,3.643-3.543,16.488,7.885,15.694   c11.428-0.792,13.854-4.226,14.068-7.749C43.658,58.507,43.305,46.439,34.162,46.528z"/><path d="M66.018,46.436c-9.227-0.091-9.586,12.09-9.586,12.09c0.219,3.558,2.666,7.024,14.201,7.824   c11.537,0.802,10.818-12.349,7.838-15.866C76.223,47.83,75.248,46.523,66.018,46.436z"/><path d="M20.561,46.494l0.266-0.64c0.324-0.862,0.559-1.755,0.711-2.64c0.102-0.438,0.129-0.883,0.166-1.318   c0.049-0.437,0.045-0.866,0.053-1.289c0.02-0.844-0.061-1.655-0.164-2.413c-0.09-0.76-0.242-1.468-0.41-2.108   c-0.15-0.646-0.346-1.223-0.527-1.726c-0.174-0.508-0.365-0.935-0.521-1.284c-0.32-0.698-0.553-1.07-0.553-1.07   s0.33,1.726,0.504,4.256c0.043,0.631,0.061,1.316,0.064,2.033c0.006,0.717-0.037,1.469-0.1,2.236   c-0.057,0.77-0.193,1.552-0.354,2.332c-0.154,0.781-0.383,1.558-0.684,2.296l-0.217,0.559l-0.246,0.605   c-0.164,0.396-0.326,0.791-0.488,1.182c-0.352,0.758-0.578,1.619-0.84,2.409c-0.285,0.789-0.395,1.595-0.572,2.333   c-0.127,0.756-0.223,1.474-0.252,2.144c-0.027,0.671-0.035,1.282,0.037,1.825c0.025,0.541,0.141,1.007,0.225,1.383   c0.063,0.38,0.207,0.661,0.264,0.855c0.068,0.193,0.104,0.296,0.104,0.296s0-0.109,0-0.314c0.008-0.206-0.018-0.5,0.018-0.875   c0.023-0.374,0.049-0.821,0.135-1.33c0.053-0.509,0.199-1.072,0.324-1.685c0.145-0.608,0.359-1.259,0.555-1.945   c0.262-0.674,0.471-1.405,0.781-2.119c0.293-0.726,0.586-1.452,0.947-2.235c0.174-0.387,0.348-0.777,0.521-1.169L20.561,46.494z"/><path d="M84.387,52.248c-0.178-0.739-0.287-1.544-0.572-2.333c-0.264-0.79-0.49-1.652-0.84-2.41   c-0.162-0.391-0.326-0.784-0.49-1.182l-0.244-0.605l-0.217-0.559c-0.301-0.738-0.529-1.514-0.684-2.296   c-0.16-0.779-0.299-1.562-0.354-2.331c-0.063-0.768-0.107-1.52-0.102-2.237c0.004-0.716,0.021-1.402,0.064-2.032   c0.176-2.53,0.506-4.257,0.506-4.257s-0.232,0.372-0.555,1.07c-0.156,0.351-0.348,0.777-0.52,1.285   c-0.184,0.503-0.377,1.08-0.527,1.725c-0.168,0.642-0.322,1.349-0.412,2.108c-0.104,0.758-0.182,1.57-0.162,2.414   c0.006,0.422,0.004,0.853,0.053,1.288c0.035,0.437,0.063,0.881,0.164,1.319c0.152,0.884,0.389,1.776,0.711,2.639l0.266,0.64   l0.254,0.584c0.176,0.391,0.35,0.782,0.521,1.168c0.363,0.784,0.656,1.51,0.949,2.235c0.311,0.714,0.518,1.445,0.779,2.12   c0.197,0.686,0.41,1.337,0.557,1.944c0.125,0.612,0.271,1.176,0.324,1.686c0.084,0.509,0.111,0.955,0.133,1.329   c0.037,0.376,0.012,0.669,0.018,0.876c0,0.205,0,0.313,0,0.313s0.035-0.103,0.104-0.295c0.057-0.195,0.201-0.477,0.266-0.856   c0.082-0.376,0.197-0.842,0.223-1.383c0.074-0.543,0.064-1.153,0.039-1.825C84.609,53.722,84.514,53.004,84.387,52.248z"/><path d="M49.145,38.653c0.07,1.453,0.174,2.81,0.299,3.972C49.674,44.95,50,46.5,50,46.5s0.324-1.55,0.555-3.875   c0.125-1.162,0.229-2.519,0.299-3.972c0.025-0.726,0.08-1.478,0.084-2.239c0.012-0.764,0.023-1.538,0.035-2.313   c-0.012-0.773-0.023-1.549-0.033-2.312c-0.002-0.764-0.059-1.514-0.084-2.24c-0.068-1.453-0.172-2.81-0.297-3.972   C50.326,23.252,50,21.702,50,21.702s-0.328,1.55-0.559,3.875c-0.125,1.162-0.23,2.519-0.299,3.972   c-0.025,0.727-0.082,1.477-0.082,2.24c-0.012,0.763-0.021,1.538-0.033,2.312c0.012,0.775,0.021,1.55,0.033,2.313   C49.064,37.176,49.119,37.928,49.145,38.653z"/></g><text x="0" y="115" fill="#000000" font-size="5px" font-weight="bold" font-family="'Helvetica Neue', Helvetica, Arial-Unicode, Arial, Sans-serif">Created by Liliane Lass Erbe</text><text x="0" y="120" fill="#000000" font-size="5px" font-weight="bold" font-family="'Helvetica Neue', Helvetica, Arial-Unicode, Arial, Sans-serif">from the Noun Project</text></svg>