<svg xmlns="http://www.w3.org/2000/svg" data-name="Layer 1" viewBox="0 0 100 125" x="0px" y="0px"><title>11</title><path d="M49.37085,66.70233c-7.06836-.28009-13.7287-7.4671-3.21472-21.96155C43.24567,57.05829,43.71149,62.44952,49.37085,66.70233ZM30.40424,69.13477a2,2,0,0,0-2-2H18.24469a3.20215,3.20215,0,1,1,0-6.4043H20V43.26953h8.40424a2,2,0,0,0,0-4H18.24469a3.20215,3.20215,0,1,1,0-6.4043H20V15.4043h8.40424a2,2,0,0,0,0-4H18.24469a3.20215,3.20215,0,1,1,0-6.4043H81.75531a3.20215,3.20215,0,1,1,0,6.4043H80V32.86523h1.75531a3.20215,3.20215,0,0,1,0,6.4043H80V60.73047h1.75531a3.20215,3.20215,0,0,1,0,6.4043H80V88.5957h1.75531a3.20215,3.20215,0,0,1,0,6.4043H18.24469a3.20215,3.20215,0,1,1,0-6.4043H20V71.13477h8.40424A2,2,0,0,0,30.40424,69.13477Zm5.85553-12.38416c0,8.76624,7.05249,15.75549,15.37017,14.72327,6.96857-.86536,12.24475-7.44068,12.10761-15.00733-.185-10.23474-10.34808-15.69751-13.381-27.7428a.362.362,0,0,0-.71289,0C46.582,40.87976,36.25977,46.33093,36.25977,56.75061Z"/><text x="0" y="115" fill="#000000" font-size="5px" font-weight="bold" font-family="'Helvetica Neue', Helvetica, Arial-Unicode, Arial, Sans-serif">Created by TTHNga</text><text x="0" y="120" fill="#000000" font-size="5px" font-weight="bold" font-family="'Helvetica Neue', Helvetica, Arial-Unicode, Arial, Sans-serif">from the Noun Project</text></svg>