<svg width="100" height="125" viewBox="0 0 100 125" fill="none" xmlns="http://www.w3.org/2000/svg">
<path d="M49.3708 66.7023C42.3024 66.4222 35.6421 59.2352 46.1561 44.7408C43.2456 57.0583 43.7114 62.4495 49.3708 66.7023ZM30.4042 69.1348C30.4042 68.6043 30.1935 68.0956 29.8184 67.7206C29.4433 67.3455 28.9346 67.1348 28.4042 67.1348H18.2446C17.3954 67.1348 16.5809 66.7974 15.9804 66.1969C15.3798 65.5964 15.0425 64.7819 15.0425 63.9326C15.0425 63.0834 15.3798 62.2689 15.9804 61.6684C16.5809 61.0678 17.3954 60.7305 18.2446 60.7305H19.9999V43.2695H28.4042C28.9346 43.2695 29.4433 43.0588 29.8184 42.6837C30.1935 42.3087 30.4042 41.8 30.4042 41.2695C30.4042 40.7391 30.1935 40.2304 29.8184 39.8553C29.4433 39.4802 28.9346 39.2695 28.4042 39.2695H18.2446C17.3954 39.2695 16.5809 38.9322 15.9804 38.3316C15.3798 37.7311 15.0425 36.9166 15.0425 36.0674C15.0425 35.2181 15.3798 34.4036 15.9804 33.8031C16.5809 33.2026 17.3954 32.8652 18.2446 32.8652H19.9999V15.4043H28.4042C28.9346 15.4043 29.4433 15.1936 29.8184 14.8185C30.1935 14.4434 30.4042 13.9347 30.4042 13.4043C30.4042 12.8739 30.1935 12.3652 29.8184 11.9901C29.4433 11.615 28.9346 11.4043 28.4042 11.4043H18.2446C17.3954 11.4043 16.5809 11.0669 15.9804 10.4664C15.3798 9.86589 15.0425 9.05141 15.0425 8.20215C15.0425 7.35289 15.3798 6.53841 15.9804 5.93789C16.5809 5.33737 17.3954 5 18.2446 5H81.7552C82.6045 5 83.419 5.33737 84.0195 5.93789C84.62 6.53841 84.9574 7.35289 84.9574 8.20215C84.9574 9.05141 84.62 9.86589 84.0195 10.4664C83.419 11.0669 82.6045 11.4043 81.7552 11.4043H79.9999V32.8652H81.7552C82.6045 32.8652 83.419 33.2026 84.0195 33.8031C84.62 34.4036 84.9574 35.2181 84.9574 36.0674C84.9574 36.9166 84.62 37.7311 84.0195 38.3316C83.419 38.9322 82.6045 39.2695 81.7552 39.2695H79.9999V60.7305H81.7552C82.6045 60.7305 83.419 61.0678 84.0195 61.6684C84.62 62.2689 84.9574 63.0834 84.9574 63.9326C84.9574 64.7819 84.62 65.5964 84.0195 66.1969C83.419 66.7974 82.6045 67.1348 81.7552 67.1348H79.9999V88.5957H81.7552C82.6045 88.5957 83.419 88.9331 84.0195 89.5336C84.62 90.1341 84.9574 90.9486 84.9574 91.7979C84.9574 92.6471 84.62 93.4616 84.0195 94.0621C83.419 94.6626 82.6045 95 81.7552 95H18.2446C17.3954 95 16.5809 94.6626 15.9804 94.0621C15.3798 93.4616 15.0425 92.6471 15.0425 91.7979C15.0425 90.9486 15.3798 90.1341 15.9804 89.5336C16.5809 88.9331 17.3954 88.5957 18.2446 88.5957H19.9999V71.1348H28.4042C28.9346 71.1348 29.4433 70.9241 29.8184 70.549C30.1935 70.1739 30.4042 69.6652 30.4042 69.1348ZM36.2597 56.7506C36.2597 65.5169 43.3122 72.5061 51.6299 71.4739C58.5985 70.6085 63.8746 64.0332 63.7375 56.4665C63.5525 46.2318 53.3894 40.769 50.3565 28.7237C50.3416 28.64 50.2978 28.5642 50.2326 28.5095C50.1674 28.4549 50.0851 28.4249 50 28.4249C49.915 28.4249 49.8327 28.4549 49.7675 28.5095C49.7023 28.5642 49.6584 28.64 49.6436 28.7237C46.5819 40.8798 36.2597 46.3309 36.2597 56.7506Z" fill="black"/>
</svg>
