<svg xmlns="http://www.w3.org/2000/svg" xmlns:xlink="http://www.w3.org/1999/xlink" version="1.0" x="0px" y="0px" viewBox="0 0 100 125" enable-background="new 0 0 100 100" xml:space="preserve"><g><g><path d="M23.208313,87.875h16.458374l0.916626-14.5118408c0,0-20.166626-3.1965332-19.916626-3.4465332L23.208313,87.875z"/><circle cx="82.2036743" cy="81.3547363" r="2.0000155"/><circle cx="84.4533081" cy="72.9420471" r="1.9999861"/><circle cx="86.7030029" cy="64.5292358" r="2.0000155"/><circle cx="69.882019" cy="69.0455017" r="1.9999861"/><circle cx="76.0212402" cy="75.2806396" r="2.0000155"/><circle cx="78.2493896" cy="66.9483948" r="1.9999861"/><path d="M36.840332,30.2553711c1.168335,0.8894653,2.5508423,1.4420776,3.9632568,1.8086548    c3.015564,0.7825928,6.3740234,1.2149658,9.1322632-0.5526123c0.0377197-0.0241699,0.0751953-0.048645,0.1124878-0.0734253    c3.3144531-2.203125,3.9907227-6.3095703,4.0175781-6.4833984l0.2050781-1.3100586l-1.2753906-0.3637695    c-0.3657837-0.1043701-0.7385864-0.2113037-1.1140747-0.319397c0.0081177-0.4702148-0.0073853-0.9447021-0.0724487-1.4247437    c-0.6943359-5.1220703-5.4306641-8.7236328-10.5488281-8.0307617c-2.4819336,0.3359375-4.6835938,1.6186523-6.2006836,3.6113281    c-1.5166016,1.9921875-2.1669922,4.4560547-1.8305664,6.9375C33.5649414,26.5366211,34.8476562,28.7382812,36.840332,30.2553711z     M37.1157227,22.737793c0.1567383-0.5292969,0.7119141-0.8276367,1.2421875-0.6767578l12.5629883,3.6928711    c-0.371582,0.9916992-1.0795898,2.3413086-2.3500977,3.1855469c-1.1105347,0.737915-2.8041992,1.2789307-4.1029663,0.7544556    c-0.7411499-0.2992554-1.0442505-0.9024658-1.251709-1.6259766c-0.2452393-0.8555298-0.3804321-1.7414551-0.460083-2.6262817    l-4.963562-1.4616699C37.2626953,23.8237305,36.9599609,23.2675781,37.1157227,22.737793z"/><path d="M63.1621094,66.5073242c-0.149292-0.0137329-7.4197998-0.6916504-15.8387451-1.5125732    c-0.2623901-0.9902344-0.5404053-1.6859741-0.5404053-1.6859741L42,54.3125    c0.5099487-2.0793457,1.5141602-5.217041,1.7943726-7.3381958c0.3067017-2.3217163,0.7088013-4.7045898,0.3605347-7.0465698    c-0.1159668-0.7793579-0.3363647-1.4562378-0.6381836-2.0321045c-2.3148193-4.4163818-7.8746948-2.1113892-9.9080811,1.21521    c-2.175354,3.5588379-2.6132202,8.5177612-2.3948975,12.5805054L31.75,56.333313l5.9775391,7.7095337    c-5.8344116-0.5908203-11.1585083-1.1574707-14.0009766-1.5281982c-1.8969727-0.2475586-3.2617188-0.9697266-4.171875-2.2089844    c-0.9319458-1.2680664-1.2368164-2.8731079-1.3071899-4.1708374L21.5,57.375L30,31.833313    c-2.7177734-1.3470459-6.7271118-2.4615479-9.666687-1.333313c-2.7183228,1.043335-4.1050415,3.2702026-4.9822998,5.9421387    c-1.8080444,5.5067139-3.6160278,11.0133667-5.4240723,16.5200806l4.8193359,1.8375854    c-0.078125,1.8745117,0.1248779,5.0269775,1.9719849,7.5566406c1.4848633,2.0341797,3.6904297,3.2553711,6.5551758,3.6289062    c3.4034424,0.4439087,10.3092041,1.1638794,17.4117432,1.8720703l2.53479,3.2692261c0,0,2.4119873,1.7156372,3.9610596-0.6193237    c0.361145-0.5443115,0.5269165-1.2280273,0.5770264-1.9535522c8.0993652,0.7880859,14.9348145,1.425415,15.079834,1.4389038    C62.8930664,69.9975586,62.9477539,70,63.0019531,70c0.8935547,0,1.65625-0.6806641,1.7407227-1.5878906    C64.8320312,67.449707,64.1245117,66.597168,63.1621094,66.5073242z M17.125,48.5319824    c0.8452759,0,1.5305176,0.6852417,1.5305176,1.5305176S17.9702759,51.5930176,17.125,51.5930176    s-1.5305176-0.6852417-1.5305176-1.5305176S16.2797241,48.5319824,17.125,48.5319824z"/></g></g><text x="0" y="115" fill="#000000" font-size="5px" font-weight="bold" font-family="'Helvetica Neue', Helvetica, Arial-Unicode, Arial, Sans-serif">Created by Yu luck</text><text x="0" y="120" fill="#000000" font-size="5px" font-weight="bold" font-family="'Helvetica Neue', Helvetica, Arial-Unicode, Arial, Sans-serif">from the Noun Project</text></svg>