<?xml version="1.0"?>
<svg xmlns="http://www.w3.org/2000/svg" xmlns:xlink="http://www.w3.org/1999/xlink" xmlns:svgjs="http://svgjs.com/svgjs" version="1.1" width="512" height="512" x="0" y="0" viewBox="0 0 512.001 512.001" style="enable-background:new 0 0 512 512" xml:space="preserve"><g>
<polygon xmlns="http://www.w3.org/2000/svg" style="" points="403.177,436.835 197.13,436.835 129.849,96.227 466.252,96.227 " fill="#f0ece7" data-original="#f0ece7"/>
<polygon xmlns="http://www.w3.org/2000/svg" style="" points="182.344,188.388 224.774,407.4 375.193,407.4 414.973,188.388 " fill="#f26d1f" data-original="#f26d1f"/>
<polygon xmlns="http://www.w3.org/2000/svg" style="" points="182.344,188.388 224.774,407.4 250.481,407.4 210.95,188.388 " fill="#e3451e" data-original="#e3451e"/>
<path xmlns="http://www.w3.org/2000/svg" style="" d="M397.787,15.109L249.027,269.104c-3.521,6.012,4.997,17.546,19.025,25.761  c14.028,8.216,28.254,10.003,31.775,3.991L448.586,44.86L397.787,15.109z" fill="#7c532a" data-original="#7c532a"/>
<path xmlns="http://www.w3.org/2000/svg" style="" d="M397.787,15.109L249.027,269.104c-2.608,4.454,1.395,11.938,9.348,18.86L413.106,24.081  L397.787,15.109z" fill="#6e4013" data-original="#6e4013"/>
<path xmlns="http://www.w3.org/2000/svg" style="" d="M249.027,269.104c-3.521,6.012,4.997,17.546,19.025,25.761c14.028,8.216,28.254,10.003,31.775,3.991  L418.399,96.402h-68.225L249.027,269.104z" fill="#8b6642" data-original="#8b6642"/>
<path xmlns="http://www.w3.org/2000/svg" style="" d="M350.175,96.402L249.027,269.104c-2.608,4.454,1.395,11.938,9.348,18.86L370.699,96.402H350.175z" fill="#7c532a" data-original="#7c532a"/>
<ellipse xmlns="http://www.w3.org/2000/svg" transform="matrix(0.5054 -0.8629 0.8629 0.5054 187.6179 380.0329)" style="" cx="425.311" cy="26.358" rx="12.615" ry="29.436" fill="#d3c6b8" data-original="#d3c6b8"/>
<path xmlns="http://www.w3.org/2000/svg" style="" d="M138.259,504.115c-51.092,0-92.511-41.419-92.511-92.511s41.419-92.511,92.511-92.511h46.255v185.022  H138.259z" fill="#ff9430" data-original="#ff9430"/>
<path xmlns="http://www.w3.org/2000/svg" style="" d="M58.364,390.579c0-13.003,2.688-25.377,7.53-36.604c-12.606,15.809-20.145,35.837-20.145,57.629  c0,51.092,41.419,92.511,92.511,92.511h46.255V483.09h-33.64C99.781,483.09,58.364,441.672,58.364,390.579z" fill="#f26d1f" data-original="#f26d1f"/>
<circle xmlns="http://www.w3.org/2000/svg" style="" cx="184.517" cy="411.61" r="92.511" fill="#ffe987" data-original="#ffe987"/>
<circle xmlns="http://www.w3.org/2000/svg" style="" cx="184.517" cy="411.61" r="75.691" fill="#fab41e" data-original="#fab41e"/>
<circle xmlns="http://www.w3.org/2000/svg" style="" cx="184.517" cy="411.61" r="29.435" fill="#ffe987" data-original="#ffe987"/>
<path xmlns="http://www.w3.org/2000/svg" d="M472.313,91.185c-1.498-1.801-3.718-2.843-6.062-2.843h-33.996c0,0,24.915-42.538,25.259-43.125  c1.968-3.36,4.143-10.519-3.392-20.723c-4.212-5.705-10.765-11.326-18.451-15.828C416.713-2.436,399.208-2.92,393.108,7.495  c-0.352,0.601-47.35,80.847-47.35,80.847H129.849c-4.888,0-8.684,4.612-7.734,9.412l8.305,42.045  c0.843,4.271,4.992,7.06,9.263,6.207c4.271-0.844,7.051-4.99,6.207-9.263l-6.446-32.633h197.08l-44.741,76.391H182.344  c-4.879,0-8.669,4.591-7.74,9.385l23.688,122.273c-4.506-0.621-9.103-0.949-13.777-0.949h-4.164l-28.647-145.029  c-0.843-4.271-4.988-7.057-9.263-6.207c-4.271,0.844-7.051,4.99-6.207,9.263l28.043,141.974h-26.019  c-55.358,0-100.395,45.037-100.395,100.395s45.037,100.395,100.395,100.395h46.255c43.76,0,81.063-28.144,94.776-67.281h123.886  c3.8,0,7.06-2.711,7.753-6.449l63.076-340.608C474.431,95.36,473.811,92.986,472.313,91.185z M427.704,22.274  c9.497,5.562,14.286,11.67,15.563,14.598c-3.175,0.325-10.846-0.868-20.346-6.433c-9.496-5.562-14.286-11.669-15.563-14.598  C410.533,15.517,418.206,16.714,427.704,22.274z M398.041,30.274c4.038,4.843,9.764,9.585,16.91,13.771  c6.786,3.975,13.901,6.747,20.319,7.951l-21.288,36.347h-49.95L398.041,30.274z M404.746,104.111L293.351,294.314  c-2.278,0.725-10.64,0.001-21.314-6.251c-10.672-6.251-15.4-13.19-15.878-15.531l98.639-168.419h49.949V104.111z M191.903,196.271  h90.644l-40.323,68.848c-1.968,3.36-4.143,10.519,3.392,20.723c4.213,5.705,10.766,11.325,18.452,15.827  c9.844,5.765,19.295,8.668,26.961,8.668c7.099,0,12.669-2.488,15.602-7.497l62.429-106.593c0.159,0.009,0.316,0.024,0.477,0.024  h35.991l-36.915,203.244H284.18c-4.744-39.35-32.338-71.76-69.087-83.538L191.903,196.271z M252.265,462.257l-34.243-34.243  c1.923-3.911,3.183-8.202,3.628-12.731h47.396C268.292,432.848,262.17,449.044,252.265,462.257z M235.168,343.854l-34.243,34.243  c-2.678-1.317-5.536-2.32-8.526-2.966v-47.772C208.34,328.839,223.015,334.745,235.168,343.854z M219.813,399.515  c-1.459-4.247-3.655-8.154-6.449-11.556l33.502-33.503c11.244,12.258,18.921,27.828,21.397,45.058h-48.449V399.515z   M168.105,445.113c2.678,1.317,5.536,2.32,8.526,2.966v47.772c-15.94-1.48-30.617-7.386-42.768-16.495L168.105,445.113z   M184.515,433.155c-11.883,0-21.551-9.667-21.551-21.551c0-11.883,9.667-21.551,21.551-21.551c11.883,0,21.551,9.667,21.551,21.551  C206.066,423.488,196.397,433.155,184.515,433.155z M176.63,327.359v47.772c-5.887,1.271-11.263,3.93-15.762,7.624l-33.502-33.503  C140.614,337.101,157.73,329.114,176.63,327.359z M116.763,360.952l34.243,34.243c-1.317,2.678-2.32,5.536-2.966,8.526h-47.772  C101.748,387.78,107.654,373.104,116.763,360.952z M148.04,419.489c1.271,5.887,3.931,11.262,7.624,15.762l-33.502,33.503  c-12.152-13.248-20.139-30.363-21.895-49.263h47.772V419.489z M192.399,448.079c5.887-1.271,11.263-3.93,15.762-7.624l33.502,33.503  c-13.247,12.153-30.364,20.139-49.263,21.895V448.079z M53.633,411.605c0-43.848,33.523-80.007,76.285-84.211  c-27.545,17.92-45.798,48.972-45.798,84.211s18.253,66.292,45.798,84.211C87.156,491.612,53.633,455.453,53.633,411.605z   M396.618,428.95H283.406c0.78-4.462,1.262-9.025,1.43-13.666h90.359c3.811,0,7.076-2.726,7.757-6.476l39.78-219.013  c0.866-4.768-2.918-9.293-7.757-9.293h-36.693l44.741-76.391h33.753L396.618,428.95z" fill="#000000" data-original="#000000" style=""/>
<path xmlns="http://www.w3.org/2000/svg" d="M331.691,356.413h1.051c4.355,0,7.884-3.529,7.884-7.884s-3.529-7.884-7.884-7.884h-1.051c-4.355,0-7.884,3.529-7.884,7.884  S327.336,356.413,331.691,356.413z" fill="#000000" data-original="#000000" style=""/>
<path xmlns="http://www.w3.org/2000/svg" d="M352.716,289.133h1.051c4.355,0,7.884-3.529,7.884-7.884c0-4.355-3.529-7.884-7.884-7.884h-1.051  c-4.355,0-7.884,3.529-7.884,7.884C344.832,285.604,348.361,289.133,352.716,289.133z" fill="#000000" data-original="#000000" style=""/>
<path xmlns="http://www.w3.org/2000/svg" d="M242.86,230.788c0-4.355-3.529-7.884-7.884-7.884h-1.051c-4.355,0-7.884,3.529-7.884,7.884c0,4.355,3.529,7.884,7.884,7.884  h1.051C239.33,238.672,242.86,235.143,242.86,230.788z" fill="#000000" data-original="#000000" style=""/>
<g xmlns="http://www.w3.org/2000/svg">
</g>
<g xmlns="http://www.w3.org/2000/svg">
</g>
<g xmlns="http://www.w3.org/2000/svg">
</g>
<g xmlns="http://www.w3.org/2000/svg">
</g>
<g xmlns="http://www.w3.org/2000/svg">
</g>
<g xmlns="http://www.w3.org/2000/svg">
</g>
<g xmlns="http://www.w3.org/2000/svg">
</g>
<g xmlns="http://www.w3.org/2000/svg">
</g>
<g xmlns="http://www.w3.org/2000/svg">
</g>
<g xmlns="http://www.w3.org/2000/svg">
</g>
<g xmlns="http://www.w3.org/2000/svg">
</g>
<g xmlns="http://www.w3.org/2000/svg">
</g>
<g xmlns="http://www.w3.org/2000/svg">
</g>
<g xmlns="http://www.w3.org/2000/svg">
</g>
<g xmlns="http://www.w3.org/2000/svg">
</g>
</g></svg>
