<svg xmlns="http://www.w3.org/2000/svg" viewBox="0 0 64 80" x="0px" y="0px"><g><g><path d="M60.758,48.03l-7.747,1.936L42.263,47.035a.989.989,0,0,0-.459-.015l-.6.119L39,38.869V28a1,1,0,0,0-2,0V39a1.021,1.021,0,0,0,.034.258l2.207,8.274-7.258,1.451L24.7,47.769l2.269-8.511A1.027,1.027,0,0,0,27,39V33a1,1,0,0,0-2,0v.979l-8.593-5.287.989-1.484,4.074,1.481h0l4.188,1.523A1,1,0,0,0,27,29.272V16a1,1,0,0,0-.359-.768L21.33,10.807l1.013-1.518,6.919,3.46,2.8,5.411a1,1,0,0,0,1.674.158l5.724-7.285,13.54.9v1.189L41.339,14.679a1,1,0,0,0-.791.607l-3.471,8.329a1,1,0,0,0,1.846.77l3.25-7.8,5.292-.7L50,18.414V22a1,1,0,0,0,2,0V18a1,1,0,0,0-.293-.707l-1.746-1.746,3.766-.5L57.262,17.7l1.906,2.859a1,1,0,1,0,1.664-1.11l-1.545-2.318,2.42-2.42a1,1,0,0,0-1.414-1.414L57.906,15.68,55,13.5V11.481l4.625-3.7a1,1,0,0,0-1.25-1.562l-4.7,3.758-4.623-.309L50.868,6.5A1,1,0,0,0,49.132,5.5L46.837,9.52,39.066,9a.979.979,0,0,0-.852.38l-5.09,6.478-2.229-4.3v0l-.764-1.528A4.989,4.989,0,0,1,31.6,3.8a1,1,0,0,0-1.2-1.6,6.982,6.982,0,0,0-2.483,7.64l-5.47-2.735a1,1,0,0,0-1.279.34l-1.51,2.266L18.6,9.18a8.685,8.685,0,0,0-3.9-.9A7.41,7.41,0,0,0,4.375,7.219a1,1,0,0,0,1.25,1.562,5.4,5.4,0,0,1,6.548-.127A8.629,8.629,0,0,0,6,16.964V19a1,1,0,0,0,2,0V16.964a6.7,6.7,0,0,1,9.7-5.995l1.748.874L25,16.468V27.845l-2.272-.827-.738-5.16a1,1,0,1,0-1.98.284l.586,4.1L17.342,25.06a1,1,0,0,0-1.174.385l-2,3a1,1,0,0,0,.308,1.407L25,36.328v2.541l-2.285,8.57-2.551-.425a.9.9,0,0,0-.264-.009L9.922,48H9.917l-.017,0a.924.924,0,0,0-.174.034l-7,2A1,1,0,0,0,3,52a.962.962,0,0,0,.275-.039l5.178-1.479-1.4,4.2-1,3a1,1,0,1,0,1.9.632l.586-1.758,1.911,1.274a1,1,0,1,0,1.11-1.664L9.19,54.592l1.554-4.661,8.055-.806-.75,4.5-1.881,2.821A1,1,0,0,0,17,58a.908.908,0,0,0,.164-.014l5.493-.915,1.636,1.636a1,1,0,0,0,1.414-1.414l-1.49-1.49L25.9,52.447a1,1,0,0,0-1.79-.894L22.333,55.1l-3.221.537.72-1.079a1.007,1.007,0,0,0,.154-.39l.836-5.014L31.333,50.9l1.4,2.8L29.4,56.2a1,1,0,1,0,1.2,1.6l4-3a1,1,0,0,0,.3-1.247L33.48,50.724l7.555-1.511a.977.977,0,0,0,.108.3L43.412,53.3,39.8,54.02h0c-.018,0-.034.017-.052.022a.994.994,0,0,0-.329.149c-.006,0-.013,0-.019.008l-4,3a1,1,0,0,0-.354,1.1l.939,3a1,1,0,0,0,1.909-.6l-.728-2.325,2.476-1.857,2.463,4.928a1,1,0,0,0,1.79-.894L41.48,55.724,45.2,54.98a1,1,0,0,0,.661-1.495l-2.436-4.061L51.4,51.6l-1.23,1.845a1,1,0,0,0,.277,1.387l1.418.945-3.234,1.294a1,1,0,0,0-.161,1.776l4.77,3A1,1,0,0,0,54.3,60.153L51.2,58.2l3-1.2H57a1,1,0,0,0,0-2H54.3l-1.916-1.277,1.231-1.847,7.624-1.906a1,1,0,1,0-.484-1.94Z"/><path d="M34,29a1,1,0,0,0-1,1v9a1,1,0,0,0,2,0V30A1,1,0,0,0,34,29Z"/><path d="M31,21a1,1,0,0,0-2,0V33a1,1,0,0,0,2,0Z"/><path d="M35,22.333,37.8,18.6a1,1,0,0,0-1.6-1.2l-3,4a1,1,0,0,0-.2.6v3a1,1,0,0,0,2,0Z"/><path d="M30,37a1,1,0,0,0-1,1v3.838l-.948,2.846a1,1,0,1,0,1.9.632l1-3A1,1,0,0,0,31,42V38A1,1,0,0,0,30,37Z"/><path d="M52,46a1,1,0,0,0,1-1V41a7.008,7.008,0,0,0-7-7,1,1,0,0,0-1,1v4A7.008,7.008,0,0,0,52,46Zm-5-7.39,1.143,1.905a1,1,0,0,0,1.714-1.03l-1.821-3.036A5,5,0,0,1,51,41v2.9A5.008,5.008,0,0,1,47,39Z"/><path d="M53,29a1,1,0,0,0-2,0v4a1,1,0,0,0,2,0Z"/><path d="M45,28a1,1,0,0,0-2,0v3a1,1,0,0,0,2,0Z"/><path d="M49,32V26a1,1,0,0,0-2,0v6a1,1,0,0,0,2,0Z"/></g></g><text x="0" y="79" fill="#000000" font-size="5px" font-weight="bold" font-family="'Helvetica Neue', Helvetica, Arial-Unicode, Arial, Sans-serif">Created by Tippawan Sookruay</text><text x="0" y="84" fill="#000000" font-size="5px" font-weight="bold" font-family="'Helvetica Neue', Helvetica, Arial-Unicode, Arial, Sans-serif">from the Noun Project</text></svg>