<svg width="64" height="80" viewBox="0 0 64 80" fill="none" xmlns="http://www.w3.org/2000/svg">
<path d="M60.7578 48.03L53.0108 49.966L42.2628 47.035C42.1131 46.9941 41.9559 46.9889 41.8038 47.02L41.2038 47.139L38.9998 38.869V28C38.9998 27.7348 38.8945 27.4804 38.7069 27.2929C38.5194 27.1054 38.265 27 37.9998 27C37.7346 27 37.4802 27.1054 37.2927 27.2929C37.1052 27.4804 36.9998 27.7348 36.9998 28V39C37.0001 39.0871 37.0115 39.1738 37.0338 39.258L39.2408 47.532L31.9828 48.983L24.6998 47.769L26.9688 39.258C26.99 39.1737 27.0005 39.087 26.9998 39V33C26.9998 32.7348 26.8945 32.4804 26.7069 32.2929C26.5194 32.1054 26.265 32 25.9998 32C25.7346 32 25.4803 32.1054 25.2927 32.2929C25.1052 32.4804 24.9998 32.7348 24.9998 33V33.979L16.4068 28.692L17.3958 27.208L21.4698 28.689L25.6578 30.212C25.8089 30.267 25.971 30.2847 26.1304 30.2637C26.2898 30.2427 26.4418 30.1836 26.5735 30.0914C26.7052 29.9991 26.8127 29.8765 26.8869 29.7338C26.9611 29.5912 26.9999 29.4328 26.9998 29.272V16C26.9999 15.8535 26.9678 15.7088 26.9057 15.5761C26.8437 15.4434 26.7533 15.3259 26.6408 15.232L21.3298 10.807L22.3428 9.289L29.2618 12.749L32.0618 18.16C32.1388 18.3086 32.2518 18.4354 32.3905 18.529C32.5292 18.6225 32.6892 18.6798 32.8557 18.6955C33.0223 18.7112 33.1901 18.6849 33.3439 18.619C33.4977 18.553 33.6324 18.4495 33.7358 18.318L39.4598 11.033L52.9998 11.933V13.122L41.3388 14.679C41.1654 14.7021 41.0011 14.7704 40.8623 14.8769C40.7235 14.9834 40.615 15.1245 40.5478 15.286L37.0768 23.615C36.9747 23.8598 36.974 24.1351 37.0749 24.3804C37.1758 24.6257 37.37 24.8209 37.6148 24.923C37.8596 25.0251 38.1349 25.0258 38.3802 24.9249C38.6255 24.824 38.8207 24.6298 38.9228 24.385L42.1728 16.585L47.4648 15.885L49.9998 18.414V22C49.9998 22.2652 50.1052 22.5196 50.2927 22.7071C50.4802 22.8946 50.7346 23 50.9998 23C51.265 23 51.5194 22.8946 51.7069 22.7071C51.8945 22.5196 51.9998 22.2652 51.9998 22V18C51.9998 17.7348 51.8944 17.4805 51.7068 17.293L49.9608 15.547L53.7268 15.047L57.2618 17.7L59.1678 20.559C59.2407 20.6683 59.3344 20.7621 59.4435 20.8351C59.5527 20.9082 59.6752 20.959 59.804 20.9848C59.9327 21.0105 60.0653 21.0106 60.1942 20.9851C60.323 20.9595 60.4456 20.9089 60.5548 20.836C60.6641 20.7631 60.7579 20.6694 60.831 20.5603C60.904 20.4511 60.9549 20.3287 60.9806 20.1999C61.0063 20.0711 61.0064 19.9385 60.9809 19.8096C60.9554 19.6808 60.9047 19.5583 60.8318 19.449L59.2868 17.131L61.7068 14.711C61.889 14.5224 61.9898 14.2698 61.9875 14.0076C61.9852 13.7454 61.88 13.4946 61.6946 13.3092C61.5092 13.1238 61.2584 13.0186 60.9962 13.0163C60.734 13.0141 60.4814 13.1148 60.2928 13.297L57.9058 15.68L54.9998 13.5V11.481L59.6248 7.781C59.832 7.61524 59.9648 7.37399 59.994 7.11031C60.0233 6.84664 59.9466 6.58214 59.7808 6.375C59.6151 6.16787 59.3738 6.03507 59.1101 6.00581C58.8465 5.97656 58.582 6.05324 58.3748 6.219L53.6748 9.977L49.0518 9.668L50.8678 6.5C50.9335 6.38602 50.976 6.26021 50.9931 6.12978C51.0101 5.99934 51.0013 5.86682 50.9671 5.73979C50.933 5.61276 50.8741 5.4937 50.7939 5.38942C50.7137 5.28513 50.6138 5.19766 50.4998 5.132C50.3858 5.06634 50.26 5.02378 50.1296 5.00674C49.9992 4.98969 49.8666 4.99851 49.7396 5.03268C49.6126 5.06685 49.4935 5.12571 49.3892 5.2059C49.285 5.28608 49.1975 5.38602 49.1318 5.5L46.8368 9.52L39.0658 9C38.9034 8.98746 38.7404 9.01564 38.5916 9.082C38.4429 9.14835 38.313 9.25078 38.2138 9.38L33.1238 15.858L30.8948 11.558L30.1308 10.03C29.6063 8.98414 29.466 7.78718 29.7345 6.64837C30.0031 5.50956 30.6633 4.50136 31.5998 3.8C31.812 3.64087 31.9523 3.40398 31.9898 3.14143C32.0273 2.87887 31.959 2.61218 31.7998 2.4C31.6407 2.18783 31.4038 2.04756 31.1412 2.01005C30.8787 1.97255 30.612 2.04087 30.3998 2.2C29.2496 3.06282 28.3939 4.2597 27.9495 5.62713C27.5051 6.99456 27.4937 8.46585 27.9168 9.84L22.4468 7.105C22.2288 6.9961 21.9785 6.97056 21.743 7.03316C21.5075 7.09577 21.303 7.24222 21.1678 7.445L19.6578 9.711L18.5998 9.18C17.3876 8.58046 16.0522 8.27227 14.6998 8.28C13.4606 6.78618 11.6848 5.83818 9.75412 5.63978C7.8234 5.44138 5.8919 6.00841 4.37482 7.219C4.16769 7.38476 4.03489 7.62602 4.00563 7.8897C3.97637 8.15337 4.05306 8.41787 4.21882 8.625C4.38458 8.83214 4.62584 8.96494 4.88951 8.9942C5.15319 9.02345 5.41769 8.94676 5.62482 8.781C6.5516 8.04536 7.69434 7.63448 8.87737 7.61153C10.0604 7.58859 11.2182 7.95485 12.1728 8.654C10.3836 9.18522 8.81479 10.2822 7.70181 11.7805C6.58882 13.2788 5.99163 15.0976 5.99982 16.964V19C5.99982 19.2652 6.10518 19.5196 6.29272 19.7071C6.48025 19.8946 6.73461 20 6.99982 20C7.26504 20 7.51939 19.8946 7.70693 19.7071C7.89447 19.5196 7.99982 19.2652 7.99982 19V16.964C7.99911 15.8212 8.2907 14.6973 8.84687 13.699C9.40304 12.7007 10.2053 11.8613 11.1774 11.2605C12.1495 10.6597 13.2591 10.3175 14.4007 10.2665C15.5423 10.2155 16.678 10.4573 17.6998 10.969L19.4478 11.843L24.9998 16.468V27.845L22.7278 27.018L21.9898 21.858C21.9522 21.5954 21.8117 21.3586 21.5994 21.1996C21.3872 21.0405 21.1204 20.9723 20.8578 21.01C20.5953 21.0477 20.3584 21.1881 20.1994 21.4004C20.0403 21.6127 19.9722 21.8794 20.0098 22.142L20.5958 26.242L17.3418 25.06C17.1313 24.9834 16.9011 24.9797 16.6883 25.0495C16.4754 25.1193 16.2921 25.2586 16.1678 25.445L14.1678 28.445C14.0932 28.5568 14.0419 28.6826 14.0169 28.8147C13.992 28.9468 13.994 29.0826 14.0227 29.214C14.0515 29.3453 14.1064 29.4695 14.1843 29.5792C14.2621 29.6888 14.3613 29.7816 14.4758 29.852L24.9998 36.328V38.869L22.7148 47.439L20.1638 47.014C20.0767 46.998 19.9878 46.995 19.8998 47.005L9.92182 48H9.91682H9.89982C9.84087 48.0057 9.7826 48.0171 9.72582 48.034L2.72582 50.034C2.49004 50.097 2.28543 50.244 2.15054 50.4474C2.01564 50.6508 1.95977 50.8965 1.99346 51.1382C2.02715 51.3799 2.14806 51.6009 2.33343 51.7597C2.51879 51.9184 2.75581 52.0039 2.99982 52C3.09289 52.0004 3.18552 51.9872 3.27482 51.961L8.45282 50.482L7.05282 54.682L6.05282 57.682C6.01132 57.8068 5.99481 57.9385 6.00421 58.0696C6.01361 58.2007 6.04875 58.3287 6.10763 58.4463C6.22652 58.6837 6.43487 58.8642 6.68682 58.948C6.93878 59.0318 7.21371 59.0121 7.45113 58.8932C7.68855 58.7743 7.86901 58.566 7.95282 58.314L8.53882 56.556L10.4498 57.83C10.5591 57.9029 10.6816 57.9535 10.8105 57.9791C10.9393 58.0046 11.0719 58.0045 11.2007 57.9788C11.3295 57.953 11.452 57.9022 11.5611 57.8292C11.6702 57.7561 11.7639 57.6623 11.8368 57.553C11.9097 57.4437 11.9604 57.3212 11.9859 57.1924C12.0114 57.0635 12.0113 56.9309 11.9856 56.8021C11.9599 56.6733 11.909 56.5509 11.836 56.4417C11.7629 56.3326 11.6691 56.2389 11.5598 56.166L9.18982 54.592L10.7438 49.931L18.7988 49.125L18.0488 53.625L16.1678 56.446C16.0676 56.5966 16.0101 56.7715 16.0015 56.9522C15.9928 57.1329 16.0334 57.3125 16.1187 57.472C16.2041 57.6315 16.3312 57.7648 16.4863 57.8578C16.6415 57.9508 16.8189 57.9999 16.9998 58C17.0548 58.0003 17.1097 57.9956 17.1638 57.986L22.6568 57.071L24.2928 58.707C24.4814 58.8892 24.734 58.99 24.9962 58.9877C25.2584 58.9854 25.5092 58.8802 25.6946 58.6948C25.88 58.5094 25.9852 58.2586 25.9875 57.9964C25.9898 57.7342 25.889 57.4816 25.7068 57.293L24.2168 55.803L25.8998 52.447C26.0184 52.2096 26.0378 51.9349 25.9538 51.6832C25.8697 51.4315 25.6892 51.2236 25.4518 51.105C25.2145 50.9865 24.9397 50.9671 24.688 51.0511C24.4364 51.1351 24.2284 51.3156 24.1098 51.553L22.3328 55.1L19.1118 55.637L19.8318 54.558C19.91 54.4402 19.9624 54.3074 19.9858 54.168L20.8218 49.154L31.3328 50.9L32.7328 53.7L29.3998 56.2C29.1876 56.3591 29.0474 56.596 29.0099 56.8586C28.9724 57.1211 29.0407 57.3878 29.1998 57.6C29.359 57.8122 29.5958 57.9524 29.8584 57.99C30.121 58.0275 30.3876 57.9591 30.5998 57.8L34.5998 54.8C34.7881 54.6603 34.9212 54.4589 34.9761 54.2309C35.0309 54.003 35.0039 53.7631 34.8998 53.553L33.4798 50.724L41.0348 49.213C41.0541 49.3182 41.0906 49.4196 41.1428 49.513L43.4118 53.3L39.7998 54.02C39.7818 54.02 39.7658 54.037 39.7478 54.042C39.63 54.0712 39.5185 54.1217 39.4188 54.191C39.4128 54.191 39.4058 54.191 39.3998 54.199L35.3998 57.199C35.2342 57.3232 35.1113 57.4957 35.0479 57.6927C34.9844 57.8897 34.9837 58.1016 35.0458 58.299L35.9848 61.299C36.0644 61.5522 36.2413 61.7633 36.4765 61.8861C36.7118 62.0088 36.9862 62.0331 37.2393 61.9535C37.4925 61.8739 37.7036 61.6971 37.8264 61.4618C37.9491 61.2265 37.9734 60.9522 37.8938 60.699L37.1658 58.374L39.6418 56.517L42.1048 61.445C42.2234 61.6824 42.4314 61.8629 42.683 61.9469C42.9347 62.031 43.2095 62.0116 43.4468 61.893C43.6842 61.7745 43.8647 61.5665 43.9488 61.3148C44.0328 61.0631 44.0134 60.7884 43.8948 60.551L41.4798 55.724L45.1998 54.98C45.3569 54.9485 45.5041 54.8798 45.6291 54.7795C45.7541 54.6792 45.8531 54.5504 45.9179 54.4039C45.9827 54.2573 46.0113 54.0974 46.0014 53.9375C45.9915 53.7776 45.9433 53.6224 45.8608 53.485L43.4248 49.424L51.3998 51.6L50.1698 53.445C50.0969 53.5543 50.0463 53.6768 50.0207 53.8056C49.9952 53.9345 49.9953 54.0671 50.021 54.1959C50.0467 54.3247 50.0976 54.4472 50.1706 54.5563C50.2437 54.6654 50.3375 54.7591 50.4468 54.832L51.8648 55.777L48.6308 57.071C48.4593 57.1394 48.3101 57.254 48.1996 57.402C48.0892 57.55 48.022 57.7257 48.0053 57.9096C47.9886 58.0935 48.0232 58.2784 48.1052 58.4439C48.1872 58.6094 48.3134 58.7489 48.4698 58.847L53.2398 61.847C53.4641 61.9748 53.729 62.0109 53.9793 61.9479C54.2296 61.8848 54.4458 61.7274 54.5827 61.5086C54.7196 61.2898 54.7666 61.0266 54.7139 60.7739C54.6612 60.5213 54.5128 60.2988 54.2998 60.153L51.1998 58.2L54.1998 57H56.9998C57.265 57 57.5194 56.8946 57.7069 56.7071C57.8945 56.5196 57.9998 56.2652 57.9998 56C57.9998 55.7348 57.8945 55.4804 57.7069 55.2929C57.5194 55.1054 57.265 55 56.9998 55H54.2998L52.3838 53.723L53.6148 51.876L61.2388 49.97C61.3688 49.9407 61.4917 49.8858 61.6002 49.8084C61.7087 49.731 61.8006 49.6326 61.8705 49.5192C61.9405 49.4058 61.987 49.2795 62.0075 49.1478C62.0279 49.0161 62.0218 48.8816 61.9895 48.7523C61.9573 48.623 61.8995 48.5015 61.8196 48.3948C61.7397 48.2882 61.6393 48.1985 61.5242 48.1313C61.4092 48.064 61.2819 48.0203 61.1497 48.0029C61.0176 47.9856 60.8833 47.9948 60.7548 48.03H60.7578Z" fill="black"/>
<path d="M34 29C33.7348 29 33.4804 29.1054 33.2929 29.2929C33.1054 29.4804 33 29.7348 33 30V39C33 39.2652 33.1054 39.5196 33.2929 39.7071C33.4804 39.8946 33.7348 40 34 40C34.2652 40 34.5196 39.8946 34.7071 39.7071C34.8946 39.5196 35 39.2652 35 39V30C35 29.7348 34.8946 29.4804 34.7071 29.2929C34.5196 29.1054 34.2652 29 34 29Z" fill="black"/>
<path d="M31 21C31 20.7348 30.8946 20.4804 30.7071 20.2929C30.5196 20.1054 30.2652 20 30 20C29.7348 20 29.4804 20.1054 29.2929 20.2929C29.1054 20.4804 29 20.7348 29 21V33C29 33.2652 29.1054 33.5196 29.2929 33.7071C29.4804 33.8946 29.7348 34 30 34C30.2652 34 30.5196 33.8946 30.7071 33.7071C30.8946 33.5196 31 33.2652 31 33V21Z" fill="black"/>
<path d="M35 22.333L37.8 18.6C37.9591 18.3878 38.0275 18.1211 37.9899 17.8586C37.9524 17.596 37.8122 17.3591 37.6 17.2C37.3878 17.0409 37.1211 16.9725 36.8586 17.0101C36.596 17.0476 36.3591 17.1878 36.2 17.4L33.2 21.4C33.0702 21.5731 33 21.7836 33 22V25C33 25.2652 33.1054 25.5196 33.2929 25.7071C33.4804 25.8946 33.7348 26 34 26C34.2652 26 34.5196 25.8946 34.7071 25.7071C34.8946 25.5196 35 25.2652 35 25V22.333Z" fill="black"/>
<path d="M29.9997 37C29.7344 37 29.4801 37.1054 29.2926 37.2929C29.105 37.4804 28.9997 37.7348 28.9997 38V41.838L28.0517 44.684C28.0102 44.8088 27.9936 44.9405 28.0031 45.0716C28.0125 45.2027 28.0476 45.3307 28.1065 45.4483C28.1653 45.5659 28.2468 45.6707 28.3462 45.7568C28.4455 45.8428 28.5609 45.9085 28.6857 45.95C28.8104 45.9915 28.9421 46.008 29.0733 45.9986C29.2044 45.9892 29.3324 45.9541 29.45 45.8952C29.5675 45.8363 29.6723 45.7549 29.7584 45.6555C29.8445 45.5561 29.9102 45.4408 29.9517 45.316L30.9517 42.316C30.9845 42.2139 31.0007 42.1072 30.9997 42V38C30.9997 37.7348 30.8943 37.4804 30.7068 37.2929C30.5192 37.1054 30.2649 37 29.9997 37Z" fill="black"/>
<path d="M52 46C52.2652 46 52.5196 45.8946 52.7071 45.7071C52.8946 45.5196 53 45.2652 53 45V41C52.9979 39.1441 52.2597 37.3649 50.9474 36.0526C49.6351 34.7403 47.8559 34.0021 46 34C45.7348 34 45.4804 34.1054 45.2929 34.2929C45.1054 34.4804 45 34.7348 45 35V39C45.0021 40.8559 45.7403 42.6351 47.0526 43.9474C48.3649 45.2597 50.1441 45.9979 52 46V46ZM47 38.61L48.143 40.515C48.282 40.7372 48.5027 40.8959 48.7576 40.957C49.0125 41.0181 49.2811 40.9767 49.5058 40.8417C49.7304 40.7067 49.8931 40.4889 49.9588 40.2351C50.0245 39.9814 49.9879 39.712 49.857 39.485L48.036 36.449C48.916 36.8413 49.6639 37.4796 50.1898 38.287C50.7156 39.0944 50.997 40.0365 51 41V43.9C49.8713 43.6681 48.8572 43.054 48.1285 42.1614C47.3998 41.2688 47.0013 40.1523 47 39V38.61Z" fill="black"/>
<path d="M53 29C53 28.7348 52.8946 28.4804 52.7071 28.2929C52.5196 28.1054 52.2652 28 52 28C51.7348 28 51.4804 28.1054 51.2929 28.2929C51.1054 28.4804 51 28.7348 51 29V33C51 33.2652 51.1054 33.5196 51.2929 33.7071C51.4804 33.8946 51.7348 34 52 34C52.2652 34 52.5196 33.8946 52.7071 33.7071C52.8946 33.5196 53 33.2652 53 33V29Z" fill="black"/>
<path d="M45 28C45 27.7348 44.8946 27.4804 44.7071 27.2929C44.5196 27.1054 44.2652 27 44 27C43.7348 27 43.4804 27.1054 43.2929 27.2929C43.1054 27.4804 43 27.7348 43 28V31C43 31.2652 43.1054 31.5196 43.2929 31.7071C43.4804 31.8946 43.7348 32 44 32C44.2652 32 44.5196 31.8946 44.7071 31.7071C44.8946 31.5196 45 31.2652 45 31V28Z" fill="black"/>
<path d="M49 32V26C49 25.7348 48.8946 25.4804 48.7071 25.2929C48.5196 25.1054 48.2652 25 48 25C47.7348 25 47.4804 25.1054 47.2929 25.2929C47.1054 25.4804 47 25.7348 47 26V32C47 32.2652 47.1054 32.5196 47.2929 32.7071C47.4804 32.8946 47.7348 33 48 33C48.2652 33 48.5196 32.8946 48.7071 32.7071C48.8946 32.5196 49 32.2652 49 32Z" fill="black"/>
</svg>
