<?xml version="1.0"?>
<svg xmlns="http://www.w3.org/2000/svg" xmlns:xlink="http://www.w3.org/1999/xlink" xmlns:svgjs="http://svgjs.com/svgjs" version="1.1" width="512" height="512" x="0" y="0" viewBox="0 0 512 512" style="enable-background:new 0 0 512 512" xml:space="preserve"><g><path xmlns="http://www.w3.org/2000/svg" d="m255.367188 145.390625c-4.128907 0-7.472657-3.347656-7.472657-7.476563v-75.140624c0-4.128907 3.34375-7.476563 7.472657-7.476563 4.128906 0 7.476562 3.347656 7.476562 7.476563v75.140624c0 4.128907-3.347656 7.476563-7.476562 7.476563zm0 0" fill="#ee4a84" data-original="#ee4a84" style=""/><path xmlns="http://www.w3.org/2000/svg" d="m279.617188 162.164062c0 13.394532-10.855469 24.253907-24.25 24.253907-13.390626 0-24.25-10.859375-24.25-24.253907 0-13.390624 10.859374-24.25 24.25-24.25 13.394531 0 24.25 10.859376 24.25 24.25zm0 0" fill="#0470b2" data-original="#0470b2" style=""/><path xmlns="http://www.w3.org/2000/svg" d="m297.453125 228.503906c0 23.242188-18.839844 42.085938-42.085937 42.085938-23.242188 0-42.085938-18.84375-42.085938-42.085938 0-23.246094 18.84375-42.085937 42.085938-42.085937 23.246093 0 42.085937 18.839843 42.085937 42.085937zm0 0" fill="#fab700" data-original="#fab700" style=""/><path xmlns="http://www.w3.org/2000/svg" d="m137.101562 111.085938c-4.128906 0-7.476562-3.347657-7.476562-7.476563v-75.140625c0-4.128906 3.347656-7.476562 7.476562-7.476562 4.128907 0 7.472657 3.347656 7.472657 7.476562v75.140625c0 4.128906-3.34375 7.476563-7.472657 7.476563zm0 0" fill="#ee4a84" data-original="#ee4a84" style=""/><path xmlns="http://www.w3.org/2000/svg" d="m372.140625 90.089844c-4.128906 0-7.476563-3.34375-7.476563-7.472656v-75.140626c0-4.132812 3.347657-7.476562 7.476563-7.476562s7.472656 3.34375 7.472656 7.476562v75.140626c0 4.128906-3.34375 7.472656-7.472656 7.472656zm0 0" fill="#ee4a84" data-original="#ee4a84" style=""/><path xmlns="http://www.w3.org/2000/svg" d="m157.183594 186.164062h-40.164063c-11.707031 0-21.195312-9.488281-21.195312-21.195312v-40.164062c0-11.707032 9.488281-21.195313 21.195312-21.195313h40.164063c11.707031 0 21.195312 9.488281 21.195312 21.195313v40.164062c0 11.707031-9.488281 21.195312-21.195312 21.195312zm0 0" fill="#f7c6ba" data-original="#f7c6ba" style=""/><path xmlns="http://www.w3.org/2000/svg" d="m186.277344 213.675781h-98.351563c-5.019531 0-9.085937-4.070312-9.085937-9.085937v-9.335938c0-5.019531 4.066406-9.089844 9.085937-9.089844h98.351563c5.015625 0 9.085937 4.070313 9.085937 9.089844v9.335938c0 5.015625-4.070312 9.085937-9.085937 9.085937zm0 0" fill="#1dc2ff" data-original="#1dc2ff" style=""/><path xmlns="http://www.w3.org/2000/svg" d="m176.089844 252.148438h-77.976563c-5.019531 0-9.085937-4.070313-9.085937-9.089844v-20.296875c0-5.019531 4.066406-9.085938 9.085937-9.085938h77.976563c5.019531 0 9.085937 4.066407 9.085937 9.085938v20.296875c0 5.019531-4.066406 9.089844-9.085937 9.089844zm0 0" fill="#fab700" data-original="#fab700" style=""/><path xmlns="http://www.w3.org/2000/svg" d="m392.222656 252.148438h-40.164062c-11.707032 0-21.195313-9.492188-21.195313-21.195313v-40.167969c0-11.703125 9.488281-21.195312 21.195313-21.195312h40.164062c11.707032 0 21.195313 9.492187 21.195313 21.195312v40.167969c0 11.703125-9.488281 21.195313-21.195313 21.195313zm0 0" fill="#f7c6ba" data-original="#f7c6ba" style=""/><path xmlns="http://www.w3.org/2000/svg" d="m411.128906 121.089844h-77.976562c-5.019532 0-9.085938-4.070313-9.085938-9.089844v-20.296875c0-5.019531 4.066406-9.085937 9.085938-9.085937h77.976562c5.019532 0 9.085938 4.066406 9.085938 9.085937v20.296875c0 5.019531-4.066406 9.089844-9.085938 9.089844zm0 0" fill="#fab700" data-original="#fab700" style=""/><path xmlns="http://www.w3.org/2000/svg" d="m396.390625 145.339844c0 13.394531-10.855469 24.25-24.25 24.25s-24.25-10.855469-24.25-24.25c0-13.394532 10.855469-24.25 24.25-24.25s24.25 10.855468 24.25 24.25zm0 0" fill="#0470b2" data-original="#0470b2" style=""/><path xmlns="http://www.w3.org/2000/svg" d="m157.183594 103.609375h-32.472656c11.707031 0 21.195312 9.488281 21.195312 21.195313v40.164062c0 11.707031-9.492188 21.195312-21.195312 21.195312h32.472656c11.707031 0 21.195312-9.488281 21.195312-21.195312v-40.164062c0-11.707032-9.488281-21.195313-21.195312-21.195313zm0 0" fill="#f4ada5" data-original="#f4ada5" style=""/><path xmlns="http://www.w3.org/2000/svg" d="m392.222656 169.589844h-32.472656c11.707031 0 21.195312 9.492187 21.195312 21.195312v40.167969c0 11.703125-9.488281 21.195313-21.195312 21.195313h32.472656c11.707032 0 21.195313-9.492188 21.195313-21.195313v-40.167969c0-11.703125-9.488281-21.195312-21.195313-21.195312zm0 0" fill="#f4ada5" data-original="#f4ada5" style=""/><path xmlns="http://www.w3.org/2000/svg" d="m176.089844 213.675781h-28.21875c5.019531 0 9.085937 4.066407 9.085937 9.085938v20.300781c0 5.015625-4.066406 9.085938-9.085937 9.085938h28.21875c5.019531 0 9.085937-4.070313 9.085937-9.085938v-20.300781c0-5.019531-4.066406-9.085938-9.085937-9.085938zm0 0" fill="#faa200" data-original="#faa200" style=""/><path xmlns="http://www.w3.org/2000/svg" d="m411.128906 82.617188h-28.21875c5.015625 0 9.085938 4.066406 9.085938 9.085937v20.296875c0 5.019531-4.070313 9.089844-9.085938 9.089844h28.21875c5.019532 0 9.085938-4.070313 9.085938-9.089844v-20.296875c0-5.019531-4.066406-9.085937-9.085938-9.085937zm0 0" fill="#faa200" data-original="#faa200" style=""/><path xmlns="http://www.w3.org/2000/svg" d="m373.925781 121.160156c2.910157 4 4.628907 8.921875 4.628907 14.246094 0 13.394531-10.855469 24.25-24.25 24.25-.601563 0-1.195313-.027344-1.785157-.070312 4.40625 6.0625 11.550781 10.003906 19.621094 10.003906 13.394531 0 24.25-10.855469 24.25-24.25 0-12.792969-9.90625-23.265625-22.464844-24.179688zm0 0" fill="#005ca0" data-original="#005ca0" style=""/><path xmlns="http://www.w3.org/2000/svg" d="m186.277344 186.164062h-26.152344c5.019531 0 9.085938 4.070313 9.085938 9.089844v9.335938c0 5.015625-4.066407 9.085937-9.085938 9.085937h26.152344c5.015625 0 9.085937-4.070312 9.085937-9.085937v-9.335938c0-5.019531-4.070312-9.089844-9.085937-9.089844zm0 0" fill="#00a2ff" data-original="#00a2ff" style=""/><path xmlns="http://www.w3.org/2000/svg" d="m257.15625 137.984375c2.90625 4.003906 4.628906 8.921875 4.628906 14.246094 0 13.394531-10.859375 24.25-24.25 24.25-.605468 0-1.199218-.027344-1.789062-.070313 4.410156 6.0625 11.554687 10.007813 19.621094 10.007813 13.394531 0 24.25-10.859375 24.25-24.253907 0-12.789062-9.90625-23.261718-22.460938-24.179687zm0 0" fill="#005ca0" data-original="#005ca0" style=""/><path xmlns="http://www.w3.org/2000/svg" d="m255.367188 186.417969c-4.582032 0-8.992188.742187-13.121094 2.097656 16.816406 5.515625 28.964844 21.328125 28.964844 39.988281s-12.148438 34.472656-28.964844 39.988282c4.128906 1.355468 8.539062 2.097656 13.121094 2.097656 23.246093 0 42.085937-18.839844 42.085937-42.085938s-18.839844-42.085937-42.085937-42.085937zm0 0" fill="#faa200" data-original="#faa200" style=""/><path xmlns="http://www.w3.org/2000/svg" d="m416.113281 357.113281h-321.492187c-23.160156 0-41.933594-18.777343-41.933594-41.933593v-40.875h405.359375v40.875c0 23.15625-18.773437 41.933593-41.933594 41.933593zm0 0" fill="#ed500a" data-original="#ed500a" style=""/><path xmlns="http://www.w3.org/2000/svg" d="m401.5625 274.304688v17.28125c0 23.160156-18.773438 41.933593-41.933594 41.933593h-302.722656c6.804688 13.96875 21.132812 23.59375 37.714844 23.59375h321.492187c23.160157 0 41.933594-18.777343 41.933594-41.933593v-40.875zm0 0" fill="#d1390a" data-original="#d1390a" style=""/><path xmlns="http://www.w3.org/2000/svg" d="m496.550781 288.828125h-481.101562c-4.40625 0-7.972657-3.570313-7.972657-7.972656v-20.734375c0-4.402344 3.566407-7.972656 7.972657-7.972656h481.101562c4.40625 0 7.972657 3.570312 7.972657 7.972656v20.734375c0 4.402343-3.566407 7.972656-7.972657 7.972656zm0 0" fill="#ff6914" data-original="#ff6914" style=""/><path xmlns="http://www.w3.org/2000/svg" d="m496.550781 252.148438h-61.488281c4.402344 0 7.972656 3.570312 7.972656 7.972656v20.734375c0 4.402343-3.570312 7.972656-7.972656 7.972656h61.488281c4.40625 0 7.972657-3.570313 7.972657-7.972656v-20.734375c0-4.402344-3.566407-7.972656-7.972657-7.972656zm0 0" fill="#ed500a" data-original="#ed500a" style=""/><path xmlns="http://www.w3.org/2000/svg" d="m496.550781 244.671875h-79.160156c2.230469-4.078125 3.503906-8.75 3.503906-13.71875v-40.167969c0-13.621094-9.550781-25.042968-22.308593-27.949218 3.332031-5.019532 5.28125-11.035157 5.28125-17.496094 0-6.15625-1.769532-11.90625-4.816407-16.777344h12.078125c9.132813 0 16.5625-7.429688 16.5625-16.5625v-20.296875c0-9.132813-7.429687-16.5625-16.5625-16.5625h-31.515625v-67.664063c0-4.132812-3.34375-7.476562-7.472656-7.476562s-7.476563 3.34375-7.476563 7.476562v67.664063h-31.511718c-9.132813 0-16.5625 7.429687-16.5625 16.5625v20.296875c0 9.132812 7.429687 16.5625 16.5625 16.5625h12.078125c-3.046875 4.871094-4.816407 10.621094-4.816407 16.777344 0 6.460937 1.949219 12.476562 5.28125 17.496094-12.757812 2.90625-22.308593 14.328124-22.308593 27.949218v40.167969c0 4.964844 1.273437 9.640625 3.503906 13.71875h-24.660156c1.78125-5.160156 2.699219-10.609375 2.699219-16.167969 0-19.195312-10.972657-35.863281-26.96875-44.089844 5.644531-5.730468 9.132812-13.589843 9.132812-22.25 0-14.917968-10.351562-27.457031-24.25-30.828124v-68.5625c0-4.128907-3.34375-7.472657-7.476562-7.472657-4.125 0-7.472657 3.34375-7.472657 7.472657v68.5625c-13.898437 3.371093-24.25 15.910156-24.25 30.828124 0 8.660157 3.488281 16.519532 9.132813 22.25-15.996094 8.230469-26.96875 24.898438-26.96875 44.089844 0 5.558594.917968 11.011719 2.699218 16.167969h-15.9375c.054688-.53125.082032-1.066406.082032-1.609375v-20.300781c0-.953125-.097656-1.886719-.253906-2.796875 6.109374-2.441406 10.441406-8.40625 10.441406-15.375v-9.335938c0-9.132812-7.429688-16.5625-16.5625-16.5625h-3.925782c2.234376-4.078125 3.503907-8.753906 3.503907-13.722656v-40.164062c0-15.808594-12.859375-28.671876-28.667969-28.671876h-12.609375v-67.664062c0-4.128906-3.347656-7.476562-7.472656-7.476562-4.128907 0-7.476563 3.347656-7.476563 7.476562v67.667969h-12.609375c-15.808593 0-28.667969 12.859375-28.667969 28.667969v4.980468c0 4.128906 3.347657 7.472656 7.472657 7.472656 4.128906 0 7.476562-3.34375 7.476562-7.472656v-4.980468c0-7.566407 6.15625-13.71875 13.71875-13.71875h40.167969c7.5625 0 13.71875 6.152343 13.71875 13.71875v40.167968c0 7.5625-6.15625 13.71875-13.71875 13.71875h-40.167969c-7.5625 0-13.71875-6.15625-13.71875-13.71875 0-4.128906-3.347656-7.476562-7.476562-7.476562-4.125 0-7.472657 3.347656-7.472657 7.476562 0 4.964844 1.269532 9.640625 3.503907 13.71875h-3.925781c-9.132813 0-16.5625 7.429688-16.5625 16.5625v9.335938c0 6.96875 4.332031 12.933594 10.441406 15.375-.15625.910156-.253906 1.84375-.253906 2.796875v20.300781c0 .542969.027343 1.082031.082031 1.613281h-66.1875c-8.519531 0-15.449219 6.929688-15.449219 15.445313v20.734375c0 8.519531 6.929688 15.449219 15.449219 15.449219h29.765625v18.875c0 27.242187 22.164062 49.40625 49.40625 49.40625h321.492187c27.246094 0 49.410157-22.164063 49.410157-49.40625v-18.875h31.027343c8.519531 0 15.449219-6.929688 15.449219-15.449219v-20.734375c0-8.519532-6.929688-15.449219-15.449219-15.449219zm-165.011719-132.671875v-20.296875c0-.890625.722657-1.613281 1.613282-1.613281h77.976562c.890625 0 1.613282.726562 1.613282 1.613281v20.296875c0 .890625-.726563 1.613281-1.613282 1.613281h-77.976562c-.890625 0-1.613282-.722656-1.613282-1.613281zm57.378907 33.339844c0 9.25-7.527344 16.777344-16.777344 16.777344s-16.777344-7.527344-16.777344-16.777344 7.527344-16.777344 16.777344-16.777344 16.777344 7.527344 16.777344 16.777344zm-50.582031 85.613281v-40.167969c0-7.566406 6.15625-13.71875 13.722656-13.71875h40.164062c7.566406 0 13.722656 6.152344 13.722656 13.71875v40.167969c0 7.566406-6.15625 13.71875-13.722656 13.71875h-40.164062c-7.566406 0-13.722656-6.152344-13.722656-13.71875zm-99.746094-68.789063c0-9.25 7.527344-16.773437 16.777344-16.773437s16.777343 7.523437 16.777343 16.773437c0 9.253907-7.527343 16.777344-16.777343 16.777344s-16.777344-7.523437-16.777344-16.777344zm-17.832032 66.339844c0-19.085937 15.527344-34.613281 34.609376-34.613281 19.085937 0 34.613281 15.527344 34.613281 34.613281 0 5.691406-1.398438 11.207032-4.027344 16.167969h-61.171875c-2.628906-4.957031-4.023438-10.472656-4.023438-16.167969zm-134.445312-33.25c0-.890625.726562-1.613281 1.613281-1.613281h98.347657c.890624 0 1.613281.722656 1.613281 1.613281v9.335938c0 .886718-.722657 1.609375-1.613281 1.609375h-98.347657c-.886719 0-1.609375-.722657-1.609375-1.609375v-9.335938zm10.1875 47.808594v-20.300781c0-.886719.722656-1.609375 1.613281-1.609375h77.976563c.890625 0 1.613281.722656 1.613281 1.609375v20.300781c0 .886719-.722656 1.609375-1.613281 1.609375h-77.976563c-.890625 0-1.613281-.722656-1.613281-1.609375zm400.550781 37.792969c0 .273437-.222656.496093-.5.496093h-115.574219c-4.128906 0-7.476562 3.347657-7.476562 7.476563s3.347656 7.472656 7.476562 7.472656h69.597657v18.878907c0 18.996093-15.460938 34.457031-34.460938 34.457031h-321.492187c-19 0-34.457032-15.460938-34.457032-34.457031v-18.878907h284.734376c4.128906 0 7.476562-3.34375 7.476562-7.472656s-3.347656-7.476563-7.476562-7.476563h-329.449219c-.277344 0-.5-.222656-.5-.496093v-20.734375c0-.273438.222656-.5.5-.5h481.105469c.273437 0 .496093.226562.496093.5zm0 0" fill="#000000" data-original="#000000" style=""/></g></svg>
