<svg width="74" height="71" viewBox="0 0 74 71" fill="none" xmlns="http://www.w3.org/2000/svg">
<path d="M37.371 16.1843V10.0048H43.8447C45.0218 11.1819 46.4931 12.0647 48.5529 12.0647C56.2037 12.0647 56.2037 1.4713 48.5529 1.4713C46.4931 1.4713 45.0218 2.05982 43.8447 3.53112H37.0768C35.6055 -1.17704 29.1317 -1.17704 27.6604 3.53112H20.5982C19.7154 2.05982 17.9499 1.4713 15.89 1.4713C8.23928 1.4713 8.23928 12.0647 15.89 12.0647C17.9499 12.0647 19.7154 11.1819 20.5982 10.0048H27.6604V16.1843H22.0695C18.2441 16.1843 19.1269 22.9523 15.3015 22.9523H0V35.8997H15.3015C15.3015 39.7251 18.2441 42.962 22.0695 42.962H40.9021C44.7275 42.962 47.6701 40.0194 47.9644 36.194C50.3185 36.4882 52.9668 37.0768 55.0266 37.9595C56.4979 38.5481 57.9692 39.7251 58.2635 41.4907C53.8496 43.5505 54.7324 50.3185 60.6176 50.3185H68.5626C74.1535 50.3185 75.0363 43.8447 71.2109 41.7849C70.9167 33.8399 66.5028 29.1317 60.3233 26.1891C56.7922 24.4236 52.084 23.5408 47.9644 23.2465C47.9644 19.4212 45.0218 16.1843 40.9021 16.1843H37.371ZM17.6556 35.8997C17.6556 38.5481 19.7154 40.6079 22.0695 40.6079H40.9021C43.2562 40.6079 45.316 38.5481 45.6103 36.194C45.6103 31.7801 45.6103 27.3662 45.6103 22.9523C45.6103 20.5982 43.5505 18.5384 40.9021 18.5384C34.7227 18.5384 28.5432 18.5384 22.0695 18.5384C19.7154 18.5384 17.6556 20.5982 17.6556 22.9523C17.6556 27.3662 17.6556 31.7801 17.6556 35.8997Z" fill="black"/>
<path fill-rule="evenodd" clip-rule="evenodd" d="M64.7373 53.261C64.7373 53.261 58.8521 61.7945 58.8521 65.0314C59.1463 72.9764 70.9167 72.9764 70.6225 65.0314C70.6225 61.7945 64.7373 53.261 64.7373 53.261Z" fill="black"/>
</svg>
