<svg xmlns="http://www.w3.org/2000/svg" xmlns:xlink="http://www.w3.org/1999/xlink" xml:space="preserve" version="1.1" style="shape-rendering:geometricPrecision;text-rendering:geometricPrecision;image-rendering:optimizeQuality;" viewBox="0 0 250 301.25" x="0px" y="0px" fill-rule="evenodd" clip-rule="evenodd"><defs><style type="text/css">
   
    .fil1 {fill:black}
    .fil0 {fill:black;fill-rule:nonzero}
   
  </style></defs><g><path class="fil0" d="M127 55l0 -21 22 0c4,4 9,7 16,7 26,0 26,-36 0,-36 -7,0 -12,2 -16,7l-23 0c-5,-16 -27,-16 -32,0l-24 0c-3,-5 -9,-7 -16,-7 -26,0 -26,36 0,36 7,0 13,-3 16,-7l24 0 0 21 -19 0c-13,0 -10,23 -23,23l-52 0 0 44 52 0c0,13 10,24 23,24l64 0c13,0 23,-10 24,-23 8,1 17,3 24,6 5,2 10,6 11,12 -15,7 -12,30 8,30l27 0c19,0 22,-22 9,-29 -1,-27 -16,-43 -37,-53 -12,-6 -28,-9 -42,-10 0,-13 -10,-24 -24,-24l-12 0zm-67 67c0,9 7,16 15,16l64 0c8,0 15,-7 16,-15 0,-15 0,-30 0,-45 0,-8 -7,-15 -16,-15 -21,0 -42,0 -64,0 -8,0 -15,7 -15,15 0,15 0,30 0,44z"/><path class="fil1" d="M220 181c0,0 -20,29 -20,40 1,27 41,27 40,0 0,-11 -20,-40 -20,-40z"/></g><text x="0" y="256" fill="#000000" font-size="5px" font-weight="bold" font-family="'Helvetica Neue', Helvetica, Arial-Unicode, Arial, Sans-serif">Created by Gilberto</text><text x="0" y="261" fill="#000000" font-size="5px" font-weight="bold" font-family="'Helvetica Neue', Helvetica, Arial-Unicode, Arial, Sans-serif">from the Noun Project</text></svg>